<?xml version="1.0" encoding="utf-8"?><svg fill="none" viewBox="0 0 1080 1080" xmlns="http://www.w3.org/2000/svg"><defs /><g transform="matrix(1,0,0,1,537.954,539.362)" id="B_G"><g id="B_G"><path fill="#f9f5fa" fill-opacity="1" d="M532.519,0C532.519,294.102,294.102,532.519,0,532.519C-294.102,532.519,-532.519,294.102,-532.519,0C-532.519,-294.102,-294.102,-532.519,0,-532.519C294.102,-532.519,532.519,-294.102,532.519,0Z" /></g></g><g transform="matrix(1.082,0,0,1,-9.808,109)" id="library"><g id="Group 14" transform="matrix(1,0,0,1,0,0)"><g id="library" transform="matrix(1,0,0,1,0,0)"><g id="Group 14" transform="matrix(1,0,0,1,0,0)"><g id="Group 12" transform="matrix(1,0,0,1,600.373,147.159)"><path stroke-linejoin="miter" stroke-linecap="butt" stroke-width="3" stroke-opacity="1" stroke="#f7bdae" fill="#ffffff" fill-opacity="1" d="M5.943,49.617L-5.943,49.617C-10.406,49.617,-14.057,45.966,-14.057,41.503L-14.057,-41.503C-14.057,-45.966,-10.406,-49.617,-5.943,-49.617L5.943,-49.617C10.406,-49.617,14.057,-45.966,14.057,-41.503L14.057,41.503C14.057,45.966,10.406,49.617,5.943,49.617Z" /></g><g id="Group 11" transform="matrix(1,0,0,1,263.557,152.947)"><path stroke-linejoin="miter" stroke-linecap="butt" stroke-width="3" stroke-opacity="1" stroke="#ddd9e9" fill="#ffffff" fill-opacity="1" d="M5.471,45.676L-5.471,45.676C-9.579,45.676,-12.94,42.315,-12.94,38.207L-12.94,-38.207C-12.94,-42.315,-9.579,-45.676,-5.471,-45.676L5.471,-45.676C9.579,-45.676,12.94,-42.315,12.94,-38.207L12.94,38.207C12.94,42.315,9.579,45.676,5.471,45.676Z" /></g><g id="Group 10" transform="matrix(1,0,0,1,230.108,153.38)"><path stroke-linejoin="miter" stroke-linecap="butt" stroke-width="3" stroke-opacity="1" stroke="#f7bdae" fill="#ffffff" fill-opacity="1" d="M5.523,46.109L-5.523,46.109C-9.67,46.109,-13.063,42.716,-13.063,38.569L-13.063,-38.569C-13.063,-42.716,-9.67,-46.109,-5.523,-46.109L5.523,-46.109C9.67,-46.109,13.063,-42.716,13.063,-38.569L13.063,38.569C13.063,42.716,9.67,46.109,5.523,46.109Z" /></g><g id="Group 9" transform="matrix(1,0,0,1,200.509,154.679)"><path stroke-linejoin="miter" stroke-linecap="butt" stroke-width="3" stroke-opacity="1" stroke="#d7b2d4" fill="#ffffff" fill-opacity="1" d="M5.367,44.81L-5.367,44.81C-9.397,44.81,-12.695,41.512,-12.695,37.482L-12.695,-37.482C-12.695,-41.512,-9.397,-44.81,-5.367,-44.81L5.367,-44.81C9.397,-44.81,12.695,-41.512,12.695,-37.482L12.695,37.482C12.695,41.512,9.397,44.81,5.367,44.81Z" /></g><g id="Group 8" transform="matrix(1,0,0,1,170.632,155.417)"><path stroke-linejoin="miter" stroke-linecap="butt" stroke-width="3" stroke-opacity="1" stroke="#824a8e" fill="#ffffff" fill-opacity="1" d="M5.264,43.944L-5.264,43.944C-9.216,43.944,-12.45,40.71,-12.45,36.758L-12.45,-36.758C-12.45,-40.71,-9.216,-43.944,-5.264,-43.944L5.264,-43.944C9.216,-43.944,12.45,-40.71,12.45,-36.758L12.45,36.758C12.45,40.71,9.216,43.944,5.264,43.944Z" /></g><g id="Group 7" transform="matrix(1,0,0,1,566.326,147.522)"><path stroke-linejoin="miter" stroke-linecap="butt" stroke-width="3" stroke-opacity="1" stroke="#d7b2d4" fill="#ffffff" fill-opacity="1" d="M5.934,49.542L-5.934,49.542C-10.39,49.542,-14.036,45.897,-14.036,41.441L-14.036,-41.441C-14.036,-45.897,-10.39,-49.542,-5.934,-49.542L5.934,-49.542C10.39,-49.542,14.036,-45.897,14.036,-41.441L14.036,41.441C14.036,45.897,10.39,49.542,5.934,49.542Z" /></g><g id="Group 6" transform="matrix(1,0,0,1,531.909,150.204)"><path stroke-linejoin="miter" stroke-linecap="butt" stroke-width="3" stroke-opacity="1" stroke="#824a8e" fill="#ffffff" fill-opacity="1" d="M-12.788,46.025L-14.749,45.365C-17.167,44.552,-18.516,41.796,-17.746,39.241L6.992,-42.859C7.762,-45.414,10.37,-46.838,12.788,-46.025L14.749,-45.365C17.167,-44.552,18.516,-41.796,17.746,-39.241L-6.992,42.859C-7.762,45.414,-10.37,46.838,-12.788,46.025Z" /></g><g id="Group 5" transform="matrix(1,0,0,1,199.333,154.992)"><path stroke-linejoin="miter" stroke-linecap="butt" stroke-width="5" stroke-opacity="1" stroke="#f7bcad" d="M1.1,-23.113C0.367,-7.704,-0.367,7.704,-1.1,23.113" /></g><g id="Group 4" transform="matrix(1,0,0,1,566.31,152.278)"><path stroke-linejoin="miter" stroke-linecap="butt" stroke-width="5" stroke-opacity="1" stroke="#f7bcad" d="M1.537,-27.683C0.513,-9.228,-0.513,9.228,-1.537,27.683" /></g><g id="Group 3" transform="matrix(1,0,0,1,606.235,403.241)"><path stroke-linejoin="miter" stroke-linecap="butt" stroke-width="3" stroke-opacity="1" stroke="#f7bdae" fill="#ffffff" fill-opacity="1" d="M5.943,49.617L-5.943,49.617C-10.406,49.617,-14.057,45.966,-14.057,41.503L-14.057,-41.503C-14.057,-45.966,-10.406,-49.617,-5.943,-49.617L5.943,-49.617C10.406,-49.617,14.057,-45.966,14.057,-41.503L14.057,41.503C14.057,45.966,10.406,49.617,5.943,49.617Z" /></g><g id="Group 2" transform="matrix(1,0,0,1,572.187,403.604)"><path stroke-linejoin="miter" stroke-linecap="butt" stroke-width="3" stroke-opacity="1" stroke="#d7b2d4" fill="#ffffff" fill-opacity="1" d="M5.934,49.542L-5.934,49.542C-10.39,49.542,-14.036,45.897,-14.036,41.441L-14.036,-41.441C-14.036,-45.897,-10.39,-49.542,-5.934,-49.542L5.934,-49.542C10.39,-49.542,14.036,-45.897,14.036,-41.441L14.036,41.441C14.036,45.897,10.39,49.542,5.934,49.542Z" /></g><g id="Group 1" transform="matrix(1,0,0,1,572.172,408.36)"><path stroke-linejoin="miter" stroke-linecap="butt" stroke-width="5" stroke-opacity="1" stroke="#f7bcad" d="M1.537,-27.683C0.513,-9.228,-0.513,9.228,-1.537,27.683" /></g></g><g id="Group 13" transform="matrix(1,0,0,1,0,0)"><g id="Group 5" transform="matrix(1,0,0,1,267.02,408.313)"><path stroke-linejoin="miter" stroke-linecap="butt" stroke-width="3" stroke-opacity="1" stroke="#ddd9e9" fill="#ffffff" fill-opacity="1" d="M5.477,45.725L-5.477,45.725C-9.589,45.725,-12.954,42.36,-12.954,38.248L-12.954,-38.248C-12.954,-42.36,-9.589,-45.725,-5.477,-45.725L5.477,-45.725C9.589,-45.725,12.954,-42.36,12.954,-38.248L12.954,38.248C12.954,42.36,9.589,45.725,5.477,45.725Z" /></g><g id="Group 4" transform="matrix(1,0,0,1,233.535,408.746)"><path stroke-linejoin="miter" stroke-linecap="butt" stroke-width="3" stroke-opacity="1" stroke="#f7bdae" fill="#ffffff" fill-opacity="1" d="M5.529,46.158L-5.529,46.158C-9.68,46.158,-13.077,42.761,-13.077,38.61L-13.077,-38.61C-13.077,-42.761,-9.68,-46.158,-5.529,-46.158L5.529,-46.158C9.68,-46.158,13.077,-42.761,13.077,-38.61L13.077,38.61C13.077,42.761,9.68,46.158,5.529,46.158Z" /></g><g id="Group 3" transform="matrix(1,0,0,1,203.904,410.046)"><path stroke-linejoin="miter" stroke-linecap="butt" stroke-width="3" stroke-opacity="1" stroke="#d7b2d4" fill="#ffffff" fill-opacity="1" d="M5.373,44.858L-5.373,44.858C-9.407,44.858,-12.708,41.556,-12.708,37.522L-12.708,-37.522C-12.708,-41.556,-9.407,-44.858,-5.373,-44.858L5.373,-44.858C9.407,-44.858,12.708,-41.556,12.708,-37.522L12.708,37.522C12.708,41.556,9.407,44.858,5.373,44.858Z" /></g><g id="Group 2" transform="matrix(1,0,0,1,173.996,410.785)"><path stroke-linejoin="miter" stroke-linecap="butt" stroke-width="3" stroke-opacity="1" stroke="#824a8e" fill="#ffffff" fill-opacity="1" d="M5.269,43.991L-5.269,43.991C-9.226,43.991,-12.463,40.754,-12.463,36.797L-12.463,-36.797C-12.463,-40.754,-9.226,-43.991,-5.269,-43.991L5.269,-43.991C9.226,-43.991,12.463,-40.754,12.463,-36.797L12.463,36.797C12.463,40.754,9.226,43.991,5.269,43.991Z" /></g><g id="Group 1" transform="matrix(1,0,0,1,202.726,416.78)"><path stroke-linejoin="miter" stroke-linecap="butt" stroke-width="5" stroke-opacity="1" stroke="#f7bcad" d="M0.707,-23.155C0.236,-7.718,-0.236,7.718,-0.707,23.155" /></g></g><g id="Group 12" transform="matrix(1,0,0,1,0,0)"><g id="Group 3" transform="matrix(1,0,0,1,545.109,412.407)"><path stroke-linejoin="miter" stroke-linecap="butt" stroke-width="3" stroke-opacity="1" stroke="#f7bdae" fill="#ffffff" fill-opacity="1" d="M4.636,38.705L-4.636,38.705C-8.117,38.705,-10.965,35.857,-10.965,32.376L-10.965,-32.376C-10.965,-35.857,-8.117,-38.705,-4.636,-38.705L4.636,-38.705C8.117,-38.705,10.965,-35.857,10.965,-32.376L10.965,32.376C10.965,35.857,8.117,38.705,4.636,38.705Z" /></g><g id="Group 2" transform="matrix(1,0,0,1,518.55,412.69)"><path stroke-linejoin="miter" stroke-linecap="butt" stroke-width="3" stroke-opacity="1" stroke="#d7b2d4" fill="#ffffff" fill-opacity="1" d="M4.629,38.647L-4.629,38.647C-8.105,38.647,-10.949,35.803,-10.949,32.327L-10.949,-32.327C-10.949,-35.803,-8.105,-38.647,-4.629,-38.647L4.629,-38.647C8.105,-38.647,10.949,-35.803,10.949,-32.327L10.949,32.327C10.949,35.803,8.105,38.647,4.629,38.647Z" /></g><g id="Group 1" transform="matrix(1,0,0,1,518.538,416.4)"><path stroke-linejoin="miter" stroke-linecap="butt" stroke-width="5" stroke-opacity="1" stroke="#f7bcad" d="M1.199,-21.595C0.4,-7.199,-0.4,7.199,-1.199,21.595" /></g></g><g id="Group 11" transform="matrix(1,0,0,1,0,0)"><g id="Group 3" transform="matrix(1,0,0,1,609.705,535.083)"><path stroke-linejoin="miter" stroke-linecap="butt" stroke-width="3" stroke-opacity="1" stroke="#d7b2d4" fill="#ffffff" fill-opacity="1" d="M5.214,38.514L-5.214,38.514C-9.129,38.514,-12.332,35.311,-12.332,31.396L-12.332,-31.396C-12.332,-35.311,-9.129,-38.514,-5.214,-38.514L5.214,-38.514C9.129,-38.514,12.332,-35.311,12.332,-31.396L12.332,31.396C12.332,35.311,9.129,38.514,5.214,38.514Z" /></g><g id="Group 2" transform="matrix(1,0,0,1,576.867,536.562)"><path stroke-linejoin="miter" stroke-linecap="butt" stroke-width="3" stroke-opacity="1" stroke="#ddd9e9" fill="#ffffff" fill-opacity="1" d="M2.52,37.901L-1.368,37.967C-6.16,38.048,-10.145,33.972,-10.222,28.909L-11.094,-28.548C-11.171,-33.611,-7.312,-37.82,-2.52,-37.901L1.368,-37.967C6.16,-38.048,10.145,-33.972,10.222,-28.909L11.094,28.548C11.171,33.611,7.312,37.82,2.52,37.901Z" /></g><g id="Group 1" transform="matrix(1,0,0,1,578.393,532.391)"><path stroke-linejoin="miter" stroke-linecap="butt" stroke-width="4" stroke-opacity="1" stroke="#b5aec8" d="M-0.556,-21.444C-0.185,-7.148,0.185,7.148,0.556,21.444" /></g></g><g id="Group 10" transform="matrix(1,0,0,1,0,0)"><g id="Group 4" transform="matrix(1,0,0,1,204.107,532.451)"><path stroke-linejoin="miter" stroke-linecap="butt" stroke-width="3" stroke-opacity="1" stroke="#824a8e" fill="#ffffff" fill-opacity="1" d="M5.482,45.764L-5.482,45.764C-9.598,45.764,-12.965,42.397,-12.965,38.281L-12.965,-38.281C-12.965,-42.397,-9.598,-45.764,-5.482,-45.764L5.482,-45.764C9.598,-45.764,12.965,-42.397,12.965,-38.281L12.965,38.281C12.965,42.397,9.598,45.764,5.482,45.764Z" /></g><g id="Group 3" transform="matrix(1,0,0,1,173.725,532.533)"><path stroke-linejoin="miter" stroke-linecap="butt" stroke-width="3" stroke-opacity="1" stroke="#d7b2d4" fill="#ffffff" fill-opacity="1" d="M5.179,43.235L-5.179,43.235C-9.068,43.235,-12.249,40.054,-12.249,36.165L-12.249,-36.165C-12.249,-40.054,-9.068,-43.235,-5.179,-43.235L5.179,-43.235C9.068,-43.235,12.249,-40.054,12.249,-36.165L12.249,36.165C12.249,40.054,9.068,43.235,5.179,43.235Z" /></g><g id="Group 2" transform="matrix(1,0,0,1,235.127,530.701)"><path stroke-linejoin="miter" stroke-linecap="butt" stroke-width="3" stroke-opacity="1" stroke="#f7bdae" fill="#ffffff" fill-opacity="1" d="M9.168,44.486L5.605,45.142C1.213,45.95,-3.006,42.814,-3.771,38.174L-15.763,-34.58C-16.528,-39.22,-13.56,-43.678,-9.168,-44.486L-5.605,-45.142C-1.213,-45.95,3.006,-42.814,3.771,-38.174L15.763,34.58C16.528,39.22,13.56,43.678,9.168,44.486Z" /></g><g id="Group 1" transform="matrix(1,0,0,1,175.132,534.654)"><path stroke-linejoin="miter" stroke-linecap="butt" stroke-width="5" stroke-opacity="1" stroke="#f7bcad" d="M-1.332,-26.125C-0.444,-8.708,0.444,8.708,1.332,26.125" /></g></g><g id="Group 9" transform="matrix(1,0,0,1,0,0)"><g id="Group 5" transform="matrix(1,0,0,1,199.585,274.215)"><path stroke-linejoin="miter" stroke-linecap="butt" stroke-width="3" stroke-opacity="1" stroke="#824a8e" fill="#ffffff" fill-opacity="1" d="M5.558,46.401L-5.558,46.401C-9.731,46.401,-13.146,42.986,-13.146,38.813L-13.146,-38.813C-13.146,-42.986,-9.731,-46.401,-5.558,-46.401L5.558,-46.401C9.731,-46.401,13.146,-42.986,13.146,-38.813L13.146,38.813C13.146,42.986,9.731,46.401,5.558,46.401Z" /></g><g id="Group 4" transform="matrix(1,0,0,1,168.78,274.298)"><path stroke-linejoin="miter" stroke-linecap="butt" stroke-width="3" stroke-opacity="1" stroke="#d7b2d4" fill="#ffffff" fill-opacity="1" d="M5.251,43.837L-5.251,43.837C-9.194,43.837,-12.419,40.612,-12.419,36.669L-12.419,-36.669C-12.419,-40.612,-9.194,-43.837,-5.251,-43.837L5.251,-43.837C9.194,-43.837,12.419,-40.612,12.419,-36.669L12.419,36.669C12.419,40.612,9.194,43.837,5.251,43.837Z" /></g><g id="Group 3" transform="matrix(1,0,0,1,268.466,272.501)"><path stroke-linejoin="miter" stroke-linecap="butt" stroke-width="3" stroke-opacity="1" stroke="#ddd9e9" fill="#ffffff" fill-opacity="1" d="M26.327,42.736L21.867,45.457C17.466,48.142,11.786,46.533,9.245,41.883L-29.709,-29.4C-32.25,-34.05,-30.728,-40.051,-26.327,-42.736L-21.867,-45.457C-17.466,-48.142,-11.786,-46.533,-9.245,-41.883L29.709,29.4C32.25,34.05,30.728,40.051,26.327,42.736Z" /></g><g id="Group 2" transform="matrix(1,0,0,1,231.037,272.441)"><path stroke-linejoin="miter" stroke-linecap="butt" stroke-width="3" stroke-opacity="1" stroke="#f7bdae" fill="#ffffff" fill-opacity="1" d="M9.296,45.105L5.683,45.77C1.23,46.589,-3.048,43.411,-3.823,38.706L-15.982,-35.062C-16.757,-39.767,-13.749,-44.286,-9.296,-45.105L-5.683,-45.77C-1.23,-46.589,3.048,-43.411,3.823,-38.706L15.982,35.062C16.757,39.767,13.749,44.286,9.296,45.105Z" /></g><g id="Group 1" transform="matrix(1,0,0,1,170.207,276.448)"><path stroke-linejoin="miter" stroke-linecap="butt" stroke-width="5" stroke-opacity="1" stroke="#f7bcad" d="M-1.35,-26.489C-0.45,-8.83,0.45,8.83,1.35,26.489" /></g></g><g id="Group 8" transform="matrix(1,0,0,1,632.256,761.342)"><path stroke-linejoin="miter" stroke-linecap="butt" stroke-width="1" stroke-opacity="1" stroke="#9e60a2" d="M0.185,-0.287C0.062,-0.096,-0.062,0.096,-0.185,0.287" /></g><g id="Group 7" transform="matrix(1,0,0,1,385.005,198.71)"><path stroke-linejoin="miter" stroke-linecap="butt" stroke-width="3" stroke-opacity="1" stroke="#824a8e" d="M236.969,-1.653C78.99,-0.551,-78.99,0.551,-236.969,1.653" /></g><g id="Group 6" transform="matrix(1,0,0,1,388.107,319.322)"><path stroke-linejoin="miter" stroke-linecap="butt" stroke-width="3" stroke-opacity="1" stroke="#824a8e" d="M237.376,-1.627C79.125,-0.542,-79.125,0.542,-237.376,1.627" /></g><g id="Group 5" transform="matrix(1,0,0,1,385.782,453.206)"><path stroke-linejoin="miter" stroke-linecap="butt" stroke-width="3" stroke-opacity="1" stroke="#824a8e" d="M240.873,-1.653C80.291,-0.551,-80.291,0.551,-240.873,1.653" /></g><g id="Group 4" transform="matrix(1,0,0,1,388.134,577.148)"><path stroke-linejoin="miter" stroke-linecap="butt" stroke-width="3" stroke-opacity="1" stroke="#824a8e" d="M236.969,-1.653C78.99,-0.551,-78.99,0.551,-236.969,1.653" /></g><g id="Group 3" transform="matrix(1,0,0,1,149.166,434.844)"><path stroke-linejoin="miter" stroke-linecap="butt" stroke-width="8" stroke-opacity="1" stroke="#d7b2d4" d="M-1.564,347.039L1.564,347.039L1.564,-347.039L-1.564,-347.039L-1.564,347.039Z" /></g><g id="Group 2" transform="matrix(1,0,0,1,627.796,434.844)"><path stroke-linejoin="miter" stroke-linecap="butt" stroke-width="8" stroke-opacity="1" stroke="#d7b2d4" d="M1.564,347.039L-1.564,347.039L-1.564,-347.039L1.564,-347.039L1.564,347.039Z" /></g><g id="Group 1" transform="matrix(1,0,0,1,388.328,89.745)"><path fill="#d5b1d2" fill-opacity="1" d="M244.18,-6.102L244.18,6.102L-244.18,6.102L-244.18,-6.102L244.18,-6.102Z" /></g></g><g id="Group 3" transform="matrix(1,0,0,1,0,0)"><g id="Group 6" transform="matrix(1,0,0,1,388.673,149.76)"><path stroke-linejoin="miter" stroke-linecap="butt" stroke-width="3" stroke-opacity="1" stroke="#ddd9e9" fill="#ffffff" fill-opacity="1" d="M5.578,46.849L-5.578,46.849C-9.766,46.849,-13.192,43.422,-13.192,39.234L-13.192,-39.234C-13.192,-43.422,-9.766,-46.849,-5.578,-46.849L5.578,-46.849C9.766,-46.849,13.192,-43.422,13.192,-39.234L13.192,39.234C13.192,43.422,9.766,46.849,5.578,46.849Z" /></g><g id="Group 5" transform="matrix(1,0,0,1,354.572,150.204)"><path stroke-linejoin="miter" stroke-linecap="butt" stroke-width="3" stroke-opacity="1" stroke="#f7bdae" fill="#ffffff" fill-opacity="1" d="M5.63,47.293L-5.63,47.293C-9.858,47.293,-13.317,43.834,-13.317,39.606L-13.317,-39.606C-13.317,-43.834,-9.858,-47.293,-5.63,-47.293L5.63,-47.293C9.858,-47.293,13.317,-43.834,13.317,-39.606L13.317,39.606C13.317,43.834,9.858,47.293,5.63,47.293Z" /></g><g id="Group 4" transform="matrix(1,0,0,1,324.396,151.536)"><path stroke-linejoin="miter" stroke-linecap="butt" stroke-width="3" stroke-opacity="1" stroke="#d7b2d4" fill="#ffffff" fill-opacity="1" d="M5.472,45.961L-5.472,45.961C-9.581,45.961,-12.942,42.6,-12.942,38.491L-12.942,-38.491C-12.942,-42.6,-9.581,-45.961,-5.472,-45.961L5.472,-45.961C9.581,-45.961,12.942,-42.6,12.942,-38.491L12.942,38.491C12.942,42.6,9.581,45.961,5.472,45.961Z" /></g><g id="Group 3" transform="matrix(1,0,0,1,293.938,152.293)"><path stroke-linejoin="miter" stroke-linecap="butt" stroke-width="3" stroke-opacity="1" stroke="#824a8e" fill="#ffffff" fill-opacity="1" d="M5.366,45.073L-5.366,45.073C-9.395,45.073,-12.692,41.776,-12.692,37.747L-12.692,-37.747C-12.692,-41.776,-9.395,-45.073,-5.366,-45.073L5.366,-45.073C9.395,-45.073,12.692,-41.776,12.692,-37.747L12.692,37.747C12.692,41.776,9.395,45.073,5.366,45.073Z" /></g><g id="Group 2" transform="matrix(1,0,0,1,416.053,149.884)"><path stroke-linejoin="miter" stroke-linecap="butt" stroke-width="3" stroke-opacity="1" stroke="#824a8e" fill="#ffffff" fill-opacity="1" d="M5.984,45.177L3.647,45.458C0.171,45.875,-2.994,43.193,-3.387,39.498L-11.59,-37.7C-11.983,-41.395,-9.46,-44.76,-5.984,-45.177L-3.647,-45.458C-0.171,-45.875,2.994,-43.193,3.387,-39.498L11.59,37.7C11.983,41.395,9.46,44.76,5.984,45.177Z" /></g><g id="Group 1" transform="matrix(1,0,0,1,323.198,158.436)"><path stroke-linejoin="miter" stroke-linecap="butt" stroke-width="5" stroke-opacity="1" stroke="#f7bcad" d="M0.72,-23.725C0.24,-7.908,-0.24,7.908,-0.72,23.725" /></g></g><g id="Group 2" transform="matrix(1,0,0,1,0,0)"><g id="Group 6" transform="matrix(1,0,0,1,393.169,405.271)"><path stroke-linejoin="miter" stroke-linecap="butt" stroke-width="3" stroke-opacity="1" stroke="#ddd9e9" fill="#ffffff" fill-opacity="1" d="M5.578,46.849L-5.578,46.849C-9.766,46.849,-13.192,43.422,-13.192,39.234L-13.192,-39.234C-13.192,-43.422,-9.766,-46.849,-5.578,-46.849L5.578,-46.849C9.766,-46.849,13.192,-43.422,13.192,-39.234L13.192,39.234C13.192,43.422,9.766,46.849,5.578,46.849Z" /></g><g id="Group 5" transform="matrix(1,0,0,1,359.068,405.715)"><path stroke-linejoin="miter" stroke-linecap="butt" stroke-width="3" stroke-opacity="1" stroke="#f7bdae" fill="#ffffff" fill-opacity="1" d="M5.63,47.293L-5.63,47.293C-9.858,47.293,-13.317,43.834,-13.317,39.606L-13.317,-39.606C-13.317,-43.834,-9.858,-47.293,-5.63,-47.293L5.63,-47.293C9.858,-47.293,13.317,-43.834,13.317,-39.606L13.317,39.606C13.317,43.834,9.858,47.293,5.63,47.293Z" /></g><g id="Group 4" transform="matrix(1,0,0,1,328.892,407.048)"><path stroke-linejoin="miter" stroke-linecap="butt" stroke-width="3" stroke-opacity="1" stroke="#d7b2d4" fill="#ffffff" fill-opacity="1" d="M5.472,45.961L-5.472,45.961C-9.581,45.961,-12.942,42.6,-12.942,38.491L-12.942,-38.491C-12.942,-42.6,-9.581,-45.961,-5.472,-45.961L5.472,-45.961C9.581,-45.961,12.942,-42.6,12.942,-38.491L12.942,38.491C12.942,42.6,9.581,45.961,5.472,45.961Z" /></g><g id="Group 3" transform="matrix(1,0,0,1,298.434,407.804)"><path stroke-linejoin="miter" stroke-linecap="butt" stroke-width="3" stroke-opacity="1" stroke="#824a8e" fill="#ffffff" fill-opacity="1" d="M5.366,45.073L-5.366,45.073C-9.395,45.073,-12.692,41.776,-12.692,37.747L-12.692,-37.747C-12.692,-41.776,-9.395,-45.073,-5.366,-45.073L5.366,-45.073C9.395,-45.073,12.692,-41.776,12.692,-37.747L12.692,37.747C12.692,41.776,9.395,45.073,5.366,45.073Z" /></g><g id="Group 2" transform="matrix(1,0,0,1,420.549,405.395)"><path stroke-linejoin="miter" stroke-linecap="butt" stroke-width="3" stroke-opacity="1" stroke="#824a8e" fill="#ffffff" fill-opacity="1" d="M5.984,45.177L3.647,45.458C0.171,45.875,-2.994,43.193,-3.387,39.498L-11.59,-37.7C-11.983,-41.395,-9.46,-44.76,-5.984,-45.177L-3.647,-45.458C-0.171,-45.875,2.994,-43.193,3.387,-39.498L11.59,37.7C11.983,41.395,9.46,44.76,5.984,45.177Z" /></g><g id="Group 1" transform="matrix(1,0,0,1,327.693,413.947)"><path stroke-linejoin="miter" stroke-linecap="butt" stroke-width="5" stroke-opacity="1" stroke="#f7bcad" d="M0.72,-23.725C0.24,-7.908,-0.24,7.908,-0.72,23.725" /></g></g><g id="Group 1" transform="matrix(1,0,0,1,0,0)"><g id="Group 6" transform="matrix(1,0,0,1,363.1,529.247)"><path stroke-linejoin="miter" stroke-linecap="butt" stroke-width="3" stroke-opacity="1" stroke="#ddd9e9" fill="#ffffff" fill-opacity="1" d="M5.578,46.849L-5.578,46.849C-9.766,46.849,-13.192,43.422,-13.192,39.234L-13.192,-39.234C-13.192,-43.422,-9.766,-46.849,-5.578,-46.849L5.578,-46.849C9.766,-46.849,13.192,-43.422,13.192,-39.234L13.192,39.234C13.192,43.422,9.766,46.849,5.578,46.849Z" /></g><g id="Group 5" transform="matrix(1,0,0,1,328.999,529.691)"><path stroke-linejoin="miter" stroke-linecap="butt" stroke-width="3" stroke-opacity="1" stroke="#f7bdae" fill="#ffffff" fill-opacity="1" d="M5.63,47.293L-5.63,47.293C-9.858,47.293,-13.317,43.834,-13.317,39.606L-13.317,-39.606C-13.317,-43.834,-9.858,-47.293,-5.63,-47.293L5.63,-47.293C9.858,-47.293,13.317,-43.834,13.317,-39.606L13.317,39.606C13.317,43.834,9.858,47.293,5.63,47.293Z" /></g><g id="Group 4" transform="matrix(1,0,0,1,298.823,531.023)"><path stroke-linejoin="miter" stroke-linecap="butt" stroke-width="3" stroke-opacity="1" stroke="#d7b2d4" fill="#ffffff" fill-opacity="1" d="M5.472,45.961L-5.472,45.961C-9.581,45.961,-12.942,42.6,-12.942,38.491L-12.942,-38.491C-12.942,-42.6,-9.581,-45.961,-5.472,-45.961L5.472,-45.961C9.581,-45.961,12.942,-42.6,12.942,-38.491L12.942,38.491C12.942,42.6,9.581,45.961,5.472,45.961Z" /></g><g id="Group 3" transform="matrix(1,0,0,1,268.365,531.78)"><path stroke-linejoin="miter" stroke-linecap="butt" stroke-width="3" stroke-opacity="1" stroke="#824a8e" fill="#ffffff" fill-opacity="1" d="M5.366,45.073L-5.366,45.073C-9.395,45.073,-12.692,41.776,-12.692,37.747L-12.692,-37.747C-12.692,-41.776,-9.395,-45.073,-5.366,-45.073L5.366,-45.073C9.395,-45.073,12.692,-41.776,12.692,-37.747L12.692,37.747C12.692,41.776,9.395,45.073,5.366,45.073Z" /></g><g id="Group 2" transform="matrix(1,0,0,1,390.48,529.371)"><path stroke-linejoin="miter" stroke-linecap="butt" stroke-width="3" stroke-opacity="1" stroke="#824a8e" fill="#ffffff" fill-opacity="1" d="M5.984,45.177L3.647,45.458C0.171,45.875,-2.994,43.193,-3.387,39.498L-11.59,-37.7C-11.983,-41.395,-9.46,-44.76,-5.984,-45.177L-3.647,-45.458C-0.171,-45.875,2.994,-43.193,3.387,-39.498L11.59,37.7C11.983,41.395,9.46,44.76,5.984,45.177Z" /></g><g id="Group 1" transform="matrix(1,0,0,1,297.624,537.922)"><path stroke-linejoin="miter" stroke-linecap="butt" stroke-width="5" stroke-opacity="1" stroke="#f7bcad" d="M0.72,-23.725C0.24,-7.908,-0.24,7.908,-0.72,23.725" /></g></g></g><g id="Group 13" transform="matrix(1,0,0,1,429.352,277.656)"><path stroke-linejoin="miter" stroke-linecap="butt" stroke-width="3" stroke-opacity="1" stroke="#f7bdae" fill="#ffffff" fill-opacity="1" d="M4.675,41.077L-4.675,41.077C-8.185,41.077,-11.058,38.205,-11.058,34.695L-11.058,-34.695C-11.058,-38.205,-8.185,-41.077,-4.675,-41.077L4.675,-41.077C8.185,-41.077,11.058,-38.205,11.058,-34.695L11.058,34.695C11.058,38.205,8.185,41.077,4.675,41.077Z" /></g><g id="Group 12" transform="matrix(1,0,0,1,404.296,278.813)"><path stroke-linejoin="miter" stroke-linecap="butt" stroke-width="3" stroke-opacity="1" stroke="#d7b2d4" fill="#ffffff" fill-opacity="1" d="M4.543,39.92L-4.543,39.92C-7.955,39.92,-10.746,37.129,-10.746,33.717L-10.746,-33.717C-10.746,-37.129,-7.955,-39.92,-4.543,-39.92L4.543,-39.92C7.955,-39.92,10.746,-37.129,10.746,-33.717L10.746,33.717C10.746,37.129,7.955,39.92,4.543,39.92Z" /></g><g id="Group 11" transform="matrix(1,0,0,1,379.007,279.47)"><path stroke-linejoin="miter" stroke-linecap="butt" stroke-width="3" stroke-opacity="1" stroke="#824a8e" fill="#ffffff" fill-opacity="1" d="M4.456,39.149L-4.456,39.149C-7.802,39.149,-10.538,36.412,-10.538,33.066L-10.538,-33.066C-10.538,-36.412,-7.802,-39.149,-4.456,-39.149L4.456,-39.149C7.802,-39.149,10.538,-36.412,10.538,-33.066L10.538,33.066C10.538,36.412,7.802,39.149,4.456,39.149Z" /></g><g id="Group 10" transform="matrix(1,0,0,1,403.301,279.091)"><path stroke-linejoin="miter" stroke-linecap="butt" stroke-width="5" stroke-opacity="1" stroke="#f7bcad" d="M0.931,-20.591C0.31,-6.864,-0.31,6.864,-0.931,20.591" /></g><g id="Group 9" transform="matrix(1,0,0,1,504.625,276.499)"><path stroke-linejoin="miter" stroke-linecap="butt" stroke-width="3" stroke-opacity="1" stroke="#f7bdae" fill="#ffffff" fill-opacity="1" d="M4.675,41.077L-4.675,41.077C-8.185,41.077,-11.058,38.205,-11.058,34.695L-11.058,-34.695C-11.058,-38.205,-8.185,-41.077,-4.675,-41.077L4.675,-41.077C8.185,-41.077,11.058,-38.205,11.058,-34.695L11.058,34.695C11.058,38.205,8.185,41.077,4.675,41.077Z" /></g><g id="Group 8" transform="matrix(1,0,0,1,479.57,277.656)"><path stroke-linejoin="miter" stroke-linecap="butt" stroke-width="3" stroke-opacity="1" stroke="#d7b2d4" fill="#ffffff" fill-opacity="1" d="M4.543,39.92L-4.543,39.92C-7.955,39.92,-10.746,37.129,-10.746,33.717L-10.746,-33.717C-10.746,-37.129,-7.955,-39.92,-4.543,-39.92L4.543,-39.92C7.955,-39.92,10.746,-37.129,10.746,-33.717L10.746,33.717C10.746,37.129,7.955,39.92,4.543,39.92Z" /></g><g id="Group 7" transform="matrix(1,0,0,1,454.28,278.313)"><path stroke-linejoin="miter" stroke-linecap="butt" stroke-width="3" stroke-opacity="1" stroke="#824a8e" fill="#ffffff" fill-opacity="1" d="M4.456,39.149L-4.456,39.149C-7.802,39.149,-10.538,36.412,-10.538,33.066L-10.538,-33.066C-10.538,-36.412,-7.802,-39.149,-4.456,-39.149L4.456,-39.149C7.802,-39.149,10.538,-36.412,10.538,-33.066L10.538,33.066C10.538,36.412,7.802,39.149,4.456,39.149Z" /></g><g id="Group 6" transform="matrix(1,0,0,1,478.574,277.934)"><path stroke-linejoin="miter" stroke-linecap="butt" stroke-width="5" stroke-opacity="1" stroke="#f7bcad" d="M0.931,-20.591C0.31,-6.864,-0.31,6.864,-0.931,20.591" /></g><g id="Group 5" transform="matrix(1,0,0,1,607.945,276.113)"><path stroke-linejoin="miter" stroke-linecap="butt" stroke-width="3" stroke-opacity="1" stroke="#ddd9e9" fill="#ffffff" fill-opacity="1" d="M4.631,40.691L-4.631,40.691C-8.108,40.691,-10.954,37.846,-10.954,34.369L-10.954,-34.369C-10.954,-37.846,-8.108,-40.691,-4.631,-40.691L4.631,-40.691C8.108,-40.691,10.954,-37.846,10.954,-34.369L10.954,34.369C10.954,37.846,8.108,40.691,4.631,40.691Z" /></g><g id="Group 4" transform="matrix(1,0,0,1,579.63,276.499)"><path stroke-linejoin="miter" stroke-linecap="butt" stroke-width="3" stroke-opacity="1" stroke="#f7bdae" fill="#ffffff" fill-opacity="1" d="M4.675,41.077L-4.675,41.077C-8.185,41.077,-11.058,38.205,-11.058,34.695L-11.058,-34.695C-11.058,-38.205,-8.185,-41.077,-4.675,-41.077L4.675,-41.077C8.185,-41.077,11.058,-38.205,11.058,-34.695L11.058,34.695C11.058,38.205,8.185,41.077,4.675,41.077Z" /></g><g id="Group 3" transform="matrix(1,0,0,1,554.575,277.656)"><path stroke-linejoin="miter" stroke-linecap="butt" stroke-width="3" stroke-opacity="1" stroke="#d7b2d4" fill="#ffffff" fill-opacity="1" d="M4.543,39.92L-4.543,39.92C-7.955,39.92,-10.746,37.129,-10.746,33.717L-10.746,-33.717C-10.746,-37.129,-7.955,-39.92,-4.543,-39.92L4.543,-39.92C7.955,-39.92,10.746,-37.129,10.746,-33.717L10.746,33.717C10.746,37.129,7.955,39.92,4.543,39.92Z" /></g><g id="Group 2" transform="matrix(1,0,0,1,529.522,278.699)"><path stroke-linejoin="miter" stroke-linecap="butt" stroke-width="3" stroke-opacity="1" stroke="#824a8e" fill="#ffffff" fill-opacity="1" d="M4.456,39.149L-4.456,39.149C-7.802,39.149,-10.538,36.412,-10.538,33.066L-10.538,-33.066C-10.538,-36.412,-7.802,-39.149,-4.456,-39.149L4.456,-39.149C7.802,-39.149,10.538,-36.412,10.538,-33.066L10.538,33.066C10.538,36.412,7.802,39.149,4.456,39.149Z" /></g><g id="Group 1" transform="matrix(1,0,0,1,553.579,277.934)"><path stroke-linejoin="miter" stroke-linecap="butt" stroke-width="5" stroke-opacity="1" stroke="#f7bcad" d="M0.931,-20.591C0.31,-6.864,-0.31,6.864,-0.931,20.591" /></g></g><g id="plant 3"><g transform="translate(849.281,822.056)"><g transform="rotate(-3)"><animateTransform repeatCount="indefinite" type="rotate" attributeName="transform" dur="6.667s" begin="0s" calcMode="spline" values="-3; 0; -3" keyTimes="0; 0.5; 1" keySplines="0.14 0 0.85 1; 0.14 0 0.85 1" fill="freeze" /><g transform="scale(1.04,1.04)"><animateTransform repeatCount="indefinite" type="scale" attributeName="transform" dur="6.667s" begin="0s" calcMode="spline" values="1.04 1.04; 1 1; 1.04 1.04" keyTimes="0; 0.5; 1" keySplines="0.14 0 0.85 1; 0.14 0 0.85 1" fill="freeze" /><g transform="translate(-859.281,-802.056)"><g id="Group 6" transform="matrix(1,0,0,1,803.281,584.881)"><path stroke-linejoin="miter" stroke-linecap="butt" stroke-width="3" stroke-opacity="1" stroke="#822782" d="M59.308,160.928C64.664,140.101,71.408,136.007,72.361,119.468C73.579,98.319,62.979,97.588,60.076,70.331C58.732,57.713,60.204,43.236,63.147,14.283C65.012,-4.061,65.362,-8.354,63.147,-14.892C60.736,-22.009,56.265,-27.735,51.002,-32.327C35.72,-45.66,26.506,-64.628,25.099,-84.86C23.962,-101.206,22.825,-117.551,21.688,-133.897C20.31,-148.232,9.557,-159.336,-2.881,-160.769C-18.046,-162.517,-33.623,-149.646,-34.36,-131.594C-34.062,-124.156,-33.765,-116.717,-33.467,-109.279C-33.112,-100.395,-31.086,-91.682,-27.745,-83.442C-25.665,-78.311,-23.855,-71.743,-23.611,-64.03C-23.603,-63.783,-23.597,-63.537,-23.592,-63.293C-23.394,-52.555,-31.214,-43.528,-41.794,-41.683C-51.549,-39.981,-60.259,-34.917,-65.838,-27.177C-77.597,-10.862,-73.707,14.934,-54.024,29.165C-38.45,43.211,-23.058,57.094,-7.484,71.14C10.173,91.6,54.701,151.459,59.308,160.928" /></g><g id="Group 5" transform="matrix(1,0,0,1,833.906,626.036)"><path stroke-linejoin="miter" stroke-linecap="butt" stroke-width="3" stroke-opacity="1" stroke="#822782" d="M-27.364,-178.123C-28.149,-142.812,-27.112,-113.67,-25.829,-92.133C-25.12,-80.234,-24.063,-66.089,-21.222,-48.37C-15.626,-13.473,-8.523,1.517,-6.634,5.374C0.582,20.112,3.937,19.956,11.024,33.014C15.379,41.038,21.885,55.421,25.612,96.739C27.466,117.297,28.676,145.009,26.38,178.123" /></g><g id="Group 4" transform="matrix(1,0,0,1,836.485,588.032)"><path stroke-linejoin="miter" stroke-linecap="butt" stroke-width="3" stroke-opacity="1" stroke="#822782" d="M12.284,-33.398C12.291,-23.438,10.919,-6.827,2.303,11.133C-2.239,20.601,-7.608,27.974,-12.284,33.398" /></g><g id="Group 3" transform="matrix(1,0,0,1,794.258,576.515)"><path stroke-linejoin="miter" stroke-linecap="butt" stroke-width="3" stroke-opacity="1" stroke="#822782" d="M-22.265,-18.043C-17.761,-10.855,-9.612,-0.046,3.839,8.829C10.502,13.226,16.897,16.113,22.265,18.043" /></g><g id="Group 2" transform="matrix(1,0,0,1,806.926,623.883)"><path stroke-linejoin="miter" stroke-linecap="butt" stroke-width="3" stroke-opacity="1" stroke="#822782" d="M-29.559,-22.415C-26.787,-16.006,-20.435,-3.715,-7.294,6.76C8.792,19.583,22.589,21.729,29.559,22.415" /></g><g id="Group 1" transform="matrix(1,0,0,1,853.76,649.837)"><path stroke-linejoin="miter" stroke-linecap="butt" stroke-width="3" stroke-opacity="1" stroke="#822782" d="M2.687,-21.498C0.895,-7.166,-0.895,7.166,-2.687,21.498" /></g></g></g></g></g></g><g id="plant 4"><g transform="translate(895.605,823.236)"><g transform="rotate(3)"><animateTransform repeatCount="indefinite" type="rotate" attributeName="transform" dur="6.667s" begin="0s" calcMode="spline" values="3; 0; 3" keyTimes="0; 0.5; 1" keySplines="0.14 0 0.85 1; 0.14 0 0.85 1" fill="freeze" /><g transform="scale(1.04,1.04)"><animateTransform repeatCount="indefinite" type="scale" attributeName="transform" dur="6.667s" begin="0s" calcMode="spline" values="1.04 1.04; 1 1; 1.04 1.04" keyTimes="0; 0.5; 1" keySplines="0.14 0 0.85 1; 0.14 0 0.85 1" fill="freeze" /><g transform="translate(-917.605,-803.236)"><g id="Group 6" transform="matrix(1,0,0,1,944.605,582.236)"><path stroke-linejoin="miter" stroke-linecap="butt" stroke-width="3" stroke-opacity="1" stroke="#822782" d="M-26.277,223.188C-15.814,205.095,-5.35,187.003,5.113,168.91C8.678,162.746,10.368,155.677,9.977,148.567C9.045,131.596,8.112,114.625,7.18,97.654C6.896,92.487,8.643,87.414,12.048,83.518C20.588,73.745,29.129,63.972,37.669,54.199C45.797,44.898,51.124,33.429,52.662,21.173C53.008,18.418,53.201,15.501,53.187,12.435C53.099,-6.52,45.102,-20.03,41.67,-25.186C37.65,-30.389,27.644,-44.764,26.315,-65.879C25.707,-75.545,27.041,-85.294,30.163,-94.459C31.222,-97.568,32.461,-100.649,33.955,-103.577C35.954,-107.492,39.19,-110.655,41.74,-114.276C53.084,-130.385,59.344,-150.04,59.366,-169.745C59.37,-172.898,59.213,-176.051,58.893,-179.187C58.058,-187.363,56.117,-195.54,52.088,-202.702C40.621,-223.086,11.609,-228.274,-8.409,-218.194C-43.424,-200.562,-36.895,-156.019,-37.446,-124.321C-37.434,-122.156,-39.918,-104.027,-44.473,-98.67C-50.178,-91.96,-57.078,-81.179,-58.908,-66.646C-60.433,-54.536,-57.83,-44.643,-55.837,-39.006C-50.781,-26.754,-45.723,-14.502,-40.667,-2.25C-36.907,6.86,-34.905,16.61,-34.919,26.465C-34.926,31.631,-35.201,37.216,-35.875,43.145C-37.089,53.83,-39.317,63.17,-41.742,70.926C-43.63,76.962,-44.257,83.315,-43.65,89.61C-43.071,95.614,-42.081,102.184,-40.481,109.174C-38.542,117.644,-37.079,128.598,-34.571,134.939C-27.604,165.264,-28.708,192.605,-26.277,223.188Z" /></g><g id="Group 5" transform="matrix(1,0,0,1,940.21,595.822)"><path stroke-linejoin="miter" stroke-linecap="butt" stroke-width="3" stroke-opacity="1" stroke="#822782" d="M22.265,-207.682C22.318,-197.105,21.144,-180.862,14.587,-162.384C9.659,-148.495,3.15,-137.462,-2.705,-129.288C-6.914,-123.412,-9.214,-116.39,-9.214,-109.162L-9.214,-86.043C-9.214,-78.62,-8.216,-71.231,-6.245,-64.074C-2.495,-50.454,1.256,-36.834,5.007,-23.214C5.273,-22.248,5.496,-21.278,5.677,-20.293C7.456,-10.591,9.03,5.385,4.606,24.185C1.773,36.224,-2.707,45.973,-6.861,53.221C-9.423,57.692,-10.995,62.66,-11.394,67.798C-15.018,114.426,-18.642,161.054,-22.266,207.682" /></g><g id="Group 4" transform="matrix(1,0,0,1,959.931,413.261)"><path stroke-linejoin="miter" stroke-linecap="butt" stroke-width="2" stroke-opacity="1" stroke="#822782" d="M-16.123,-36.864C-14.843,-12.288,-13.564,12.288,-12.284,36.864C-2.815,29.715,6.654,22.565,16.123,15.416" /></g><g id="Group 3" transform="matrix(1,0,0,1,922.166,537.471)"><path stroke-linejoin="miter" stroke-linecap="butt" stroke-width="2" stroke-opacity="1" stroke="#822782" d="M-21.882,-30.327C-18.506,-20.692,-12.561,-7.279,-1.919,6.526C6.305,17.194,14.901,24.94,21.882,30.327" /></g><g id="Group 2" transform="matrix(1,0,0,1,959.403,579.699)"><path stroke-linejoin="miter" stroke-linecap="butt" stroke-width="2" stroke-opacity="1" stroke="#822782" d="M12.284,-23.417C10.684,-18.363,8.676,-12.947,6.142,-7.294C0.493,5.307,-6.167,15.507,-12.284,23.417" /></g><g id="Group 1" transform="matrix(1,0,0,1,932.531,624.613)"><path stroke-linejoin="miter" stroke-linecap="butt" stroke-width="2" stroke-opacity="1" stroke="#822782" d="M-5.374,-14.588C-1.791,-4.863,1.791,4.863,5.374,14.588" /></g></g></g></g></g></g><g transform="matrix(1.3,0,0,1.3,-162,-88)" id="neck"><g id="neck" transform="matrix(1,0,0,1,0,0)"><g id="Group 2" transform="matrix(1,0,0,1,557.918,466.92)"><path fill="#ffffff" fill-opacity="1" d="M7.713,49.206C6.17,50.224,-2.218,55.54,-12.959,53.1C-22.247,50.99,-29.089,44.035,-31.85,36.525C-33.753,31.349,-33.618,26.295,-32.753,21.58C-28.272,-2.842,0.611,-47.847,4.42,-53.734C14.067,-51.811,23.713,-49.888,33.36,-47.965C25.651,-6.527,20.017,23.516,18.719,31.57C18.512,32.855,17.977,36.3,15.862,40.18C13.385,44.724,9.978,47.593,7.713,49.206Z" /></g><g id="Group 1" transform="matrix(1,0,0,1,550.765,494.392)"><path fill="#ffffff" fill-opacity="1" d="M25.986,3.722C23.93,18.074,10.629,28.042,-3.723,25.986C-18.075,23.93,-28.042,10.629,-25.986,-3.723C-23.93,-18.074,-10.629,-28.042,3.723,-25.986C18.075,-23.93,28.042,-10.629,25.986,3.722Z" /></g></g><g id="Group 1" transform="matrix(1,0,0,1,546.513,441.822)"><path stroke-linejoin="miter" stroke-linecap="butt" stroke-width="3" stroke-opacity="1" stroke="#9e60a2" d="M13.061,-23.038C4.354,-7.68,-4.354,7.68,-13.061,23.038" /></g></g><g transform="matrix(1.3,0,0,1.3,-162,-88)" id="neck"><g id="head"><g transform="translate(575.51,429.263)"><g transform="rotate(2)"><animateTransform repeatCount="indefinite" type="rotate" attributeName="transform" dur="6.5s" begin="0s" calcMode="spline" values="2; 2; -6; -6; 2" keyTimes="0; 0.487; 0.603; 0.91; 1" keySplines="0.2 0 0.79 1; 0.2 0 0.79 1; 0.2 0 0.79 1; 0.2 0 0.79 1" fill="freeze" /><g transform="scale(1,1) translate(-575.51,-429.263)"><g id="head" transform="matrix(1,0,0,1,0,0)"><g id="Group 6" transform="matrix(1,0,0,1,597.898,408.456)"><path fill="#ffffff" fill-opacity="1" d="M38.673,-9.532C31.771,4.058,27.075,13.503,23.508,20.768C19.58,28.77,16.163,35.875,8.196,40.764C7.822,40.993,3.509,43.607,-0.442,44.397C-10.219,46.353,-22.608,38.112,-32.929,23.638C-37.712,16.93,-39.657,8.584,-38.199,0.475C-37.756,-1.987,-37.15,-4.587,-36.334,-7.288C-32.552,-19.801,-26.047,-28.499,-21.778,-33.345C-18.356,-37.162,-11.431,-43.559,-1.772,-44.55C14.264,-46.195,32.072,-32.346,38.673,-9.532Z" /></g><g id="Group 5" transform="matrix(1,0,0,1,558.044,397.503)"><path stroke-linejoin="miter" stroke-linecap="butt" stroke-width="3" stroke-opacity="1" stroke="#9e60a2" fill="#ffffff" fill-opacity="1" d="M0.948,11.957C-0.783,13.132,-4.444,11.595,-6.484,9.268C-10.01,5.246,-8.481,-0.903,-7.995,-2.855C-7.438,-5.096,-6.748,-7.867,-4.279,-9.899C-0.055,-13.375,7.18,-12.877,8.546,-10.227C9.579,-8.222,6.31,-6.81,4.387,0.543C3.697,3.183,2.806,5.774,2.263,8.447C1.856,10.452,1.762,11.405,0.948,11.957Z" /></g><g id="Group 4" transform="matrix(1,0,0,1,559.141,395.41)"><path stroke-linejoin="miter" stroke-linecap="butt" stroke-width="3" stroke-opacity="1" stroke="#9e60a2" d="M-2.196,-3.562C-0.732,-1.188,0.732,1.188,2.196,3.562" /></g><g id="Group 3" transform="matrix(1,0,0,1,607.947,415.463)"><path stroke-linejoin="miter" stroke-linecap="butt" stroke-width="3" stroke-opacity="1" stroke="#9e60a2" d="M7.959,-11.651C5.315,-5.725,4.508,-0.792,4.279,2.705C4.008,6.845,4.513,9.516,2.836,10.887C0.53,12.772,-4.214,10.818,-7.959,8.8" /></g><g id="Group 2" transform="matrix(1,0,0,1,607.973,374.026)"><path fill="#273339" fill-opacity="1" d="M-37.074,-15.357C-39.259,-13.834,-46.071,-8.669,-47.384,-0.057C-47.765,2.442,-48.558,7.639,-45.191,11.081C-42.322,14.014,-38.208,13.856,-37.464,13.812C-32.692,13.531,-28.363,9.876,-26.399,4.573C-25.706,-0.938,-21.098,-4.421,-17.077,-3.833C-14.315,-3.429,-11.931,-1.119,-10.866,1.927C-7.285,7.799,-3.483,12.195,-0.34,15.341C5.911,21.597,12.834,28.526,23.065,29.519C28.751,30.071,33.606,28.609,36.931,27.175C39.72,25.089,44.008,21.167,46.255,14.981C47.491,11.579,47.942,7.953,47.67,4.287C46.799,-7.473,37.817,-16.972,26.257,-19.301C22.33,-20.092,18.138,-21.186,13.767,-22.687C10.024,-23.973,6.613,-25.398,3.54,-26.858C3.115,-27.268,0.142,-30.043,-4.187,-29.588C-7.63,-29.226,-10.639,-26.956,-12.068,-23.682C-13.03,-24.203,-19.541,-27.591,-27.069,-24.748C-33.79,-22.209,-36.547,-16.507,-37.074,-15.357Z" /></g><g id="Group 1" transform="matrix(1,0,0,1,618.86,371.192)"><path stroke-linejoin="miter" stroke-linecap="butt" stroke-width="3" stroke-opacity="1" stroke="#824a8e" d="M-8.897,-11.031C-8.991,-9.338,-9.309,-0.899,-3.897,2.868C-1.583,4.479,2.364,5.642,3.484,4.325C4.295,3.371,3.8,0.911,2.284,0.158C1.01,-0.475,-0.639,0.271,-1.464,1.219C-3.205,3.22,-2.492,7.52,0.127,9.637C2.453,11.518,6.087,11.518,8.935,9.5" /></g></g><g id="Group 1" transform="matrix(1,0,0,1,577.377,431.024)"><path stroke-linejoin="miter" stroke-linecap="butt" stroke-width="3" stroke-opacity="1" stroke="#9e60a2" d="M-17.677,-22.092C-18.046,-17.935,-18.016,-11.308,-15.183,-3.995C-10.855,7.179,-2.702,12.942,1.483,15.815C7.826,20.169,14.152,21.469,17.842,22.092" /></g></g></g></g></g></g><g transform="matrix(1.3,0,0,1.3,-162,-88)" id="neck"><g id="head"><g transform="translate(575.51,429.263)"><g transform="rotate(2)"><animateTransform repeatCount="indefinite" type="rotate" attributeName="transform" dur="6.5s" begin="0s" calcMode="spline" values="2; 2; -6; -6; 2" keyTimes="0; 0.487; 0.603; 0.91; 1" keySplines="0.2 0 0.79 1; 0.2 0 0.79 1; 0.2 0 0.79 1; 0.2 0 0.79 1" fill="freeze" /><g transform="scale(1,1) translate(-575.51,-429.263)"><g id="eye 1"><g transform="translate(600.012,399.641)"><g transform="scale(1.35,1.35)"><animateTransform repeatCount="indefinite" type="scale" attributeName="transform" dur="5.583s" begin="0s" calcMode="spline" values="1.35 1.35; 1.35 1.35; 1.2 1.2; 1.2 1.2; 1.35 1.35" keyTimes="0; 0.567; 0.627; 0.955; 1" keySplines="0 0 1 1; 0.2 0 0.81 1; 0.2 0 0.81 1; 0.2 0 0.81 1" fill="freeze" /><g transform="translate(-600.012,-399.641)"><g id="Group 2" transform="matrix(1,0,0,1,600.012,399.641)"><path fill="#9e60a3" fill-opacity="1" d="M1.724,0.247C1.43,2.297,0.42,3.848,-0.532,3.712C-1.484,3.576,-2.018,1.803,-1.724,-0.247C-1.43,-2.297,-0.42,-3.848,0.532,-3.712C1.484,-3.576,2.018,-1.803,1.724,0.247Z" /></g></g></g></g></g></g></g></g></g></g><g transform="matrix(1.3,0,0,1.3,-162,-88)" id="neck"><g id="head"><g transform="translate(575.51,429.263)"><g transform="rotate(2)"><animateTransform repeatCount="indefinite" type="rotate" attributeName="transform" dur="6.5s" begin="0s" calcMode="spline" values="2; 2; -6; -6; 2" keyTimes="0; 0.487; 0.603; 0.91; 1" keySplines="0.2 0 0.79 1; 0.2 0 0.79 1; 0.2 0 0.79 1; 0.2 0 0.79 1" fill="freeze" /><g transform="scale(1,1) translate(-575.51,-429.263)"><g id="eye 2"><g transform="translate(622.677,410.389)"><g transform="scale(1.25,1.25)"><animateTransform repeatCount="indefinite" type="scale" attributeName="transform" dur="5.583s" begin="0s" calcMode="spline" values="1.25 1.25; 1.25 1.25; 1.15 1.15; 1.15 1.15; 1.25 1.25" keyTimes="0; 0.567; 0.627; 0.955; 1" keySplines="0 0 1 1; 0.2 0 0.81 1; 0.2 0 0.81 1; 0.2 0 0.81 1" fill="freeze" /><g transform="translate(-622.677,-410.389)"><g id="Group 1" transform="matrix(1,0,0,1,622.677,410.389)"><path fill="#9e60a3" fill-opacity="1" d="M1.662,0.518C1.046,2.495,-0.198,3.866,-1.116,3.58C-2.034,3.294,-2.278,1.459,-1.662,-0.518C-1.046,-2.495,0.198,-3.866,1.116,-3.58C2.034,-3.294,2.278,-1.459,1.662,0.518Z" /></g></g></g></g></g></g></g></g></g></g><g transform="matrix(1.3,0,0,1.3,-162,-88)" id="neck"><g id="head"><g transform="translate(575.51,429.263)"><g transform="rotate(2)"><animateTransform repeatCount="indefinite" type="rotate" attributeName="transform" dur="6.5s" begin="0s" calcMode="spline" values="2; 2; -6; -6; 2" keyTimes="0; 0.487; 0.603; 0.91; 1" keySplines="0.2 0 0.79 1; 0.2 0 0.79 1; 0.2 0 0.79 1; 0.2 0 0.79 1" fill="freeze" /><g transform="scale(1,1) translate(-575.51,-429.263)"><g transform="matrix(1,0,0,1,591.41,429.994)" id="mouth"><g id="mouth"><path stroke-linejoin="miter" stroke-linecap="butt" stroke-width="3" stroke-opacity="1" stroke="#9e60a2" d="M-4.979,-5.539C-4.707,-4.444,-4.817,-1.091,-1.738,1.654C1.503,4.512,4.068,5.189,4.979,5.539" /></g></g></g></g></g></g></g><g transform="matrix(1.3,0,0,1.3,-161.999,-87.999)" id="L_H_1"><g id="Group 2" transform="matrix(1,0,0,1,635.666,576.045)"><path fill="#d7b2d4" fill-opacity="1" d="M39.051,85.506C37.346,87.013,31.427,92.1,22.204,92.925C12.933,93.754,4.408,89.913,-0.939,84.468C-6.255,79.055,-7.818,72.679,-8.396,70.411C-20.457,23.067,-38.208,-22.802,-48.547,-70.552C-48.805,-71.742,-49.563,-75.218,-48.468,-79.29C-47.133,-84.251,-43.796,-87.3,-42.769,-88.215C-39.161,-91.429,-35.297,-92.465,-33.449,-92.833C-30.401,-93.224,-26.326,-93.214,-22.299,-91.326C-17.628,-89.137,-15.1,-85.375,-14.082,-83.835C6.619,-52.506,46.653,52.589,46.653,52.589C47.543,54.926,49.936,61.062,48.693,68.577C47.136,77.995,40.799,83.961,39.051,85.506Z" /></g><g id="Group 1" transform="matrix(1,0,0,1,605.421,501.771)"><path fill="#d7b2d4" fill-opacity="1" d="M18.561,2.659C17.092,12.91,7.592,20.03,-2.659,18.561C-12.91,17.092,-20.03,7.592,-18.561,-2.659C-17.092,-12.91,-7.592,-20.03,2.659,-18.561C12.91,-17.092,20.03,-7.592,18.561,2.659Z" /></g></g><g transform="matrix(1.3,0,0,1.3,-162.001,-88.001)" id="BODY"><g id="Body" transform="matrix(1,0,0,1,541.453,571.608)"><path fill="#d7b2d4" fill-opacity="1" d="M-80.131,93.379C-78.744,66.838,-76.096,38.069,-71.612,7.466C-65.882,-31.638,-58.117,-67.166,-49.637,-98.709C-47.084,-100.504,-44.91,-101.723,-43.555,-102.438C-26.6,-111.389,-11.429,-108.221,-8,-106.748C-6.901,-106.276,-5.88,-105.7,-5.88,-105.7C-3.794,-104.522,-2.067,-103.094,-0.577,-101.535C5.782,-94.919,7.946,-86.041,16.273,-84.667C21.618,-83.781,27.006,-86.399,31.964,-90.469C34.061,-92.198,36.082,-94.179,37.99,-96.273C38.489,-96.818,39.032,-97.304,39.611,-97.725C41.206,-98.884,43.946,-100.005,49.215,-99.281C65.022,-97.108,76.524,-84.018,76.524,-84.018C78.195,-82.116,79.407,-80.445,80.131,-79.397C75.778,-16.76,71.426,45.877,67.073,108.514C18.005,103.469,-31.063,98.424,-80.131,93.379Z" /></g></g><g transform="matrix(1,0,0,1,6.5,22.5)" id="table"><g id="Group 2" transform="matrix(0.951,0,0,1,543.024,884.395)"><path fill="#ffffff" fill-opacity="1" d="M507.114,-169.071C419.278,30.372,219.896,169.596,-12.013,169.596C-243.788,169.596,-443.085,30.53,-530.982,-168.729C-494.997,-168.888,-459,-168.998,-423.015,-169.071C-256.284,-169.45,-89.564,-169.193,77.155,-169.071C162.671,-169.01,248.174,-168.973,333.689,-169.071C391.563,-169.144,507.114,-169.071,507.114,-169.071Z" /></g><g id="Group 1" transform="matrix(0.953,0,0,1,530.351,715.324)"><path stroke-linejoin="miter" stroke-linecap="butt" stroke-width="5" stroke-opacity="1" stroke="#822782" d="M-516.515,0.065C-480.724,0.065,-445.355,0.088,-409.223,0.088C-244.679,0.088,-77.063,0.088,89.943,0.088C175.604,0.088,261.106,0.088,345.962,0.088C404.012,0.088,510.667,0.079,518.603,0.079" /></g></g><g transform="matrix(1,0,0,1,5.5,66.75)" id="book"><g id="Group 6" transform="matrix(1,0,0,1,573.309,809.54)"><path fill="#dbd1d2" fill-opacity="1" d="M83.132,9.064L23.566,31.813C18.787,33.631,12.722,33.616,7.981,31.767C-25.724,18.633,-59.416,5.497,-93.121,-7.645C-96.702,-9.039,-96.627,-12.259,-92.983,-13.592C-73.943,-20.556,-54.915,-27.52,-35.887,-34.477C-32.054,-35.879,-27.275,-35.87,-23.454,-34.453L83.095,5.097C85.529,5.998,85.553,8.147,83.132,9.064ZM-30.566,-40.362C-52.973,-31.919,-75.367,-23.476,-97.774,-15.025C-106.26,-11.828,-106.487,-4.34,-98.19,-0.951C-67.675,11.521,-37.148,23.993,-6.621,36.473C6.089,41.665,22.67,41.657,35.368,36.45L104.278,8.171C59.326,-8.006,14.386,-24.185,-30.566,-40.362Z" /></g><g id="Group 5" transform="matrix(1,0,0,1,567.895,808.362)"><path stroke-linejoin="miter" stroke-linecap="butt" stroke-width="1" stroke-opacity="1" stroke="#9e60a2" fill="#ffffff" fill-opacity="1" d="M88.546,10.243L28.98,32.991C24.201,34.809,18.136,34.794,13.395,32.945C-20.31,19.811,-54.002,6.676,-87.707,-6.466C-91.288,-7.86,-91.213,-11.08,-87.569,-12.413C-68.529,-19.377,-49.501,-26.341,-30.473,-33.298C-26.64,-34.7,-21.861,-34.692,-18.04,-33.275L88.509,6.275C90.943,7.176,90.967,9.326,88.546,10.243Z" /></g><g id="Group 4" transform="matrix(1,0,0,1,650.465,774.086)"><path fill="#dbd1d2" fill-opacity="1" d="M25.882,43.809L-107.717,-4.909C-76.143,-17.402,-44.568,-29.894,-12.994,-42.387C-7.983,-44.37,-1.494,-44.271,3.35,-42.138L102.788,1.649C109.897,5.19,109.205,11.951,101.43,14.924C76.247,24.552,51.064,34.181,25.882,43.809Z" /></g><g id="Group 3" transform="matrix(1,0,0,1,652.247,774.315)"><path stroke-linejoin="miter" stroke-linecap="butt" stroke-width="1" stroke-opacity="1" stroke="#9e60a2" fill="#ffffff" fill-opacity="1" d="M17.434,37.025C15.575,36.856,14.17,36.393,10.473,34.898C4.915,32.651,2.137,31.528,-0.421,30.184C-6.939,26.759,-20.013,21.732,-36.736,15.301C-69.202,2.816,-85.98,-0.501,-85.307,-7.163C-84.839,-11.79,-77.982,-13.255,-48.992,-24.08C-37.195,-28.485,-27.046,-32.362,-19.118,-35.422C-13.013,-37.779,-5.183,-37.627,0.669,-35.041C28.1,-22.75,55.531,-10.458,82.962,1.833C85.518,2.978,86.606,8.309,83.1,12.163C81.228,14.221,78.35,15.24,76.9,15.763C65.407,19.906,41.542,28.51,28.934,34.437C26.91,35.388,22.511,37.485,17.434,37.025Z" /></g><g id="Group 2" transform="matrix(1,0,0,1,664.437,814.358)"><path stroke-linejoin="miter" stroke-linecap="butt" stroke-width="3" stroke-opacity="1" stroke="#b5aec8" d="M-8.026,4.245C-9.592,1.379,-7.748,-1.761,-3.676,-3.305C0.096,-4.735,5.056,-4.521,8.581,-2.75" /></g><g id="Group 1" transform="matrix(1,0,0,1,648.649,762.438)"><path stroke-linejoin="miter" stroke-linecap="butt" stroke-width="3" stroke-opacity="1" stroke="#f7beae" d="M17.477,0C17.477,4.595,9.652,8.32,0,8.32C-9.652,8.32,-17.477,4.595,-17.477,0C-17.477,-4.595,-9.652,-8.32,0,-8.32C9.652,-8.32,17.477,-4.595,17.477,0Z" /></g><g id="Line 01" transform="matrix(1,0,0,1,692.632,788.602)"><path stroke-linejoin="miter" stroke-linecap="round" stroke-width="2" stroke-opacity="1" stroke="#822782" d="M-28.195,11.547L28.195,-11.547" /></g><g id="Line 01" transform="matrix(1,0,0,1,678.652,780.038)"><path stroke-linejoin="miter" stroke-linecap="round" stroke-width="2" stroke-opacity="1" stroke="#822782" d="M-28.195,11.547L28.195,-11.547" /></g><g id="Line 01" transform="matrix(1,0,0,1,610.756,825.22)"><path stroke-linejoin="miter" stroke-linecap="round" stroke-width="2" stroke-opacity="1" stroke="#822782" d="M-28.195,11.547L28.195,-11.547" /></g><g id="Line 02" transform="matrix(1,0,0,1,593.631,817.869)"><path stroke-linejoin="miter" stroke-linecap="round" stroke-width="2" stroke-opacity="1" stroke="#822782" d="M-28.195,11.547L28.195,-11.547" /></g></g><g opacity="1" id="Line 02"><animate repeatCount="indefinite" attributeName="opacity" dur="0.3333333333333333s" begin="3.5833333333333335s" calcMode="spline" values="1; 0" keyTimes="0; 1" keySplines="0 0 1 1" fill="freeze" /><g transform="translate(571.322,881.809) scale(1,1) translate(-565.822,-815.059)"><g id="Line 02" transform="matrix(1,0,0,1,566.403,814.836)"><path stroke-linejoin="miter" stroke-linecap="round" stroke-width="2" stroke-opacity="1" stroke="#822782" d="M-18.811,7.225L-18.939,7.275" /></g></g></g><g opacity="0" id="Line 02"><animate repeatCount="indefinite" attributeName="opacity" dur="1.9833333333333334s" begin="1.9333333333333333s" calcMode="spline" values="0; 1; 1; 0" keyTimes="0; 0.008; 0.832; 1" keySplines="0 0 1 1; 0 0 1 1; 0 0 1 1" fill="freeze" /><g transform="translate(534.991,881.178) scale(1,1) translate(-529.491,-814.428)"><g id="Line 02" transform="matrix(1,0,0,1,543.428,809.24)"><path stroke-linejoin="miter" stroke-linecap="round" stroke-width="2" stroke-opacity="1" stroke="#822782" d="M-13.956,5.183L-13.919,5.192" /></g></g></g><g id="R_H_1"><g transform="translate(494.425,544.613)"><g transform="rotate(-2.2)"><animateTransform repeatCount="indefinite" type="rotate" attributeName="transform" dur="6.5s" begin="0s" calcMode="spline" values="-2.2; -7.4; -7.4; 2.9; -0.5; -0.5; -14; -14; -2.2" keyTimes="0; 0.167; 0.205; 0.282; 0.449; 0.487; 0.603; 0.91; 1" keySplines="0.2 0 0.79 1; 0.2 0 0.79 1; 0.2 0 0.79 1; 0.2 0 0.79 1; 0.2 0 0.79 1; 0.2 0 0.79 1; 0.2 0 0.79 1; 0.2 0 0.79 1" fill="freeze" /><g transform="scale(1.3,1.3) translate(-504.943,-486.625)"><g id="Group 2" transform="matrix(1,0,0,1,451.558,547.223)"><path fill="#d7b2d4" fill-opacity="1" d="M-68.845,63.465C-67.798,65.486,-64.108,72.363,-55.803,76.457C-47.454,80.572,-38.118,80.062,-31.168,76.911C-24.258,73.778,-20.502,68.394,-19.145,66.486C9.17,26.672,42.261,-9.715,69.116,-50.528C69.786,-51.546,71.746,-54.515,72.192,-58.708C72.735,-63.817,70.721,-67.863,70.093,-69.087C67.886,-73.385,64.655,-75.745,63.064,-76.754C60.362,-78.217,56.558,-79.676,52.121,-79.367C46.975,-79.008,43.259,-76.412,41.755,-75.342C11.153,-53.58,-64.071,30.021,-64.071,30.021C-65.744,31.88,-70.186,36.74,-71.736,44.198C-73.678,53.544,-69.918,61.394,-68.845,63.465Z" /></g><g id="Group 1" transform="matrix(1,0,0,1,504.943,486.625)"><path fill="#d7b2d4" fill-opacity="1" d="M-18.561,-2.659C-20.03,7.592,-12.91,17.092,-2.659,18.561C7.592,20.03,17.092,12.91,18.561,2.659C20.03,-7.592,12.91,-17.092,2.659,-18.561C-7.592,-20.03,-17.092,-12.91,-18.561,-2.659Z" /></g></g></g></g></g><g transform="matrix(1.3,0,0,1.3,-162,-88.001)" id="sweater 2"><g id="sweater 2" transform="matrix(1,0,0,1,0,0)"><g id="Group 6" transform="matrix(1,0,0,1,556.907,492.138)"><path stroke-linejoin="miter" stroke-linecap="butt" stroke-width="3" stroke-opacity="1" stroke="#824a8e" d="M39.605,-16.222C36.394,0.719,24.834,14.282,10.385,17.747C-9.679,22.559,-33.929,7.564,-39.605,-18.64" /></g><g id="Group 5" transform="matrix(1,0,0,1,532.207,476.648)"><path stroke-linejoin="miter" stroke-linecap="butt" stroke-width="3" stroke-opacity="1" stroke="#824a8e" d="M4.831,-3.976C1.61,-1.325,-1.61,1.325,-4.831,3.976" /></g><g id="Group 4" transform="matrix(1,0,0,1,543.737,490.612)"><path stroke-linejoin="miter" stroke-linecap="butt" stroke-width="3" stroke-opacity="1" stroke="#824a8e" d="M3.696,-5.491C1.232,-1.83,-1.232,1.83,-3.696,5.491" /></g><g id="Group 3" transform="matrix(1,0,0,1,563.462,496.482)"><path stroke-linejoin="miter" stroke-linecap="butt" stroke-width="3" stroke-opacity="1" stroke="#824a8e" d="M-1.219,-6.128C-0.406,-2.043,0.406,2.043,1.219,6.128" /></g><g id="Group 2" transform="matrix(1,0,0,1,578.248,490.076)"><path stroke-linejoin="miter" stroke-linecap="butt" stroke-width="3" stroke-opacity="1" stroke="#824a8e" d="M-4.431,-4.017C-1.477,-1.339,1.477,1.339,4.431,4.017" /></g><g id="Group 1" transform="matrix(1,0,0,1,586.018,478.809)"><path stroke-linejoin="miter" stroke-linecap="butt" stroke-width="3" stroke-opacity="1" stroke="#824a8e" d="M-5.435,-3.146C-1.812,-1.048,1.812,1.048,5.435,3.146" /></g></g></g><g transform="matrix(1.3,0,0,1.3,-161.999,-87.999)" id="L_H_3"><g id="Group 2" transform="matrix(1,0,0,1,562.944,660.107)"><path stroke-linejoin="miter" stroke-linecap="butt" stroke-width="2" stroke-opacity="1" stroke="#9e60a2" d="M12.195,0C12.195,6.735,6.735,12.195,0,12.195C-6.735,12.195,-12.195,6.735,-12.195,0C-12.195,-6.735,-6.735,-12.195,0,-12.195C6.735,-12.195,12.195,-6.735,12.195,0Z" /></g><g id="Group 1" transform="matrix(1,0,0,1,0,0)"><g id="Group 2" transform="matrix(1,0,0,1,507.611,652.247)"><path stroke-linejoin="miter" stroke-linecap="butt" stroke-width="2" stroke-opacity="1" stroke="#9e60a2" fill="#ffffff" fill-opacity="1" d="M54.955,-4.432C44.759,-6.242,36.894,-8.737,31.454,-10.759C26.37,-12.649,20.683,-14.937,10.819,-18.275C8.494,-19.062,5.834,-19.867,2.523,-20.724C-4.641,-22.579,-10.826,-23.632,-15.478,-24.26C-21.697,-25.1,-26.198,-25.708,-31.55,-25.546C-45.308,-25.131,-60.826,-19.748,-60.802,-14.938C-60.793,-13.046,-58.46,-11.333,-56.623,-10.759C-53.11,-9.662,-51.143,-12.649,-44.291,-14.76C-43.294,-15.067,-38.667,-16.442,-32.836,-16.223C-29.104,-16.083,-22.321,-15.194,-22.228,-13.652C-22.136,-12.127,-28.638,-10.799,-48.686,-5.091C-59.366,-2.05,-67.327,0.363,-67.583,4.137C-67.644,5.038,-67.275,6.152,-66.588,6.921C-64.891,8.821,-61.505,8.277,-58.552,7.885C-54.137,7.299,-50.954,5.706,-50.837,5.957C-50.63,6.403,-61.232,10.273,-60.802,13.35C-60.556,15.108,-56.558,16.091,-53.73,16.243C-48.352,16.532,-44.169,13.971,-42.753,13.147C-30.349,5.929,-15.223,6.944,-15.156,7.243C-15.091,7.535,-28.077,11.854,-42.801,18.493C-43.213,18.679,-48.959,21.314,-48.587,23.315C-48.4,24.324,-46.671,25.088,-43.959,25.426C-41.153,25.776,-38.304,25.477,-35.579,24.722C-27.7,22.539,-19.821,20.356,-11.942,18.172C-3.231,20.604,4.242,21.806,9.763,22.448C20.344,23.679,37.155,24.411,56.566,20.031C58.011,19.705,59.187,19.415,59.935,19.226C65.152,16.961,68.221,11.561,67.48,6.188C66.658,0.222,61.316,-4.433,54.955,-4.432Z" /></g><g id="Group 1" transform="matrix(1,0,0,1,473.329,653.381)"><path stroke-linejoin="miter" stroke-linecap="butt" stroke-width="2" stroke-opacity="1" stroke="#9e60a2" fill="#ffffff" fill-opacity="1" d="M-16.555,4.822L16.555,-4.822" /></g></g></g><g transform="matrix(1.3,0,0,1.3,-161.999,-88)" id="L_H_2"><g id="Group 3" transform="matrix(1,0,0,1,655.461,639.708)"><path fill="#d7b2d4" fill-opacity="1" d="M29.028,4.158C26.731,20.19,11.874,31.325,-4.158,29.028C-20.19,26.731,-31.325,11.874,-29.028,-4.158C-26.731,-20.19,-11.874,-31.325,4.158,-29.028C20.19,-26.731,31.325,-11.874,29.028,4.158Z" /></g><g id="Group 2" transform="matrix(1,0,0,1,606.622,646.304)"><path fill="#d7b2d4" fill-opacity="1" d="M77.736,-1.682C77.496,-0.309,76.193,6.522,70.621,12.723C66.667,17.123,62.005,19.602,57.864,21.178C34.874,29.927,-12.883,26.361,-53.555,32.713C-61.023,33.879,-66.921,35.172,-69.981,35.877L-78.146,-11.024C-14.081,-23.795,32.592,-33.001,43.213,-35.221C44.49,-35.488,48.235,-36.279,52.997,-35.624C62.559,-34.309,68.78,-28.188,69.677,-27.281C70.169,-26.784,80.279,-16.21,77.736,-1.682Z" /></g><g id="Group 1" transform="matrix(1,0,0,1,553.02,654.626)"><path stroke-linejoin="miter" stroke-linecap="butt" stroke-width="3" stroke-opacity="1" stroke="#824a8e" d="M22.364,-26.807C7.455,-23.877,-7.455,-20.948,-22.364,-18.018C-19.76,-3.076,-17.155,11.865,-14.551,26.807" /></g></g><g id="R_H_1"><g transform="translate(494.425,544.613)"><g transform="rotate(-2.2)"><animateTransform repeatCount="indefinite" type="rotate" attributeName="transform" dur="6.5s" begin="0s" calcMode="spline" values="-2.2; -7.4; -7.4; 2.9; -0.5; -0.5; -14; -14; -2.2" keyTimes="0; 0.167; 0.205; 0.282; 0.449; 0.487; 0.603; 0.91; 1" keySplines="0.2 0 0.79 1; 0.2 0 0.79 1; 0.2 0 0.79 1; 0.2 0 0.79 1; 0.2 0 0.79 1; 0.2 0 0.79 1; 0.2 0 0.79 1; 0.2 0 0.79 1" fill="freeze" /><g transform="scale(1.3,1.3) translate(-504.943,-486.625)"><g id="R_H_2"><g transform="translate(408.548,597.254)"><g transform="rotate(7.3)"><animateTransform repeatCount="indefinite" type="rotate" attributeName="transform" dur="6.5s" begin="0s" calcMode="spline" values="7.3; 5.5; 5.5; 3.5; 1.3; 1.3; -62.2; -62.2; 7.3" keyTimes="0; 0.167; 0.205; 0.282; 0.449; 0.487; 0.603; 0.91; 1" keySplines="0.2 0 0.79 1; 0.2 0 0.79 1; 0.2 0 0.79 1; 0.2 0 0.79 1; 0.2 0 0.79 1; 0.2 0 0.79 1; 0.2 0 0.79 1; 0.2 0 0.79 1" fill="freeze" /><g transform="scale(1,1) translate(-408.548,-597.254)"><g id="R_H_3"><g transform="translate(476.846,669.153)"><g transform="rotate(0)"><animateTransform repeatCount="indefinite" type="rotate" attributeName="transform" dur="6.5s" begin="0s" calcMode="spline" values="0; 1; 0; 1; 0; 1; 0; 0; 0; 1; 0; 1; 0; 1; 0; 0; 0" keyTimes="0; 0.026; 0.051; 0.077; 0.103; 0.128; 0.167; 0.205; 0.282; 0.308; 0.333; 0.359; 0.385; 0.41; 0.449; 0.91; 1" keySplines="0.2 0 0.79 1; 0.2 0 0.79 1; 0.2 0 0.79 1; 0.2 0 0.79 1; 0.2 0 0.79 1; 0.2 0 0.79 1; 0.2 0 0.79 1; 0.2 0 0.79 1; 0.2 0 0.79 1; 0.2 0 0.79 1; 0.2 0 0.79 1; 0.2 0 0.79 1; 0.2 0 0.79 1; 0.2 0 0.79 1; 0.2 0 0.79 1; 0.2 0 0.79 1" fill="freeze" /><g transform="scale(1,1) translate(-476.846,-669.153)"><g id="pencil"><g transform="translate(553.194,713.53)"><g transform="rotate(-1)"><animateTransform repeatCount="indefinite" type="rotate" attributeName="transform" dur="6.5s" begin="0s" calcMode="spline" values="-1; 5; -1; 5; -1; 5; -1; -1; -1; 5; -1; 5; -1; 5; -1; -1; -1" keyTimes="0; 0.026; 0.051; 0.077; 0.103; 0.128; 0.167; 0.205; 0.282; 0.308; 0.333; 0.359; 0.385; 0.413; 0.449; 0.91; 1" keySplines="0.2 0 0.79 1; 0.2 0 0.79 1; 0.2 0 0.79 1; 0.2 0 0.79 1; 0.2 0 0.79 1; 0.2 0 0.79 1; 0.2 0 0.79 1; 0.2 0 0.79 1; 0.2 0 0.79 1; 0.2 0 0.79 1; 0.2 0 0.79 1; 0.2 0 0.79 1; 0.2 0 0.79 1; 0.2 0 0.79 1; 0.2 0 0.79 1; 0.2 0 0.79 1" fill="freeze" /><g transform="scale(1,1) translate(-553.194,-713.53)"><g id="Group 2" transform="matrix(1,0,0,1,543.07,693.848)"><path stroke-linejoin="miter" stroke-linecap="butt" stroke-width="2" stroke-opacity="1" stroke="#465b68" fill="#ffffff" fill-opacity="1" d="M13.6,28.456C13.331,29.75,12.673,30.739,11.684,31.105C10.744,31.459,9.682,31.203,8.681,30.507C7.546,29.713,6.496,28.334,5.849,26.613C3.469,20.265,1.087,13.917,-1.293,7.581C-5.236,-2.905,-9.166,-13.403,-13.109,-23.889C-13.255,-24.28,-14.013,-26.367,-13.598,-28.43C-13.342,-29.736,-12.682,-30.726,-11.681,-31.104C-9.679,-31.861,-7.067,-29.847,-5.858,-26.612L13.1,23.89C13.71,25.514,13.856,27.15,13.6,28.456Z" /></g><g id="Group 1" transform="matrix(1,0,0,1,554.696,728.158)"><path fill="#824a8e" fill-opacity="1" d="M3.594,6.647C-2.482,-1.793,-3.726,-3.828,-3.584,-3.937C-3.482,-4.015,-2.76,-3.006,-1.376,-2.805C-1.176,-2.776,-0.513,-2.68,0.103,-2.899C1.29,-3.32,2.082,-4.83,2.129,-6.647C2.617,-2.216,3.106,2.216,3.594,6.647Z" /></g></g></g></g></g></g></g></g></g></g></g></g></g></g></g></g></g><g id="R_H_1"><g transform="translate(494.425,544.613)"><g transform="rotate(-2.2)"><animateTransform repeatCount="indefinite" type="rotate" attributeName="transform" dur="6.5s" begin="0s" calcMode="spline" values="-2.2; -7.4; -7.4; 2.9; -0.5; -0.5; -14; -14; -2.2" keyTimes="0; 0.167; 0.205; 0.282; 0.449; 0.487; 0.603; 0.91; 1" keySplines="0.2 0 0.79 1; 0.2 0 0.79 1; 0.2 0 0.79 1; 0.2 0 0.79 1; 0.2 0 0.79 1; 0.2 0 0.79 1; 0.2 0 0.79 1; 0.2 0 0.79 1" fill="freeze" /><g transform="scale(1.3,1.3) translate(-504.943,-486.625)"><g id="R_H_2"><g transform="translate(408.548,597.254)"><g transform="rotate(7.3)"><animateTransform repeatCount="indefinite" type="rotate" attributeName="transform" dur="6.5s" begin="0s" calcMode="spline" values="7.3; 5.5; 5.5; 3.5; 1.3; 1.3; -62.2; -62.2; 7.3" keyTimes="0; 0.167; 0.205; 0.282; 0.449; 0.487; 0.603; 0.91; 1" keySplines="0.2 0 0.79 1; 0.2 0 0.79 1; 0.2 0 0.79 1; 0.2 0 0.79 1; 0.2 0 0.79 1; 0.2 0 0.79 1; 0.2 0 0.79 1; 0.2 0 0.79 1" fill="freeze" /><g transform="scale(1,1) translate(-408.548,-597.254)"><g id="R_H_3"><g transform="translate(476.846,669.153)"><g transform="rotate(0)"><animateTransform repeatCount="indefinite" type="rotate" attributeName="transform" dur="6.5s" begin="0s" calcMode="spline" values="0; 1; 0; 1; 0; 1; 0; 0; 0; 1; 0; 1; 0; 1; 0; 0; 0" keyTimes="0; 0.026; 0.051; 0.077; 0.103; 0.128; 0.167; 0.205; 0.282; 0.308; 0.333; 0.359; 0.385; 0.41; 0.449; 0.91; 1" keySplines="0.2 0 0.79 1; 0.2 0 0.79 1; 0.2 0 0.79 1; 0.2 0 0.79 1; 0.2 0 0.79 1; 0.2 0 0.79 1; 0.2 0 0.79 1; 0.2 0 0.79 1; 0.2 0 0.79 1; 0.2 0 0.79 1; 0.2 0 0.79 1; 0.2 0 0.79 1; 0.2 0 0.79 1; 0.2 0 0.79 1; 0.2 0 0.79 1; 0.2 0 0.79 1" fill="freeze" /><g transform="scale(1,1) translate(-476.846,-669.153)"><g id="Group 5" transform="matrix(1,0,0,1,512.397,685.791)"><path stroke-linejoin="miter" stroke-linecap="butt" stroke-width="2" stroke-opacity="1" stroke="#9e60a2" fill="#ffffff" fill-opacity="1" d="M12.531,-20.475C7.985,-20.622,2.294,-20.36,-4.085,-18.992C-7.645,-18.228,-10.82,-17.248,-13.579,-16.222C-14.822,-19.029,-17.729,-24.51,-23.766,-28.783C-27.033,-31.096,-30.209,-32.341,-32.569,-33.036C-33.272,-33.123,-41.577,-34.002,-47.008,-27.695C-47.508,-27.114,-51.176,-22.72,-50.767,-16.519C-50.51,-12.619,-48.758,-9.802,-47.997,-8.607C-46.481,-6.229,-44.798,-4.815,-44.14,-4.255C-31.707,6.315,-26.94,16.371,-15.36,18.096C-13.036,18.442,-9.392,18.609,-4.678,17.206C-0.03,19.975,4.619,22.745,9.267,25.514C11.051,26.962,13.525,27.043,15.201,25.811C17.199,24.343,17.715,21.267,16.091,18.987C19.336,24.673,23.017,28.035,25.586,29.965C27.499,31.402,30.833,33.908,32.334,32.887C33.986,31.763,32.516,26.975,32.004,25.306C30.662,20.933,28.367,17.838,26.773,16.019C27.388,16.856,28.413,18.264,29.66,20.032C33.238,25.104,34.126,26.742,36.399,28.492C37.637,29.446,40.363,31.543,41.562,30.799C42.687,30.101,42.771,26.634,37.454,13.646C37.723,14.552,38.201,15.95,39.035,17.542C40.328,20.009,42.405,23.974,46.058,24.624C47.466,24.875,49.661,24.729,50.509,23.437C51.077,22.571,50.872,21.412,49.322,17.602C48.575,15.766,47.504,13.285,46.058,10.382C43.978,6.046,40.798,0.554,35.97,-5.047C29.437,-12.627,22.51,-17.363,17.575,-20.179C17.043,-20.411,14.999,-21.226,12.531,-20.475C9.915,-19.68,8.657,-17.682,8.377,-17.211C5.862,-18.772,2.665,-18.648,0.366,-16.915C-1.71,-15.35,-2.74,-12.71,-2.305,-10.09C-2.497,-10.115,-5.648,-10.468,-7.645,-8.014C-9.287,-5.996,-8.896,-3.619,-8.832,-3.266C-13.314,-1.893,-14.511,0.596,-14.766,1.184C-16.669,5.578,-13.134,12.905,-4.678,17.206" /></g><g id="Group 4" transform="matrix(1,0,0,1,519.39,697.113)"><path stroke-linejoin="miter" stroke-linecap="butt" stroke-width="2" stroke-opacity="1" stroke="#9e60a2" fill="#ffffff" fill-opacity="1" d="M9.099,7.665L-9.099,-7.665" /></g><g id="Group 3" transform="matrix(1,0,0,1,528.884,691.13)"><path stroke-linejoin="miter" stroke-linecap="butt" stroke-width="2" stroke-opacity="1" stroke="#9e60a2" fill="#ffffff" fill-opacity="1" d="M10.286,10.681L-10.286,-10.681" /></g><g id="Group 2" transform="matrix(1,0,0,1,538.033,685.641)"><path stroke-linejoin="miter" stroke-linecap="butt" stroke-width="2" stroke-opacity="1" stroke="#9e60a2" fill="#ffffff" fill-opacity="1" d="M11.819,13.797C9.438,9.674,6.337,4.991,2.324,0.148C-2.578,-5.768,-7.534,-10.346,-11.819,-13.797" /></g><g id="Group 1" transform="matrix(1,0,0,1,477.571,668.58)"><path stroke-linejoin="miter" stroke-linecap="butt" stroke-width="2" stroke-opacity="1" stroke="#9e60a2" fill="#ffffff" fill-opacity="1" d="M15.824,0C15.824,8.74,8.74,15.824,0,15.824C-8.74,15.824,-15.824,8.74,-15.824,0C-15.824,-8.74,-8.74,-15.824,0,-15.824C8.74,-15.824,15.824,-8.74,15.824,0Z" /></g></g></g></g></g></g></g></g></g></g></g></g></g><g id="R_H_1"><g transform="translate(494.425,544.613)"><g transform="rotate(-2.2)"><animateTransform repeatCount="indefinite" type="rotate" attributeName="transform" dur="6.5s" begin="0s" calcMode="spline" values="-2.2; -7.4; -7.4; 2.9; -0.5; -0.5; -14; -14; -2.2" keyTimes="0; 0.167; 0.205; 0.282; 0.449; 0.487; 0.603; 0.91; 1" keySplines="0.2 0 0.79 1; 0.2 0 0.79 1; 0.2 0 0.79 1; 0.2 0 0.79 1; 0.2 0 0.79 1; 0.2 0 0.79 1; 0.2 0 0.79 1; 0.2 0 0.79 1" fill="freeze" /><g transform="scale(1.3,1.3) translate(-504.943,-486.625)"><g id="R_H_2"><g transform="translate(408.548,597.254)"><g transform="rotate(7.3)"><animateTransform repeatCount="indefinite" type="rotate" attributeName="transform" dur="6.5s" begin="0s" calcMode="spline" values="7.3; 5.5; 5.5; 3.5; 1.3; 1.3; -62.2; -62.2; 7.3" keyTimes="0; 0.167; 0.205; 0.282; 0.449; 0.487; 0.603; 0.91; 1" keySplines="0.2 0 0.79 1; 0.2 0 0.79 1; 0.2 0 0.79 1; 0.2 0 0.79 1; 0.2 0 0.79 1; 0.2 0 0.79 1; 0.2 0 0.79 1; 0.2 0 0.79 1" fill="freeze" /><g transform="scale(1,1) translate(-408.548,-597.254)"><g id="Group 3" transform="matrix(1,0,0,1,408.548,597.254)"><path fill="#d7b2d4" fill-opacity="1" d="M-28.575,-6.584C-32.211,9.198,-22.366,24.939,-6.584,28.575C9.198,32.211,24.939,22.366,28.575,6.584C32.211,-9.198,22.366,-24.939,6.584,-28.575C-9.198,-32.211,-24.939,-22.366,-28.575,-6.584Z" /></g><g id="Group 2" transform="matrix(1,0,0,1,441.836,633.274)"><path fill="#d7b2d4" fill-opacity="1" d="M-58.967,-50.155C-59.633,-48.931,-62.864,-42.774,-62.361,-34.452C-62.361,-34.452,-62.251,-32.639,-61.606,-29.913C-61.606,-29.913,-60.428,-24.861,-57.636,-19.895C-54.718,-14.706,-18.338,20.015,33.459,65.345C43.111,54.641,52.762,43.937,62.414,33.233C20.793,-16.653,-8.774,-52.111,-11.072,-54.928C-11.232,-55.124,-11.787,-55.804,-12.596,-56.649C-13.877,-57.986,-15.83,-59.761,-18.48,-61.331C-26.784,-66.252,-35.463,-65.332,-36.729,-65.18C-37.423,-65.097,-51.917,-63.11,-58.967,-50.155Z" /></g><g id="Group 1" transform="matrix(1,0,0,1,489.371,669.153)"><path stroke-linejoin="miter" stroke-linecap="butt" stroke-width="3" stroke-opacity="1" stroke="#824a8e" d="M-5.493,-24.83C0.513,-17.652,6.519,-10.474,12.525,-3.296C4.175,6.079,-4.175,15.455,-12.525,24.83" /></g></g></g></g></g></g></g></g></g><g opacity="0" id="details"><animate repeatCount="indefinite" attributeName="opacity" dur="2s" begin="3.9166666666666665s" calcMode="spline" values="0; 0.85; 0.3; 0.6; 0" keyTimes="0; 0.25; 0.5; 0.75; 1" keySplines="0.2 0 0.79 1; 0.2 0 0.79 1; 0.2 0 0.79 1; 0.2 0 0.79 1" fill="freeze" /><g transform="translate(735.99,371.711)"><g transform="scale(0.455,0.455)"><animateTransform repeatCount="indefinite" type="scale" attributeName="transform" dur="2s" begin="3.917s" calcMode="spline" values="0.455 0.455; 0.481 0.481; 0.455 0.455; 0.481 0.481; 0.455 0.455" keyTimes="0; 0.25; 0.5; 0.75; 1" keySplines="0.2 0 0.79 1; 0.2 0 0.79 1; 0.2 0 0.79 1; 0.2 0 0.79 1" fill="freeze" /><g transform="translate(-586.261,-321.124)"><g id="Group 6" transform="matrix(1,0,0,1,596.338,285.846)"><path stroke-linejoin="miter" stroke-linecap="round" stroke-width="10" stroke-opacity="1" stroke="#6e216e" d="M-28.236,-34.899C-28.236,-34.899,-13.938,-55.07,9.807,-48.176C33.552,-41.282,33.551,-17.027,14.402,-2.984C-4.747,11.059,-28.236,10.292,-21.342,49.611" /></g><g id="Group 5" transform="matrix(1,0,0,1,575.122,357.762)"><path stroke-linejoin="miter" stroke-linecap="round" stroke-width="1" stroke-opacity="1" stroke="#6e216e" fill="#521952" fill-opacity="1" d="M7.02,0C7.02,3.55,3.877,6.428,0,6.428C-3.877,6.428,-7.02,3.55,-7.02,0C-7.02,-3.55,-3.877,-6.428,0,-6.428C3.877,-6.428,7.02,-3.55,7.02,0Z" /></g><g id="Group 4" transform="matrix(1,0,0,1,629.897,363.838)"><path stroke-linejoin="miter" stroke-linecap="round" stroke-width="6" stroke-opacity="1" stroke="#6e216e" d="M-8.871,-21.545C-8.871,-21.545,2.542,-29.781,14.066,-21.699C25.59,-13.617,21.128,-0.549,8.228,3.493C-4.672,7.535,-17.185,2.801,-20.705,25.252" /></g><g id="Group 3" transform="matrix(1,0,0,1,603.602,401.382)"><path stroke-linejoin="miter" stroke-linecap="round" stroke-width="1" stroke-opacity="1" stroke="#6e216e" fill="#521952" fill-opacity="1" d="M5.057,0C5.057,2.558,2.793,4.631,0,4.631C-2.793,4.631,-5.057,2.558,-5.057,0C-5.057,-2.558,-2.793,-4.631,0,-4.631C2.793,-4.631,5.057,-2.558,5.057,0Z" /></g><g id="Group 2" transform="matrix(1,0,0,1,531.614,359.295)"><path stroke-linejoin="miter" stroke-linecap="round" stroke-width="5" stroke-opacity="1" stroke="#6e216e" d="M-9.693,-6.253C-9.693,-6.253,-9.115,-14.802,-0.849,-17.06C7.417,-19.318,11.805,-12.147,8.685,-4.532C5.565,3.083,-1.518,7.106,7.633,17.482" /></g><g id="Group 1" transform="matrix(1,0,0,1,544.67,384.284)"><path stroke-linejoin="miter" stroke-linecap="round" stroke-width="1" stroke-opacity="1" stroke="#6e216e" fill="#521952" fill-opacity="1" d="M2.074,-1.269C2.716,-0.22,2.307,1.198,1.162,1.899C0.017,2.6,-1.432,2.318,-2.074,1.269C-2.716,0.22,-2.307,-1.198,-1.162,-1.899C-0.017,-2.6,1.432,-2.318,2.074,-1.269Z" /></g></g></g></g></g><g transform="matrix(1,0,0,1,-36.5,58)" id="Amplifier"><g id="Group 5" transform="matrix(1,0,0,1,464.428,836.705)"><path fill="#485b61" fill-opacity="1" d="M19.579,10.28L17.137,11.225C14.239,12.346,9.81,12.036,7.245,10.534L-20.181,-5.53C-22.746,-7.032,-22.477,-9.159,-19.579,-10.28L-17.137,-11.225C-14.239,-12.346,-9.81,-12.036,-7.245,-10.534L20.181,5.53C22.746,7.032,22.477,9.159,19.579,10.28Z" /></g><g id="Group 4" transform="matrix(1,0,0,1,482.763,846.759)"><path fill="#824a8e" fill-opacity="1" d="M0.926,3.65C2.068,3.182,3.212,2.713,4.354,2.245C7.437,0.981,7.723,-1.938,4.906,-3.385C4.851,-3.413,4.795,-3.442,4.74,-3.47C3.049,-4.339,0.706,-4.393,-1.118,-3.605C-2.232,-3.124,-3.345,-2.642,-4.459,-2.161C-7.351,-0.911,-7.685,1.828,-5.126,3.305C-5.099,3.32,-5.073,3.336,-5.046,3.351C-3.387,4.308,-0.976,4.429,0.926,3.65Z" /></g><g id="Group 3" transform="matrix(1,0,0,1,510.085,865.936)"><path fill="#485b61" fill-opacity="1" d="M37.428,-5.831C38.811,2.737,23.182,11.131,2.515,12.93C-18.152,14.729,-36.018,9.251,-37.401,0.683C-37.683,-1.062,-37.458,-6.527,-36.421,-8.203C-33.621,-1.091,-16.791,6.957,2.366,5.289C19.708,3.779,33.613,-6.685,36.404,-13.272C37.016,-12.36,37.265,-6.84,37.428,-5.831Z" /></g><g id="Group 2" transform="matrix(1,0,0,1,509.683,857.054)" opacity="0.17"><path fill="#f1ece1" fill-opacity="1" d="M32.171,-2.801C33.323,4.339,19.851,11.374,2.085,12.92C-15.681,14.466,-31.019,9.94,-32.171,2.8C-33.323,-4.34,-19.851,-11.374,-2.085,-12.92C15.681,-14.466,31.019,-9.941,32.171,-2.801Z" /></g><g id="Group 1" transform="matrix(1,0,0,1,510.163,857.046)"><path fill="#824a8e" fill-opacity="1" d="M1.605,12.928C-16.161,14.474,-31.5,9.948,-32.652,2.808C-33.804,-4.332,-20.331,-11.367,-2.565,-12.913C15.201,-14.459,30.539,-9.933,31.691,-2.793C32.843,4.347,19.371,11.382,1.605,12.928ZM-2.288,-14.179C-22.531,-12.417,-37.915,-4.642,-36.651,3.19C-36.583,3.609,-36.465,4.025,-36.297,4.424C-33.497,11.536,-16.869,15.846,2.288,14.178C19.63,12.668,33.386,6.748,36.177,0.161C36.671,-0.939,36.832,-2.069,36.651,-3.191C35.387,-11.023,17.955,-15.941,-2.288,-14.179Z" /></g></g><g transform="matrix(1,0,0,1,-8,23)" id="clope hand"><g id="Group 5" transform="matrix(1,0,0,1,368.625,852.893)"><path fill="#822782" fill-opacity="1" d="M41.715,-8.393L-16.97,12.543L-41.715,0.587L-31.735,-2.603L-16.945,4.627L32.105,-12.543L41.715,-8.393Z" /></g><g id="Group 4" transform="matrix(1,0,0,1,368.81,845.925)"><path fill="#822782" fill-opacity="1" d="M31.92,-5.575L-17.13,11.595L-31.92,4.365L17.99,-11.595L31.92,-5.575Z" /></g><g id="Group 3" transform="matrix(1,0,0,1,368.623,845.984)"><path fill="#822782" fill-opacity="1" d="M-41.715,7.495L-41.715,1.101L41.715,-1.482L41.715,-7.495L-41.715,7.495Z" /></g><g id="Group 2" transform="matrix(1,0,0,1,368.655,842.835)"><path stroke-linejoin="miter" stroke-linecap="butt" stroke-width="3" stroke-opacity="1" stroke="#822782" fill="#ffffff" fill-opacity="1" d="M37.875,-4.515L32.075,-2.485L-16.975,14.685L-31.765,7.455L-37.875,4.465L16.505,-14.685L37.875,-4.515Z" /></g><g id="Group 1" transform="matrix(1,0,0,1,398.614,732.704)"><path stroke-linejoin="miter" stroke-linecap="butt" stroke-width="3" stroke-opacity="1" stroke="#822782" fill="#ffffff" fill-opacity="1" d="M-26.29,109.436C-29.578,82.797,-30.519,60.533,-30.722,44.526C-30.877,32.304,-31.104,-8.403,-18.699,-54.821C-15.357,-67.328,-11.784,-77.676,-2.523,-86.656C10.55,-99.333,27.341,-101.899,35.867,-102.527L39.241,-109.436C29.181,-109.419,5.761,-107.913,-10.75,-91.086C-17.796,-83.905,-21.965,-75.584,-27.202,-56.282C-36.971,-20.281,-39.024,12.326,-39.225,43.065C-39.332,59.359,-38.943,81.868,-36.757,108.821C-33.268,109.026,-29.779,109.231,-26.29,109.436Z" /></g></g><g transform="matrix(1,0,0,1,-8,23)" id="clope hand"><g id="clope"><g transform="translate(431.875,627.772)"><g transform="rotate(13)"><animateTransform repeatCount="indefinite" type="rotate" attributeName="transform" dur="6.667s" begin="0s" calcMode="spline" values="13; 8.5; 13" keyTimes="0; 0.5; 1" keySplines="0.14 0 0.85 1; 0.14 0 0.85 1" fill="freeze" /><g transform="scale(1,1) translate(-433.869,-627.773)"><g id="Group 2" transform="matrix(1,0,0,1,451.026,637.407)"><path stroke-linejoin="miter" stroke-linecap="butt" stroke-width="3" stroke-opacity="1" stroke="#824a8e" fill="#ffffff" fill-opacity="1" d="M18.152,-2.468C9.131,-17.048,-5.388,-21.201,-12.362,-16.601C-18.126,-12.798,-19.524,-2.495,-16.834,5.238C-13.82,13.9,-6.27,17.631,-4.656,18.385" /></g><g id="Group 1" transform="matrix(1,0,0,1,477.912,666.659)"><path fill="#822782" fill-opacity="1" d="M37.969,-19.933C30.602,-8.591,19.685,5.493,3.939,18.946C-4.597,26.239,-12.936,31.973,-20.48,36.479C-22.507,35.325,-34.883,27.951,-37.492,13.381C-39.339,3.113,-35.337,-5.146,-33.656,-8.51C-33.187,-9.455,-32.689,-10.338,-32.182,-11.171C-28.63,-17.052,-24.249,-20.611,-20.911,-23.263C-17.753,-25.787,-13.65,-29.069,-8.735,-31.726C-2.595,-35.045,4.82,-37.396,13.261,-36.132C27.27,-34.027,35.635,-23.195,37.969,-19.933Z" /></g></g></g></g></g></g><g transform="matrix(1,0,0,1,-8,23)" id="clope hand"><g id="clope"><g transform="translate(431.875,627.772)"><g transform="rotate(13)"><animateTransform repeatCount="indefinite" type="rotate" attributeName="transform" dur="6.667s" begin="0s" calcMode="spline" values="13; 8.5; 13" keyTimes="0; 0.5; 1" keySplines="0.14 0 0.85 1; 0.14 0 0.85 1" fill="freeze" /><g transform="scale(1,1) translate(-433.869,-627.773)"><g transform="matrix(1,0,0,1,580.003,750.521)" opacity="0.5" id="light"><g id="light"><path fill="#ffffff" fill-opacity="1" d="M122.458,60.309C119.97,88.443,76.903,107.624,26.257,103.146C-8.418,100.08,-37.66,86.715,-51.841,69.546L-58.79,58.069L-122.57,-47.382C-115.026,-51.888,-106.687,-57.623,-98.151,-64.916C-82.405,-78.369,-71.489,-92.453,-64.122,-103.795L94.584,19.229L94.607,19.243C112.928,30.27,123.809,45.03,122.458,60.309Z" /></g></g></g></g></g></g></g></svg>