<?xml version="1.0" encoding="utf-8"?><svg fill="none" viewBox="0 0 800 600" xmlns="http://www.w3.org/2000/svg"><defs /><g transform="matrix(1,0,0,1,25,51.5)" id="fon Outlines"><g id="Group 3" transform="matrix(1,0,0,1,340.967,247.586)"><path fill="#e8f4ff" fill-opacity="1" d="M-190.301,-116.586C-190.301,-116.586,-140.112,-160.502,-78.42,-139.589C-16.729,-118.677,31.369,-23.526,90.969,-20.389C150.57,-17.253,205.987,-49.667,253.039,-21.435C300.091,6.796,308.457,129.133,218.534,141.681C128.612,154.228,78.422,109.267,39.735,111.358C1.047,113.45,-93.059,160.502,-167.298,139.589C-241.536,118.677,-308.456,-25.618,-190.301,-116.586Z" /></g></g><g id="Woman_head Outlines"><g transform="translate(610.361,226.138)"><g transform="rotate(-11)"><animateTransform repeatCount="indefinite" type="rotate" attributeName="transform" dur="3.75s" begin="3.75s" calcMode="spline" values="-11; 0; 0; -11" keyTimes="0; 0.12; 0.867; 1" keySplines="0.167 0.167 0.667 1; 0.167 0 0.667 1; 0.167 0 0.833 0.833" fill="freeze" /><g transform="scale(1,1) translate(-51,-77.5)"><g id="Group 10" transform="matrix(1,0,0,1,43.526,55.856)"><path fill="#024470" fill-opacity="1" d="M-13.782,-34.646C-13.782,-34.646,-15.693,-30.181,-16.842,-21.759C-17.99,-13.336,-25.555,23.795,-25.555,23.795L17.993,31.202L3.063,-32.35L-13.782,-34.646Z" /></g><g id="Group 9" transform="matrix(1,0,0,1,48.334,36.633)"><path fill="#ff8d68" fill-opacity="1" d="M-8.471,-18.963C-8.471,-18.963,-14.678,-17.375,-18.195,-7.843C-21.711,1.688,-19.367,21.942,-17.022,24.325C-14.678,26.707,-7.557,25.797,2.317,22.537C12.751,19.094,16.276,8.247,18.14,1.092C21.711,-12.609,9.797,-26.707,-8.471,-18.963Z" /></g><g id="Group 8" transform="matrix(1,0,0,1,51.948,41.021)"><path fill="#024470" fill-opacity="1" d="M-24.118,-12.538C-24.118,-12.538,-18.377,1.244,3.445,2.01L7.479,29.095C7.479,29.095,12.549,32.992,16.179,34.99C16.179,34.99,24.287,-9.617,14.333,-20.336C4.379,-31.056,-11.869,-30.148,-18.76,-24.022C-25.651,-17.897,-24.118,-12.538,-24.118,-12.538Z" /></g><g id="Group 7" transform="matrix(1,0,0,1,57.616,44.774)"><path fill="#ff7759" fill-opacity="1" d="M-1.883,-2.098C-1.883,-2.098,0.419,-5.895,2.721,-4.496C5.024,-3.097,1.256,5.495,-1.883,5.694C-5.023,5.895,-3.348,0.1,-1.883,-2.098Z" /></g><g id="Group 6" transform="matrix(1,0,0,1,46.78,57.388)"><path stroke-linejoin="miter" stroke-linecap="butt" stroke-width="1.026" stroke-opacity="1" stroke="#e66657" d="M-5.551,4.211C-5.551,4.211,1.722,2.68,5.551,-4.211" /></g><g id="Group 5" transform="matrix(1,0,0,1,34.816,48.678)"><path stroke-linejoin="miter" stroke-linecap="butt" stroke-width="1.026" stroke-opacity="1" stroke="#e66657" d="M0.096,-3.924L-1.245,3.35L1.245,3.924" /></g><g id="Group 4" transform="matrix(1,0,0,1,38.261,55.569)"><path stroke-linejoin="miter" stroke-linecap="butt" stroke-width="1.026" stroke-opacity="1" stroke="#e66657" d="M-3.732,0.287C-3.732,0.287,-0.096,1.053,3.732,-1.053" /></g><g id="Group 3" transform="matrix(1,0,0,1,44.578,48.487)"><path fill="#fa6157" fill-opacity="1" d="M3.542,-0.001C3.542,1.955,1.957,3.542,0.001,3.542C-1.955,3.542,-3.542,1.955,-3.542,-0.001C-3.542,-1.957,-1.955,-3.542,0.001,-3.542C1.957,-3.542,3.542,-1.957,3.542,-0.001Z" /></g><g id="Group 2" transform="matrix(1,0,0,1,40.367,43.701)"><path fill="#024470" fill-opacity="1" d="M0.862,-0.001C0.862,0.475,0.476,0.861,0.001,0.861C-0.475,0.861,-0.861,0.475,-0.861,-0.001C-0.861,-0.477,-0.475,-0.861,0.001,-0.861C0.476,-0.861,0.862,-0.477,0.862,-0.001Z" /></g><g id="Group 1" transform="matrix(1,0,0,1,31.083,43.701)"><path fill="#024470" fill-opacity="1" d="M0.861,-0.001C0.861,0.475,0.476,0.861,0.001,0.861C-0.475,0.861,-0.861,0.475,-0.861,-0.001C-0.861,-0.477,-0.475,-0.861,0.001,-0.861C0.476,-0.861,0.861,-0.477,0.861,-0.001Z" /></g></g></g></g></g><g id="Woman_hand Outlines"><g transform="translate(583.423,256.978)"><animateTransform repeatCount="indefinite" type="translate" attributeName="transform" dur="3.683s" begin="3.817s" calcMode="spline" values="583.423 256.978; 581.923 255.978; 581.923 255.978; 583.423 256.978" keyTimes="0; 0.158; 0.864; 1" keySplines="0.167 0.167 0.667 1; 0 0 1 1; 0 0 1 1" fill="freeze" /><g transform="rotate(0)"><animateTransform repeatCount="indefinite" type="rotate" attributeName="transform" dur="3.683s" begin="3.817s" calcMode="spline" values="0; 3; 3; 0" keyTimes="0; 0.158; 0.864; 1" keySplines="0.167 0.167 0.667 1; 0.167 0 0.667 1; 0 0 1 1" fill="freeze" /><g transform="scale(1,1) translate(-73,-48)"><g id="Group 6" transform="matrix(1,0,0,1,17.493,18.093)"><path fill="#ff7759" fill-opacity="1" d="M5.997,-7.247L-13.794,-11.145C-13.794,-11.145,-14.094,-8.448,-12.295,-7.848L-10.496,-7.247C-10.496,-7.247,-5.998,3.547,-3.899,4.747C-1.799,5.946,10.8,11.145,10.8,11.145L14.094,-1.55L5.997,-7.247Z" /></g><g id="Group 5" transform="matrix(1,0,0,1,27.009,16.743)"><path fill="#ff8d68" fill-opacity="1" d="M10.716,10.108C10.716,10.108,10.525,8.768,7.876,3.399C4.941,-2.555,4.278,-4.998,4.278,-4.998C4.278,-4.998,-5.018,-8.597,-6.517,-10.395C-8.017,-12.195,-8.916,-12.495,-8.916,-12.495C-8.916,-12.495,-10.716,-9.196,-8.017,-6.797C-5.318,-4.398,-2.919,-2.599,-2.919,-2.599C-2.919,-2.599,-3.219,4.298,-2.319,7.597C-1.42,10.895,1.284,12.495,1.284,12.495L10.716,10.108Z" /></g><g id="Group 4" transform="matrix(1,0,0,1,53.013,53.266)"><path fill="#ff8d68" fill-opacity="1" d="M15.531,-15.314C15.531,-15.314,2.132,6.126,1.749,4.212C1.366,2.298,-15.479,-27.182,-15.479,-27.182L-24.719,-24.029C-24.719,-24.029,-10.885,19.143,-2.08,26.034C-2.08,26.034,-1.314,27.182,1.366,26.799C4.046,26.416,24.719,4.978,24.719,4.978L15.531,-15.314Z" /></g><g id="Group 3" transform="matrix(1,0,0,1,12.886,14.349)"><path stroke-linejoin="miter" stroke-linecap="butt" stroke-width="1.026" stroke-opacity="1" stroke="#e66657" d="M5.889,-0.133L-5.889,-3.505C-5.889,-3.505,-4.831,-0.899,-4.066,-0.133C-3.3,0.633,4.932,3.505,4.932,3.505" /></g><g id="Group 2" transform="matrix(1,0,0,1,13.606,17.567)"><path stroke-linejoin="miter" stroke-linecap="butt" stroke-width="1.026" stroke-opacity="1" stroke="#e66657" d="M-4.786,-3.35C-4.786,-3.35,-3.637,0.096,-3.062,0.67C-2.488,1.244,4.786,3.35,4.786,3.35" /></g><g id="Group 1" transform="matrix(1,0,0,1,23.656,12.745)"><path stroke-linejoin="miter" stroke-linecap="butt" stroke-width="1.026" stroke-opacity="1" stroke="#e66657" d="M-3.159,-1.399L0.434,1.399L3.158,0.706" /></g></g></g></g></g><g transform="matrix(1,0,0,1,489.304,130.613)" id="woman Outlines"><g id="Group 20" transform="matrix(1,0,0,1,97.217,375.076)"><path fill="#bfd9ff" fill-opacity="1" d="M75.228,0C75.228,3.489,41.546,6.316,-0.001,6.316C-41.547,6.316,-75.228,3.489,-75.228,0C-75.228,-3.488,-41.547,-6.316,-0.001,-6.316C41.546,-6.316,75.228,-3.488,75.228,0Z" /></g><g id="Group 19" transform="matrix(1,0,0,1,83.148,272.858)"><path fill="#45242c" fill-opacity="1" d="M-2.584,-28.712L-14.069,28.139L8.327,28.712C8.327,28.712,14.069,-21.821,11.772,-21.821C9.476,-21.821,-2.584,-28.712,-2.584,-28.712Z" /></g><g id="Group 18" transform="matrix(1,0,0,1,135.692,369.716)"><path fill="#713336" fill-opacity="1" d="M-3.062,-2.871C-3.062,-2.871,-11.485,5.934,-14.931,7.849C-14.166,9.38,-1.915,9.38,2.68,7.083C7.273,4.786,10.719,-0.574,10.719,-0.574L10.336,5.169L12.633,5.169C12.633,5.169,14.93,-2.871,14.93,-4.785C14.93,-6.699,12.633,-9.379,12.633,-9.379L-3.062,-2.871Z" /></g><g id="Group 17" transform="matrix(1,0,0,1,144.115,292.575)"><path fill="#ff8d68" fill-opacity="1" d="M-14.93,-39.05L-6.508,64.316L3.445,63.55C3.445,63.55,14.93,-12.252,10.337,-38.284C5.742,-64.317,-14.93,-39.05,-14.93,-39.05Z" /></g><g id="Group 16" transform="matrix(1,0,0,1,137.798,364.356)"><path fill="#ff8d68" fill-opacity="1" d="M-0.191,-7.465C-0.191,-7.465,-3.254,0.575,-7.465,4.403C-11.676,8.231,-0.958,8.231,3.637,4.403C8.23,0.575,8.614,-1.722,10.145,-2.488C11.676,-3.254,9.762,-8.231,9.762,-8.231L-0.191,-7.465Z" /></g><g id="Group 15" transform="matrix(1,0,0,1,65.939,369.359)"><path fill="#713336" fill-opacity="1" d="M-2.438,-4.25C-2.438,-4.25,-12.224,3.01,-15.943,4.316C-15.446,5.954,-3.371,8.019,1.545,6.529C6.46,5.04,10.76,0.337,10.76,0.337L9.415,5.933L11.679,6.32C11.679,6.32,15.298,-1.217,15.621,-3.104C15.943,-4.991,14.131,-8.019,14.131,-8.019L-2.438,-4.25Z" /></g><g id="Group 14" transform="matrix(1,0,0,1,87.104,294.235)"><path fill="#ff8d68" fill-opacity="1" d="M-7.898,-41.404L-17.02,61.903L-7.079,62.825C-7.079,62.825,17.019,-9.956,16.878,-36.39C16.738,-62.825,-7.898,-41.404,-7.898,-41.404Z" /></g><g id="Group 13" transform="matrix(1,0,0,1,68.596,363.808)"><path fill="#ff8d68" fill-opacity="1" d="M1.489,-7.671C1.489,-7.671,-2.885,-0.263,-7.681,2.801C-12.477,5.865,-1.911,7.671,3.262,4.672C8.436,1.673,9.2,-0.526,10.839,-1.023C12.477,-1.52,11.429,-6.748,11.429,-6.748L1.489,-7.671Z" /></g><g id="Group 12" transform="matrix(1,0,0,1,94.729,114.46)"><path fill="#e86d5e" fill-opacity="1" d="M6.796,-24.215C6.796,-24.215,-0.383,-21.343,-3.829,-16.366C-7.274,-11.389,-17.228,11.199,-17.228,11.199C-17.228,11.199,-11.868,20.769,0.383,24.215L17.228,-6.796L6.796,-24.215Z" /></g><g id="Group 11" transform="matrix(1,0,0,1,118.752,232.661)"><path fill="#713336" fill-opacity="1" d="M-26.129,-68.911C-26.129,-68.911,-25.555,-59.723,-25.555,-56.277C-25.555,-56.277,-39.337,10.338,-39.911,25.842C-40.485,41.347,-29.001,72.93,-29.001,72.93C-29.001,72.93,20.386,71.782,36.465,68.337L38.188,35.029C38.188,35.029,40.485,-22.971,38.188,-39.624C35.892,-56.277,26.128,-64.891,26.128,-64.891L23.257,-72.93L-26.129,-68.911Z" /></g><g id="Group 10" transform="matrix(1,0,0,1,124.495,128.577)"><path fill="#e86d5e" fill-opacity="1" d="M10.337,-42.352C10.337,-42.352,24.507,-37.071,28.526,-30.754C32.546,-24.437,44.356,8.98,44.356,8.98C44.356,8.98,30.112,14.612,18.339,14.612C18.339,14.612,17.737,25.772,18.885,29.217C20.034,32.663,17.514,34.598,17.514,34.598C17.514,34.598,-10.623,42.352,-31.583,37.758C-31.583,37.758,-34.169,37.184,-34.169,36.035C-34.169,34.886,-33.881,32.014,-33.881,32.014C-33.881,32.014,-35.891,12.49,-36.465,9.045C-37.039,5.6,-43.357,-3.78,-42.783,-7.513C-42.208,-11.245,-32.446,-28.569,-32.446,-28.569C-32.446,-28.569,-25.842,-36.321,-22.971,-38.331C-20.1,-40.341,-12.921,-40.341,-12.921,-40.341L10.337,-42.352Z" /></g><g id="Group 9" transform="matrix(1,0,0,1,116.567,79.416)"><path fill="#ff8d68" fill-opacity="1" d="M-8.472,-0.023C-8.662,0.925,-5.062,7.893,-9.971,13.569C-15.368,20.616,5.923,20.316,10.87,13.12C15.368,6.672,14.919,3.998,14.919,3.998C14.919,3.998,7.254,-5.154,5.245,-10.969C5.504,-10.404,-7.496,0.346,-8.472,-0.023Z" /></g><g id="Group 8" transform="matrix(1,0,0,1,118.178,92.399)"><path fill="#ffffff" fill-opacity="1" d="M16.654,-6.174L11.772,-10.768C11.772,-10.768,7.465,1.58,-7.753,2.441C-7.753,2.441,-9.763,-0.717,-8.614,-5.311L-11.198,-3.301C-11.198,-3.301,-16.654,4.451,-16.079,6.748C-15.505,9.045,-8.23,5.025,-8.23,5.025C-8.23,5.025,0.383,10.194,3.829,10.481C7.275,10.768,16.08,-5.312,16.654,-6.174Z" /></g><g id="Group 7" transform="matrix(1,0,0,1,135.884,126.807)"><path stroke-linejoin="miter" stroke-linecap="butt" stroke-width="1.149" stroke-opacity="1" stroke="#bb524f" d="M-4.402,-15.697L4.402,15.697" /></g><g id="Group 6" transform="matrix(1,0,0,1,130.333,117.953)"><path stroke-linejoin="miter" stroke-linecap="butt" stroke-width="1.149" stroke-opacity="1" stroke="#bb524f" d="M-4.307,-5.025C-4.307,-5.025,-2.297,1.006,4.307,5.025" /></g><g id="Group 5" transform="matrix(1,0,0,1,141.244,101.156)"><path stroke-linejoin="miter" stroke-linecap="butt" stroke-width="1.149" stroke-opacity="1" stroke="#bb524f" d="M-5.168,4.307C-5.168,4.307,-4.02,-3.733,5.169,-4.307" /></g><g id="Group 4" transform="matrix(1,0,0,1,88.46,128.29)"><path stroke-linejoin="miter" stroke-linecap="butt" stroke-width="1.149" stroke-opacity="1" stroke="#bb524f" d="M2.536,-26.272C2.536,-26.272,-6.844,-10.862,-6.748,-7.226C-6.652,-3.589,-0.623,6.748,-0.623,6.748L6.844,26.272" /></g><g id="Group 3" transform="matrix(1,0,0,1,128.466,160.305)"><path stroke-linejoin="miter" stroke-linecap="butt" stroke-width="1.149" stroke-opacity="1" stroke="#bb524f" d="M-5.025,5.742L5.024,-5.742" /></g><g id="Group 2" transform="matrix(1,0,0,1,111.526,176.096)"><path stroke-linejoin="miter" stroke-linecap="butt" stroke-width="1.149" stroke-opacity="1" stroke="#562525" d="M-15.361,-1.723C-15.361,-1.723,0.431,3.159,15.362,-3.158" /></g><g id="Group 1" transform="matrix(1,0,0,1,111.382,180.212)"><path stroke-linejoin="miter" stroke-linecap="butt" stroke-width="1.149" stroke-opacity="1" stroke="#562525" d="M-10.528,-0.192C-10.528,-0.192,-2.488,2.488,10.528,-2.489" /></g></g><g id="Woman_hand_2 Outlines"><g transform="translate(628.255,241.863)"><animateTransform repeatCount="indefinite" type="translate" attributeName="transform" dur="3s" begin="4s" calcMode="spline" values="628.255 241.863; 632.755 240.363; 632.755 240.363; 628.255 241.863" keyTimes="0; 0.272; 0.833; 1" keySplines="0 0 1 1; 0 0 1 1; 0 0 1 1" fill="freeze" /><g transform="rotate(-8)"><animateTransform repeatCount="indefinite" type="rotate" attributeName="transform" dur="3s" begin="4s" calcMode="spline" values="-8; 0; 0; -8" keyTimes="0; 0.272; 0.833; 1" keySplines="0 0 1 1; 0 0 1 1; 0 0 1 1" fill="freeze" /><g transform="scale(1,1) translate(-77.75,25.5)"><g id="Group 6" transform="matrix(1,0,0,1,28.824,69.49)"><path fill="#ffffff" fill-opacity="1" d="M26.797,11.384L-3.539,28.899L-26.797,-11.384L3.54,-28.899L26.797,11.384Z" /></g><g id="Group 5" transform="matrix(1,0,0,1,49.066,60.159)"><path fill="#ff8d68" fill-opacity="1" d="M12.012,-3.972C12.012,-3.972,7.225,1.292,5.79,2.441C4.354,3.589,-5.408,4.45,-5.408,4.45C-5.408,4.45,-9.714,11.629,-10.863,11.341C-12.011,11.054,-11.725,10.193,-11.725,10.193C-11.725,10.193,-12.011,-2.728,-11.15,-4.163C-10.288,-5.599,3.781,-9.619,3.781,-9.619L5.503,-11.629L12.012,-3.972Z" /></g><g id="Group 4" transform="matrix(1,0,0,1,79.837,30.632)"><path fill="#ff8d68" fill-opacity="1" d="M19.406,-25.353C19.789,-24.205,22.204,-15.409,23.736,-10.815C25.267,-6.221,-9.188,17.898,-14.548,22.109L-18.759,25.554L-25.267,17.898L4.246,-12.648L2.696,-23.532L19.406,-25.353Z" /></g><g id="Group 3" transform="matrix(1,0,0,1,39.112,67.48)"><path stroke-linejoin="miter" stroke-linecap="butt" stroke-width="1.026" stroke-opacity="1" stroke="#e66657" d="M-0.909,4.02L0.909,-4.02" /></g><g id="Group 2" transform="matrix(1,0,0,1,38.203,61.929)"><path stroke-linejoin="miter" stroke-linecap="butt" stroke-width="1.026" stroke-opacity="1" stroke="#e66657" d="M-1.053,2.297L1.053,-2.297" /></g><g id="Group 1" transform="matrix(1,0,0,1,40.404,63.748)"><path stroke-linejoin="miter" stroke-linecap="butt" stroke-width="1.026" stroke-opacity="1" stroke="#e66657" d="M-2.488,-7.753L-3.255,7.753L-0.766,7.753L3.255,0.862" /></g></g></g></g></g><g opacity="0" id="Kandidate_3 Outlines 2"><animate repeatCount="indefinite" attributeName="opacity" dur="0.3333333333333333s" begin="7.5s" calcMode="spline" values="0; 0.46" keyTimes="0; 1" keySplines="0.167 0.167 0.667 1" fill="freeze" /><g transform="translate(347.11,501.744)"><animateTransform repeatCount="indefinite" type="translate" attributeName="transform" dur="0.333s" begin="7.5s" calcMode="spline" values="347.11 501.744; 352.11 478.244" keyTimes="0; 1" keySplines="0.01 0.056 0.667 1" fill="freeze" /><g transform="scale(0.8,0.8) translate(-135,-53)"><g id="Group 11" transform="matrix(1,0,0,1,131.261,53.13)"><path fill="#bfd9ff" fill-opacity="1" d="M97.257,41.921L-117.285,41.921C-119.54,41.921,-121.187,39.79,-120.619,37.608L-100.591,-39.343C-100.196,-40.861,-98.825,-41.92,-97.257,-41.92L117.285,-41.92C119.54,-41.92,121.188,-39.789,120.62,-37.607L100.591,39.343C100.196,40.861,98.826,41.921,97.257,41.921Z" /></g><g id="Group 10"><path stroke-linejoin="round" stroke-linecap="round" stroke-width="3.446" stroke-opacity="1" stroke="#a9c2ff" d="M43.4,27.671L118.053,27.671" /></g><g id="Group 9"><path stroke-linejoin="round" stroke-linecap="round" stroke-width="3.446" stroke-opacity="1" stroke="#a9c2ff" d="M37.657,62.127L112.31,62.127" /></g><g id="Group 8"><path stroke-linejoin="round" stroke-linecap="round" stroke-width="3.446" stroke-opacity="1" stroke="#a9c2ff" d="M69.05,49.11L143.703,49.11" /></g><g id="Group 7"><path stroke-linejoin="round" stroke-linecap="round" stroke-width="3.446" stroke-opacity="1" stroke="#a9c2ff" d="M41.486,39.157L63.882,39.157" /></g><g id="Group 6"><path stroke-linejoin="round" stroke-linecap="round" stroke-width="3.446" stroke-opacity="1" stroke="#a9c2ff" d="M38.423,49.11L60.819,49.11" /></g><g id="Group 5"><path stroke-linejoin="round" stroke-linecap="round" stroke-width="3.446" stroke-opacity="1" stroke="#a9c2ff" d="M129.921,27.671L156.528,27.671" /></g><g id="Group 4" transform="matrix(1,0,0,1,123.982,74.569)"><path stroke-linejoin="miter" stroke-linecap="butt" stroke-width="1.149" stroke-opacity="1" stroke="#84aee5" d="M18.977,3.722L-20.755,3.722C-20.956,3.722,-21.102,3.533,-21.051,3.339L-19.273,-3.493C-19.237,-3.628,-19.117,-3.722,-18.977,-3.722L20.755,-3.722C20.956,-3.722,21.101,-3.533,21.051,-3.339L19.272,3.493C19.237,3.628,19.117,3.722,18.977,3.722Z" /></g><g id="Group 3" transform="matrix(1,0,0,1,74.596,74.569)"><path stroke-linejoin="miter" stroke-linecap="butt" stroke-width="1.149" stroke-opacity="1" stroke="#84aee5" d="M18.977,3.722L-20.755,3.722C-20.956,3.722,-21.101,3.533,-21.051,3.339L-19.273,-3.493C-19.237,-3.628,-19.116,-3.722,-18.977,-3.722L20.755,-3.722C20.956,-3.722,21.102,-3.533,21.051,-3.339L19.273,3.493C19.238,3.628,19.116,3.722,18.977,3.722Z" /></g><g id="Group 2" transform="matrix(1,0,0,1,186.891,52.746)"><path fill="#8dbcf8" fill-opacity="1" d="M25.9,15.639C23.863,12.926,15.601,10.954,13.318,8.242C12.152,6.856,12.152,4.281,12.43,2.092C13.243,1.574,13.919,1.053,14.32,0.57C15.006,-0.432,15.78,-1.833,16.555,-3.37C16.789,-3.14,17.102,-2.961,17.505,-2.973C18.59,-3.006,22.72,-8.628,21.655,-9.93C21.046,-10.675,20.063,-10.029,19.332,-9.339C20.424,-11.841,21.193,-13.759,21.193,-13.759L21.152,-13.759C21.256,-14.075,21.352,-14.393,21.432,-14.714C23.07,-21.286,19.071,-26.613,12.5,-26.613C5.929,-26.613,-0.727,-21.286,-2.365,-14.714C-2.446,-14.393,-2.508,-14.075,-2.562,-13.759L-2.603,-13.759C-2.603,-13.759,-2.791,-11.841,-2.946,-9.339C-3.333,-10.029,-3.995,-10.675,-4.975,-9.93C-6.689,-8.628,-5.362,-3.006,-4.294,-2.973C-3.896,-2.961,-3.494,-3.14,-3.146,-3.37C-3.137,-1.833,-3.062,-0.432,-2.876,0.57C-2.679,1.16,-2.102,1.807,-1.354,2.438C-2.172,4.547,-3.417,6.928,-5.177,8.242C-8.813,10.954,-18.059,12.926,-21.448,15.639C-24.496,18.079,-27.216,25.205,-27.732,26.613L26.712,26.613C26.898,25.205,27.732,18.079,25.9,15.639Z" /></g><g id="Group 1"><path stroke-linejoin="miter" stroke-linecap="butt" stroke-width="1.149" stroke-opacity="1" stroke="#7094d8" d="M185.624,95.434L223.908,95.434" /></g></g></g></g><g opacity="0.46" id="Kandidate_3 Outlines"><animate repeatCount="indefinite" attributeName="opacity" dur="0.3333333333333333s" begin="7.5s" calcMode="spline" values="0.46; 0.86" keyTimes="0; 1" keySplines="0.167 0.167 0.667 1" fill="freeze" /><g transform="translate(352.11,478.244)"><animateTransform repeatCount="indefinite" type="translate" attributeName="transform" dur="4.833s" begin="3s" calcMode="spline" values="352.11 478.244; 371.61 414.244; 371.61 414.244; 377.908 393.744" keyTimes="0; 0.207; 0.931; 1" keySplines="0.01 0.167 0.667 1; 0 0 1 1; 0.167 0.167 0.667 1" fill="freeze" /><g transform="scale(0.8,0.8) translate(-135,-53)"><g id="Group 11" transform="matrix(1,0,0,1,131.261,53.13)"><path fill="#bfd9ff" fill-opacity="1" d="M97.257,41.921L-117.285,41.921C-119.54,41.921,-121.187,39.79,-120.619,37.608L-100.591,-39.343C-100.196,-40.861,-98.825,-41.92,-97.257,-41.92L117.285,-41.92C119.54,-41.92,121.188,-39.789,120.62,-37.607L100.591,39.343C100.196,40.861,98.826,41.921,97.257,41.921Z" /></g><g id="Group 10"><path stroke-linejoin="round" stroke-linecap="round" stroke-width="3.446" stroke-opacity="1" stroke="#a9c2ff" d="M43.4,27.671L118.053,27.671" /></g><g id="Group 9"><path stroke-linejoin="round" stroke-linecap="round" stroke-width="3.446" stroke-opacity="1" stroke="#a9c2ff" d="M37.657,62.127L112.31,62.127" /></g><g id="Group 8"><path stroke-linejoin="round" stroke-linecap="round" stroke-width="3.446" stroke-opacity="1" stroke="#a9c2ff" d="M69.05,49.11L143.703,49.11" /></g><g id="Group 7"><path stroke-linejoin="round" stroke-linecap="round" stroke-width="3.446" stroke-opacity="1" stroke="#a9c2ff" d="M41.486,39.157L63.882,39.157" /></g><g id="Group 6"><path stroke-linejoin="round" stroke-linecap="round" stroke-width="3.446" stroke-opacity="1" stroke="#a9c2ff" d="M38.423,49.11L60.819,49.11" /></g><g id="Group 5"><path stroke-linejoin="round" stroke-linecap="round" stroke-width="3.446" stroke-opacity="1" stroke="#a9c2ff" d="M129.921,27.671L156.528,27.671" /></g><g id="Group 4" transform="matrix(1,0,0,1,123.982,74.569)"><path stroke-linejoin="miter" stroke-linecap="butt" stroke-width="1.149" stroke-opacity="1" stroke="#84aee5" d="M18.977,3.722L-20.755,3.722C-20.956,3.722,-21.102,3.533,-21.051,3.339L-19.273,-3.493C-19.237,-3.628,-19.117,-3.722,-18.977,-3.722L20.755,-3.722C20.956,-3.722,21.101,-3.533,21.051,-3.339L19.272,3.493C19.237,3.628,19.117,3.722,18.977,3.722Z" /></g><g id="Group 3" transform="matrix(1,0,0,1,74.596,74.569)"><path stroke-linejoin="miter" stroke-linecap="butt" stroke-width="1.149" stroke-opacity="1" stroke="#84aee5" d="M18.977,3.722L-20.755,3.722C-20.956,3.722,-21.101,3.533,-21.051,3.339L-19.273,-3.493C-19.237,-3.628,-19.116,-3.722,-18.977,-3.722L20.755,-3.722C20.956,-3.722,21.102,-3.533,21.051,-3.339L19.273,3.493C19.238,3.628,19.116,3.722,18.977,3.722Z" /></g><g id="Group 2" transform="matrix(1,0,0,1,186.891,52.746)"><path fill="#8dbcf8" fill-opacity="1" d="M25.9,15.639C23.863,12.926,15.601,10.954,13.318,8.242C12.152,6.856,12.152,4.281,12.43,2.092C13.243,1.574,13.919,1.053,14.32,0.57C15.006,-0.432,15.78,-1.833,16.555,-3.37C16.789,-3.14,17.102,-2.961,17.505,-2.973C18.59,-3.006,22.72,-8.628,21.655,-9.93C21.046,-10.675,20.063,-10.029,19.332,-9.339C20.424,-11.841,21.193,-13.759,21.193,-13.759L21.152,-13.759C21.256,-14.075,21.352,-14.393,21.432,-14.714C23.07,-21.286,19.071,-26.613,12.5,-26.613C5.929,-26.613,-0.727,-21.286,-2.365,-14.714C-2.446,-14.393,-2.508,-14.075,-2.562,-13.759L-2.603,-13.759C-2.603,-13.759,-2.791,-11.841,-2.946,-9.339C-3.333,-10.029,-3.995,-10.675,-4.975,-9.93C-6.689,-8.628,-5.362,-3.006,-4.294,-2.973C-3.896,-2.961,-3.494,-3.14,-3.146,-3.37C-3.137,-1.833,-3.062,-0.432,-2.876,0.57C-2.679,1.16,-2.102,1.807,-1.354,2.438C-2.172,4.547,-3.417,6.928,-5.177,8.242C-8.813,10.954,-18.059,12.926,-21.448,15.639C-24.496,18.079,-27.216,25.205,-27.732,26.613L26.712,26.613C26.898,25.205,27.732,18.079,25.9,15.639Z" /></g><g id="Group 1"><path stroke-linejoin="miter" stroke-linecap="butt" stroke-width="1.149" stroke-opacity="1" stroke="#7094d8" d="M185.624,95.434L223.908,95.434" /></g></g></g></g><g id="Kandidate_2 Outlines"><g transform="translate(379.908,393.744)"><animateTransform repeatCount="indefinite" type="translate" attributeName="transform" dur="4.833s" begin="3s" calcMode="spline" values="379.908 393.744; 395.658 329.744; 395.658 329.744; 400.408 308.835" keyTimes="0; 0.207; 0.931; 1" keySplines="0.01 0.173 0.667 1; 0 0 1 1; 0.167 0.167 0.667 1" fill="freeze" /><g transform="scale(0.8,0.8) translate(-135,-53)"><g id="Group 13" transform="matrix(1,0,0,1,127.1,53.226)"><path fill="#bfd9ff" fill-opacity="1" d="M97.257,41.921L-117.286,41.921C-119.541,41.921,-121.188,39.789,-120.62,37.607L-100.592,-39.344C-100.197,-40.862,-98.826,-41.921,-97.258,-41.921L117.285,-41.921C119.541,-41.921,121.187,-39.789,120.619,-37.607L100.59,39.342C100.195,40.86,98.826,41.921,97.257,41.921Z" /></g><g id="Group 12"><path stroke-linejoin="round" stroke-linecap="round" stroke-width="3.446" stroke-opacity="1" stroke="#a9c2ff" d="M39.238,27.767L113.891,27.767" /></g><g id="Group 11"><path stroke-linejoin="round" stroke-linecap="round" stroke-width="3.446" stroke-opacity="1" stroke="#a9c2ff" d="M33.496,62.223L108.149,62.223" /></g><g id="Group 10"><path stroke-linejoin="round" stroke-linecap="round" stroke-width="3.446" stroke-opacity="1" stroke="#a9c2ff" d="M64.888,49.206L139.541,49.206" /></g><g id="Group 9"><path stroke-linejoin="round" stroke-linecap="round" stroke-width="3.446" stroke-opacity="1" stroke="#a9c2ff" d="M37.324,39.252L59.72,39.252" /></g><g id="Group 8"><path stroke-linejoin="round" stroke-linecap="round" stroke-width="3.446" stroke-opacity="1" stroke="#a9c2ff" d="M34.261,49.206L56.657,49.206" /></g><g id="Group 7"><path stroke-linejoin="round" stroke-linecap="round" stroke-width="3.446" stroke-opacity="1" stroke="#a9c2ff" d="M125.759,27.767L152.366,27.767" /></g><g id="Group 6" transform="matrix(1,0,0,1,119.82,74.665)"><path stroke-linejoin="miter" stroke-linecap="butt" stroke-width="1.149" stroke-opacity="1" stroke="#84aee5" d="M18.977,3.722L-20.755,3.722C-20.956,3.722,-21.102,3.533,-21.051,3.339L-19.273,-3.493C-19.237,-3.628,-19.117,-3.722,-18.977,-3.722L20.755,-3.722C20.956,-3.722,21.101,-3.533,21.05,-3.339L19.272,3.493C19.237,3.628,19.117,3.722,18.977,3.722Z" /></g><g id="Group 5" transform="matrix(1,0,0,1,70.435,74.665)"><path stroke-linejoin="miter" stroke-linecap="butt" stroke-width="1.149" stroke-opacity="1" stroke="#84aee5" d="M18.977,3.722L-20.755,3.722C-20.956,3.722,-21.101,3.533,-21.051,3.339L-19.273,-3.493C-19.237,-3.628,-19.116,-3.722,-18.977,-3.722L20.755,-3.722C20.956,-3.722,21.102,-3.533,21.051,-3.339L19.273,3.493C19.238,3.628,19.116,3.722,18.977,3.722Z" /></g><g id="Group 4" transform="matrix(1,0,0,1,182.729,52.842)"><path fill="#8dbcf8" fill-opacity="1" d="M25.9,15.639C23.863,12.926,15.601,10.954,13.318,8.242C12.152,6.856,12.152,4.28,12.43,2.091C13.243,1.573,13.919,1.053,14.32,0.57C15.006,-0.432,15.78,-1.833,16.555,-3.37C16.789,-3.14,17.102,-2.962,17.505,-2.974C18.59,-3.006,22.72,-8.627,21.655,-9.93C21.046,-10.675,20.063,-10.029,19.332,-9.339C20.424,-11.841,21.193,-13.76,21.193,-13.76L21.152,-13.76C21.256,-14.076,21.352,-14.394,21.432,-14.715C23.07,-21.287,19.071,-26.613,12.5,-26.613C5.929,-26.613,-0.727,-21.287,-2.365,-14.715C-2.446,-14.394,-2.508,-14.076,-2.562,-13.76L-2.603,-13.76C-2.603,-13.76,-2.791,-11.841,-2.946,-9.339C-3.333,-10.029,-3.995,-10.675,-4.975,-9.93C-6.689,-8.627,-5.362,-3.006,-4.294,-2.974C-3.896,-2.962,-3.494,-3.14,-3.146,-3.37C-3.137,-1.833,-3.062,-0.432,-2.876,0.57C-2.679,1.16,-2.102,1.807,-1.354,2.438C-2.172,4.547,-3.417,6.929,-5.177,8.242C-8.813,10.954,-18.059,12.926,-21.448,15.639C-24.496,18.079,-27.217,25.205,-27.732,26.613L26.712,26.613C26.898,25.205,27.732,18.079,25.9,15.639Z" /></g><g id="Group 3"><path stroke-linejoin="miter" stroke-linecap="butt" stroke-width="1.149" stroke-opacity="1" stroke="#7094d8" d="M29.093,95.529L120.208,95.529" /></g><g id="Group 2"><path stroke-linejoin="miter" stroke-linecap="butt" stroke-width="1.149" stroke-opacity="1" stroke="#7094d8" d="M141.073,95.529L163.278,95.529" /></g><g id="Group 1" transform="matrix(1,0,0,1,242.762,19.154)"><path stroke-linejoin="miter" stroke-linecap="butt" stroke-width="1.149" stroke-opacity="1" stroke="#7094d8" d="M-5.788,-7.465L1.908,-7.465C4.171,-7.465,5.788,-5.276,5.123,-3.113L1.868,7.465" /></g></g></g></g><g opacity="1" id="Kandidate_1 Outlines"><animate repeatCount="indefinite" attributeName="opacity" dur="1s" begin="3s" calcMode="spline" values="1; 0.46" keyTimes="0; 1" keySplines="0 0 1 1" fill="freeze" /><g transform="translate(418.11,225.744)"><animateTransform repeatCount="indefinite" type="translate" attributeName="transform" dur="4.833s" begin="3s" calcMode="spline" values="418.11 225.744; 435.11 161.744; 435.11 161.744; 440.61 142.744" keyTimes="0; 0.207; 0.931; 1" keySplines="0.01 0.178 0.667 1; 0 0 1 1; 0.167 0.167 0.667 1" fill="freeze" /><g transform="scale(0.8,0.8) translate(-135,-53)"><g id="Group 10" transform="matrix(1,0,0,1,135.261,52.609)"><path fill="#bfd9ff" fill-opacity="1" d="M97.257,41.921L-117.285,41.921C-119.54,41.921,-121.187,39.789,-120.619,37.607L-100.591,-39.343C-100.196,-40.861,-98.825,-41.921,-97.257,-41.921L117.285,-41.921C119.541,-41.921,121.188,-39.789,120.62,-37.607L100.591,39.342C100.196,40.86,98.826,41.921,97.257,41.921Z" /></g><g id="Group 9"><path stroke-linejoin="round" stroke-linecap="round" stroke-width="3.446" stroke-opacity="1" stroke="#a9c2ff" d="M47.4,27.15L122.053,27.15" /></g><g id="Group 8"><path stroke-linejoin="round" stroke-linecap="round" stroke-width="3.446" stroke-opacity="1" stroke="#a9c2ff" d="M41.657,61.605L116.31,61.605" /></g><g id="Group 7"><path stroke-linejoin="round" stroke-linecap="round" stroke-width="3.446" stroke-opacity="1" stroke="#a9c2ff" d="M73.05,48.589L147.703,48.589" /></g><g id="Group 6"><path stroke-linejoin="round" stroke-linecap="round" stroke-width="3.446" stroke-opacity="1" stroke="#a9c2ff" d="M45.486,38.635L67.882,38.635" /></g><g id="Group 5"><path stroke-linejoin="round" stroke-linecap="round" stroke-width="3.446" stroke-opacity="1" stroke="#a9c2ff" d="M42.423,48.589L64.819,48.589" /></g><g id="Group 4"><path stroke-linejoin="round" stroke-linecap="round" stroke-width="3.446" stroke-opacity="1" stroke="#a9c2ff" d="M133.921,27.15L160.528,27.15" /></g><g id="Group 3" transform="matrix(1,0,0,1,127.982,74.048)"><path stroke-linejoin="miter" stroke-linecap="butt" stroke-width="1.149" stroke-opacity="1" stroke="#84aee5" d="M18.977,3.722L-20.755,3.722C-20.956,3.722,-21.102,3.533,-21.051,3.339L-19.273,-3.493C-19.237,-3.628,-19.116,-3.722,-18.977,-3.722L20.755,-3.722C20.956,-3.722,21.101,-3.533,21.051,-3.339L19.272,3.493C19.237,3.628,19.117,3.722,18.977,3.722Z" /></g><g id="Group 2" transform="matrix(1,0,0,1,78.596,74.048)"><path stroke-linejoin="miter" stroke-linecap="butt" stroke-width="1.149" stroke-opacity="1" stroke="#84aee5" d="M18.977,3.722L-20.755,3.722C-20.956,3.722,-21.101,3.533,-21.051,3.339L-19.273,-3.493C-19.237,-3.628,-19.116,-3.722,-18.977,-3.722L20.755,-3.722C20.956,-3.722,21.102,-3.533,21.051,-3.339L19.273,3.493C19.238,3.628,19.116,3.722,18.977,3.722Z" /></g><g id="Group 1" transform="matrix(1,0,0,1,190.891,52.224)"><path fill="#8dbcf8" fill-opacity="1" d="M25.9,15.639C23.864,12.926,15.601,10.954,13.318,8.242C12.152,6.856,12.152,4.281,12.43,2.092C13.243,1.574,13.919,1.053,14.32,0.57C15.006,-0.432,15.78,-1.833,16.555,-3.37C16.789,-3.14,17.102,-2.961,17.505,-2.973C18.59,-3.006,22.72,-8.627,21.655,-9.93C21.046,-10.675,20.063,-10.029,19.332,-9.339C20.424,-11.841,21.193,-13.759,21.193,-13.759L21.152,-13.759C21.256,-14.075,21.352,-14.393,21.432,-14.714C23.07,-21.286,19.071,-26.613,12.5,-26.613C5.929,-26.613,-0.727,-21.286,-2.365,-14.714C-2.446,-14.393,-2.508,-14.075,-2.562,-13.759L-2.603,-13.759C-2.603,-13.759,-2.791,-11.841,-2.946,-9.339C-3.333,-10.029,-3.995,-10.675,-4.975,-9.93C-6.689,-8.627,-5.362,-3.006,-4.294,-2.973C-3.896,-2.961,-3.494,-3.14,-3.146,-3.37C-3.137,-1.833,-3.062,-0.432,-2.876,0.57C-2.679,1.16,-2.102,1.807,-1.354,2.438C-2.172,4.547,-3.417,6.928,-5.177,8.242C-8.813,10.954,-18.059,12.926,-21.448,15.639C-24.496,18.079,-27.216,25.205,-27.732,26.613L26.712,26.613C26.898,25.205,27.732,18.079,25.9,15.639Z" /></g></g></g></g><g opacity="1" id="Kandidate_main Outlines"><animate repeatCount="indefinite" attributeName="opacity" dur="2.5s" begin="4.5s" calcMode="spline" values="1; 1" keyTimes="0; 1" keySplines="0.167 0 0.667 1" fill="freeze" /><g transform="translate(400.408,308.835)"><animateTransform repeatCount="indefinite" type="translate" attributeName="transform" dur="4.833s" begin="3s" calcMode="spline" values="400.408 308.835; 417.908 244.835; 370.408 204.835; 370.408 204.835; 417.908 244.835; 423.86 225.744" keyTimes="0; 0.207; 0.31; 0.828; 0.931; 1" keySplines="0.01 0.099 0.667 1; 0.02 0.128 0.667 1; 0 0 1 1; 0.167 0.167 0.667 1; 0.167 0.167 0.667 1" fill="freeze" /><g transform="scale(0.8,0.8)"><animateTransform repeatCount="indefinite" type="scale" attributeName="transform" dur="3.5s" begin="4s" calcMode="spline" values="0.8 0.8; 1 1; 1 1; 0.8 0.8" keyTimes="0; 0.143; 0.857; 1" keySplines="0.167 0.167 0.667 1; 0 0 1 1; 0 0 1 1" fill="freeze" /><g transform="translate(-135,-53)"><g id="Group 26" transform="matrix(1,0,0,1,131.211,58.48)"><path stroke-linejoin="miter" stroke-linecap="butt" stroke-width="1.149" stroke-opacity="1" stroke="#7094d8" d="M97.257,41.921L-117.286,41.921C-119.541,41.921,-121.188,39.789,-120.62,37.607L-100.592,-39.342C-100.197,-40.86,-98.826,-41.921,-97.257,-41.921L117.285,-41.921C119.541,-41.921,121.187,-39.789,120.619,-37.607L100.59,39.342C100.195,40.86,98.826,41.921,97.257,41.921Z" /></g><g id="Group 25" transform="matrix(1,0,0,1,127.192,52.737)"><path fill="#bfd9ff" fill-opacity="1" d="M97.257,41.921L-117.286,41.921C-119.541,41.921,-121.188,39.79,-120.62,37.607L-100.592,-39.342C-100.197,-40.86,-98.826,-41.921,-97.258,-41.921L117.285,-41.921C119.54,-41.921,121.187,-39.79,120.618,-37.607L100.59,39.344C100.195,40.862,98.826,41.921,97.257,41.921Z" /></g><g id="Group 24"><path stroke-linejoin="miter" stroke-linecap="butt" stroke-width="1.149" stroke-opacity="1" stroke="#7094d8" d="M77.231,94.658L184.616,94.658" /></g><g id="Group 23"><path stroke-linejoin="miter" stroke-linecap="butt" stroke-width="1.149" stroke-opacity="1" stroke="#7094d8" d="M47.37,10.817L138.102,10.817" /></g><g opacity="0"><animate repeatCount="indefinite" attributeName="opacity" dur="3.5s" begin="4s" calcMode="spline" values="0; 1; 1; 0" keyTimes="0; 0.143; 0.857; 1" keySplines="0.167 0.167 0.667 1; 0.167 0 0.667 1; 0 0 1 1" fill="freeze" /><g id="Group 21" transform="translate(173.704,73.434)"><path fill="#023f61" fill-opacity="1" d="M9.751,9.931L13.971,-7.001L7.05,-9.93C7.05,-9.93,-5.847,-5.21,-6.945,-4.07C-7.866,-3.115,-12.497,6.762,-13.971,9.931L9.751,9.931Z" /></g></g><g opacity="0"><animate repeatCount="indefinite" attributeName="opacity" dur="3.5s" begin="4s" calcMode="spline" values="0; 1; 1; 0" keyTimes="0; 0.143; 0.857; 1" keySplines="0.167 0.167 0.667 1; 0.167 0 0.667 1; 0 0 1 1" fill="freeze" /><g id="Group 20" transform="translate(195.677,73.434)"><path fill="#023f61" fill-opacity="1" d="M11.661,9.931C11.767,6.762,12.061,-3.115,11.617,-4.07C11.087,-5.21,0.543,-9.93,0.543,-9.93L-7.839,-7.001L-12.061,9.931L11.661,9.931Z" /></g></g><g opacity="0"><animate repeatCount="indefinite" attributeName="opacity" dur="3.5s" begin="4s" calcMode="spline" values="0; 1; 1; 0" keyTimes="0; 0.143; 0.857; 1" keySplines="0.167 0.167 0.667 1; 0.167 0 0.667 1; 0 0 1 1" fill="freeze" /><g id="Group 19" transform="translate(186.637,76.039)"><path fill="#bebecf" fill-opacity="1" d="M1.183,7.326L7.796,-7.326L-6.407,-6.512L-7.796,7.326L1.183,7.326Z" /></g></g><g opacity="0"><animate repeatCount="indefinite" attributeName="opacity" dur="3.5s" begin="4s" calcMode="spline" values="0; 1; 1; 0" keyTimes="0; 0.143; 0.857; 1" keySplines="0.167 0.167 0.667 1; 0.167 0 0.667 1; 0 0 1 1" fill="freeze" /><g id="Group 18" transform="translate(187.271,67.98)"><path fill="#dee0e8" fill-opacity="1" d="M-3.954,-7.57L-7.047,-5.616L-9.079,-0.733L-9.603,5.942L-5.249,4.151L-1.868,8.221L2.647,4.477L5.416,7.081L9.602,-1.872L8.865,-7.407L7.115,-8.221L-3.954,-7.57Z" /></g></g><g opacity="0"><animate repeatCount="indefinite" attributeName="opacity" dur="3.5s" begin="4s" calcMode="spline" values="0; 1; 1; 0" keyTimes="0; 0.143; 0.857; 1" keySplines="0.167 0.167 0.667 1; 0.167 0 0.667 1; 0 0 1 1" fill="freeze" /><g id="Group 17" transform="translate(181.758,49.836)"><path fill="#fb8e74" fill-opacity="1" d="M2.51,-2.242C2.51,-2.242,1.47,-4.603,-0.659,-3.032C-2.79,-1.462,-0.296,4.603,1.247,2.778C2.79,0.953,2.51,-2.242,2.51,-2.242Z" /></g></g><g opacity="0"><animate repeatCount="indefinite" attributeName="opacity" dur="3.5s" begin="4s" calcMode="spline" values="0; 1; 1; 0" keyTimes="0; 0.143; 0.857; 1" keySplines="0.167 0.167 0.667 1; 0.167 0 0.667 1; 0 0 1 1" fill="freeze" /><g id="Group 16" transform="translate(201.19,49.573)"><path fill="#fb8e74" fill-opacity="1" d="M-1.744,-2.105C-1.744,-2.105,0.28,-4.607,1.808,-3.205C3.336,-1.803,-1.686,4.607,-2.511,2.892C-3.336,1.176,-1.744,-2.105,-1.744,-2.105Z" /></g></g><g opacity="0"><animate repeatCount="indefinite" attributeName="opacity" dur="3.5s" begin="4s" calcMode="spline" values="0; 1; 1; 0" keyTimes="0; 0.143; 0.857; 1" keySplines="0.167 0.167 0.667 1; 0.167 0 0.667 1; 0 0 1 1" fill="freeze" /><g id="Group 15" transform="translate(189.183,63.263)"><path fill="#fb8877" fill-opacity="1" d="M5.519,1.874L7.698,-9.682L-4.914,-8.589L-7.698,2.266C-7.698,2.266,-5.493,7.404,-3.131,9.683C-3.131,9.683,4.204,3.346,5.519,1.874Z" /></g></g><g opacity="0"><animate repeatCount="indefinite" attributeName="opacity" dur="3.5s" begin="4s" calcMode="spline" values="0; 1; 1; 0" keyTimes="0; 0.143; 0.857; 1" keySplines="0.167 0.167 0.667 1; 0.167 0 0.667 1; 0 0 1 1" fill="freeze" /><g id="Group 14" transform="translate(194.998,41.678)"><path fill="#713336" fill-opacity="1" d="M9.93,1.124C9.461,2.53,8.302,2.881,8.217,3.701C8.131,4.521,7.605,6.629,6.806,7.45C6.007,8.27,5.591,8.504,5.591,8.504C5.591,8.504,-5.229,11.549,-10.723,7.332C-10.723,7.332,-11.082,5.732,-10.706,3.818C-10.333,1.924,-11.252,1.593,-10.185,0.656C-9.118,-0.281,-8.795,-1.102,-8.77,-2.156C-8.745,-3.21,-8.662,-4.499,-7.566,-5.553C-6.47,-6.607,-5.487,-6.255,-4.42,-7.192C-4.42,-7.192,-2.842,-9.841,-0.758,-10.143C1.326,-10.444,5.72,-11.549,8.334,-8.335C10.948,-5.121,9.744,-2.308,10.498,-1.304C11.252,-0.299,9.93,1.124,9.93,1.124Z" /></g></g><g opacity="0"><animate repeatCount="indefinite" attributeName="opacity" dur="3.5s" begin="4s" calcMode="spline" values="0; 1; 1; 0" keyTimes="0; 0.143; 0.857; 1" keySplines="0.167 0.167 0.667 1; 0.167 0 0.667 1; 0 0 1 1" fill="freeze" /><g id="Group 13" transform="translate(190.858,47.633)"><path fill="#fba990" fill-opacity="1" d="M-6.675,-2.03C-6.675,-2.03,-11.78,12.033,-2.165,13.087C6.331,13.284,9.348,2.917,10.564,-2.4C11.781,-7.718,11.029,-13.285,4.228,-13.103C-2.572,-12.92,-5.927,-5.179,-6.675,-2.03Z" /></g></g><g opacity="0"><animate repeatCount="indefinite" attributeName="opacity" dur="3.5s" begin="4s" calcMode="spline" values="0; 1; 1; 0" keyTimes="0; 0.143; 0.857; 1" keySplines="0.167 0.167 0.667 1; 0.167 0 0.667 1; 0 0 1 1" fill="freeze" /><g id="Group 12" transform="translate(193.004,41.726)"><path fill="#713336" fill-opacity="1" d="M-6.151,-1.167C-6.151,-1.167,-5.522,-0.039,-6.105,1.098C-6.688,2.235,-8.27,2.671,-8.507,4.171C-8.744,5.672,-9.439,8.791,-9.863,8.928C-10.288,9.064,-9.988,5.882,-9.917,4.792C-9.845,3.7,-9.032,-0.811,-6.764,-3.676C-4.496,-6.542,-3.094,-7.752,0.943,-8.408C4.981,-9.065,8.041,-7.366,9.165,-4.903C10.289,-2.439,8.491,3.837,8.491,3.837C8.491,3.837,8.759,0.854,7.76,0.155C6.761,-0.545,5.936,-1.064,6.102,-1.473C6.267,-1.882,2.906,-0.399,-0.453,-1.479C-3.813,-2.56,-4.899,-2.067,-5.458,-1.721C-6.017,-1.375,-6.151,-1.167,-6.151,-1.167Z" /></g></g><g opacity="0"><animate repeatCount="indefinite" attributeName="opacity" dur="3.5s" begin="4s" calcMode="spline" values="0; 1; 1; 0" keyTimes="0; 0.143; 0.857; 1" keySplines="0.167 0.167 0.667 1; 0.167 0 0.667 1; 0 0 1 1" fill="freeze" /><g id="Group 11" transform="translate(174.992,75.225)"><path stroke-linejoin="miter" stroke-linecap="butt" stroke-width="0.488" stroke-opacity="1" stroke="#022755" d="M2.347,-7.814C2.266,-7.489,-2.346,3.5,-2.346,3.5L1.704,5.535L0.566,7.814" /></g></g><g opacity="0"><animate repeatCount="indefinite" attributeName="opacity" dur="3.5s" begin="4s" calcMode="spline" values="0; 1; 1; 0" keyTimes="0; 0.143; 0.857; 1" keySplines="0.167 0.167 0.667 1; 0.167 0 0.667 1; 0 0 1 1" fill="freeze" /><g id="Group 10" transform="translate(194.274,75.225)"><path stroke-linejoin="miter" stroke-linecap="butt" stroke-width="0.488" stroke-opacity="1" stroke="#022755" d="M3.007,-7.814C2.926,-7.489,2.058,3.5,2.058,3.5L-3.007,5.535L-3.006,7.814" /></g></g><g id="Group 9" transform="matrix(1,0,0,1,190.096,54.747)"><path stroke-linejoin="miter" stroke-linecap="butt" stroke-width="1.149" stroke-opacity="1" stroke="#ffffff" d="M17.031,28.426L-31.206,28.426C-33.427,28.426,-34.777,26.626,-34.224,24.406L-22.053,-24.406C-21.5,-26.625,-19.252,-28.426,-17.032,-28.426L31.206,-28.426C33.426,-28.426,34.777,-26.625,34.223,-24.406L22.053,24.406C21.5,26.626,19.251,28.426,17.031,28.426Z" /></g><g id="Group 8"><path stroke-linejoin="round" stroke-linecap="round" stroke-width="3.446" stroke-opacity="1" stroke="#73a5ff" d="M39.331,29.193L113.984,29.193" /></g><g id="Group 7"><path stroke-linejoin="round" stroke-linecap="round" stroke-width="3.446" stroke-opacity="1" stroke="#73a5ff" d="M33.588,63.648L108.241,63.648" /></g><g id="Group 6"><path stroke-linejoin="round" stroke-linecap="round" stroke-width="3.446" stroke-opacity="1" stroke="#73a5ff" d="M64.98,50.632L139.633,50.632" /></g><g id="Group 5"><path stroke-linejoin="round" stroke-linecap="round" stroke-width="3.446" stroke-opacity="1" stroke="#73a5ff" d="M37.416,40.678L59.812,40.678" /></g><g id="Group 4"><path stroke-linejoin="round" stroke-linecap="round" stroke-width="3.446" stroke-opacity="1" stroke="#73a5ff" d="M34.354,50.632L56.749,50.632" /></g><g id="Group 3"><path stroke-linejoin="round" stroke-linecap="round" stroke-width="3.446" stroke-opacity="1" stroke="#73a5ff" d="M125.852,29.193L152.459,29.193" /></g><g id="Group 2" transform="matrix(1,0,0,1,119.913,76.09)"><path stroke-linejoin="miter" stroke-linecap="butt" stroke-width="1.149" stroke-opacity="1" stroke="#7094d8" d="M18.977,3.722L-20.755,3.722C-20.956,3.722,-21.101,3.533,-21.051,3.339L-19.273,-3.493C-19.237,-3.628,-19.117,-3.722,-18.977,-3.722L20.755,-3.722C20.956,-3.722,21.101,-3.533,21.05,-3.339L19.272,3.493C19.237,3.628,19.116,3.722,18.977,3.722Z" /></g><g id="Group 1" transform="matrix(1,0,0,1,70.527,76.09)"><path stroke-linejoin="miter" stroke-linecap="butt" stroke-width="1.149" stroke-opacity="1" stroke="#7094d8" d="M18.977,3.722L-20.755,3.722C-20.955,3.722,-21.101,3.533,-21.051,3.339L-19.273,-3.493C-19.237,-3.628,-19.116,-3.722,-18.977,-3.722L20.755,-3.722C20.956,-3.722,21.102,-3.533,21.051,-3.339L19.273,3.493C19.238,3.628,19.116,3.722,18.977,3.722Z" /></g><g opacity="1"><animate repeatCount="indefinite" attributeName="opacity" dur="3.5s" begin="4s" calcMode="spline" values="1; 0; 0; 1" keyTimes="0; 0.143; 0.857; 1" keySplines="0.167 0.167 0.667 1; 0.167 0 0.667 1; 0 0 1 1" fill="freeze" /><g id="Group 27" transform="translate(183.979,56.092)"><path fill="#8dbcf8" fill-opacity="1" d="M25.9,15.639C23.863,12.926,15.601,10.954,13.318,8.242C12.152,6.856,12.152,4.28,12.43,2.091C13.243,1.573,13.919,1.053,14.32,0.57C15.006,-0.432,15.78,-1.833,16.555,-3.37C16.789,-3.14,17.102,-2.962,17.505,-2.974C18.59,-3.006,22.72,-8.627,21.655,-9.93C21.046,-10.675,20.063,-10.029,19.332,-9.339C20.424,-11.841,21.193,-13.76,21.193,-13.76L21.152,-13.76C21.256,-14.076,21.352,-14.394,21.432,-14.715C23.07,-21.287,19.071,-26.613,12.5,-26.613C5.929,-26.613,-0.727,-21.287,-2.365,-14.715C-2.446,-14.394,-2.508,-14.076,-2.562,-13.76L-2.603,-13.76C-2.603,-13.76,-2.791,-11.841,-2.946,-9.339C-3.333,-10.029,-3.995,-10.675,-4.975,-9.93C-6.689,-8.627,-5.362,-3.006,-4.294,-2.974C-3.896,-2.962,-3.494,-3.14,-3.146,-3.37C-3.137,-1.833,-3.062,-0.432,-2.876,0.57C-2.679,1.16,-2.102,1.807,-1.354,2.438C-2.172,4.547,-3.417,6.929,-5.177,8.242C-8.813,10.954,-18.059,12.926,-21.448,15.639C-24.496,18.079,-27.217,25.205,-27.732,26.613L26.712,26.613C26.898,25.205,27.732,18.079,25.9,15.639Z" /></g></g></g></g></g></g><g opacity="0.46" id="Kandidate_3 Outlines 3"><animate repeatCount="indefinite" attributeName="opacity" dur="1s" begin="3s" calcMode="spline" values="0.46; 0" keyTimes="0; 1" keySplines="0 0 1 1" fill="freeze" /><g transform="translate(444.11,142.744)"><animateTransform repeatCount="indefinite" type="translate" attributeName="transform" dur="1s" begin="3s" calcMode="spline" values="444.11 142.744; 461.11 78.244" keyTimes="0; 1" keySplines="0.01 0.174 0.667 1" fill="freeze" /><g transform="scale(0.8,0.8) translate(-135,-53)"><g id="Group 11" transform="matrix(1,0,0,1,131.261,53.13)"><path fill="#bfd9ff" fill-opacity="1" d="M97.257,41.921L-117.285,41.921C-119.54,41.921,-121.187,39.79,-120.619,37.608L-100.591,-39.343C-100.196,-40.861,-98.825,-41.92,-97.257,-41.92L117.285,-41.92C119.54,-41.92,121.188,-39.789,120.62,-37.607L100.591,39.343C100.196,40.861,98.826,41.921,97.257,41.921Z" /></g><g id="Group 10"><path stroke-linejoin="round" stroke-linecap="round" stroke-width="3.446" stroke-opacity="1" stroke="#a9c2ff" d="M43.4,27.671L118.053,27.671" /></g><g id="Group 9"><path stroke-linejoin="round" stroke-linecap="round" stroke-width="3.446" stroke-opacity="1" stroke="#a9c2ff" d="M37.657,62.127L112.31,62.127" /></g><g id="Group 8"><path stroke-linejoin="round" stroke-linecap="round" stroke-width="3.446" stroke-opacity="1" stroke="#a9c2ff" d="M69.05,49.11L143.703,49.11" /></g><g id="Group 7"><path stroke-linejoin="round" stroke-linecap="round" stroke-width="3.446" stroke-opacity="1" stroke="#a9c2ff" d="M41.486,39.157L63.882,39.157" /></g><g id="Group 6"><path stroke-linejoin="round" stroke-linecap="round" stroke-width="3.446" stroke-opacity="1" stroke="#a9c2ff" d="M38.423,49.11L60.819,49.11" /></g><g id="Group 5"><path stroke-linejoin="round" stroke-linecap="round" stroke-width="3.446" stroke-opacity="1" stroke="#a9c2ff" d="M129.921,27.671L156.528,27.671" /></g><g id="Group 4" transform="matrix(1,0,0,1,123.982,74.569)"><path stroke-linejoin="miter" stroke-linecap="butt" stroke-width="1.149" stroke-opacity="1" stroke="#84aee5" d="M18.977,3.722L-20.755,3.722C-20.956,3.722,-21.102,3.533,-21.051,3.339L-19.273,-3.493C-19.237,-3.628,-19.117,-3.722,-18.977,-3.722L20.755,-3.722C20.956,-3.722,21.101,-3.533,21.051,-3.339L19.272,3.493C19.237,3.628,19.117,3.722,18.977,3.722Z" /></g><g id="Group 3" transform="matrix(1,0,0,1,74.596,74.569)"><path stroke-linejoin="miter" stroke-linecap="butt" stroke-width="1.149" stroke-opacity="1" stroke="#84aee5" d="M18.977,3.722L-20.755,3.722C-20.956,3.722,-21.101,3.533,-21.051,3.339L-19.273,-3.493C-19.237,-3.628,-19.116,-3.722,-18.977,-3.722L20.755,-3.722C20.956,-3.722,21.102,-3.533,21.051,-3.339L19.273,3.493C19.238,3.628,19.116,3.722,18.977,3.722Z" /></g><g id="Group 2" transform="matrix(1,0,0,1,186.891,52.746)"><path fill="#8dbcf8" fill-opacity="1" d="M25.9,15.639C23.863,12.926,15.601,10.954,13.318,8.242C12.152,6.856,12.152,4.281,12.43,2.092C13.243,1.574,13.919,1.053,14.32,0.57C15.006,-0.432,15.78,-1.833,16.555,-3.37C16.789,-3.14,17.102,-2.961,17.505,-2.973C18.59,-3.006,22.72,-8.628,21.655,-9.93C21.046,-10.675,20.063,-10.029,19.332,-9.339C20.424,-11.841,21.193,-13.759,21.193,-13.759L21.152,-13.759C21.256,-14.075,21.352,-14.393,21.432,-14.714C23.07,-21.286,19.071,-26.613,12.5,-26.613C5.929,-26.613,-0.727,-21.286,-2.365,-14.714C-2.446,-14.393,-2.508,-14.075,-2.562,-13.759L-2.603,-13.759C-2.603,-13.759,-2.791,-11.841,-2.946,-9.339C-3.333,-10.029,-3.995,-10.675,-4.975,-9.93C-6.689,-8.628,-5.362,-3.006,-4.294,-2.973C-3.896,-2.961,-3.494,-3.14,-3.146,-3.37C-3.137,-1.833,-3.062,-0.432,-2.876,0.57C-2.679,1.16,-2.102,1.807,-1.354,2.438C-2.172,4.547,-3.417,6.928,-5.177,8.242C-8.813,10.954,-18.059,12.926,-21.448,15.639C-24.496,18.079,-27.216,25.205,-27.732,26.613L26.712,26.613C26.898,25.205,27.732,18.079,25.9,15.639Z" /></g><g id="Group 1"><path stroke-linejoin="miter" stroke-linecap="butt" stroke-width="1.149" stroke-opacity="1" stroke="#7094d8" d="M185.624,95.434L223.908,95.434" /></g></g></g></g><g id="Man_head Outlines"><g transform="translate(190.344,218.425)"><g transform="rotate(-5)"><animateTransform repeatCount="indefinite" type="rotate" attributeName="transform" dur="2s" begin="3s" calcMode="spline" values="-5; 0; 0; -5" keyTimes="0; 0.25; 0.75; 1" keySplines="0 0 1 1; 0 0 1 1; 0.167 0.167 0.667 1" fill="freeze" /><g transform="scale(1,1) translate(-28.5,-68)"><g id="Group 8" transform="matrix(1,0,0,1,29.453,34.074)"><path fill="#ff8d68" fill-opacity="1" d="M9.206,-20.607C9.206,-20.607,15.952,-18.88,19.773,-8.523C23.594,1.835,21.046,23.845,18.499,26.434C15.952,29.023,8.213,28.034,-2.518,24.492C-13.856,20.75,-17.688,8.962,-19.714,1.187C-23.594,-13.702,-10.646,-29.023,9.206,-20.607Z" /></g><g id="Group 7" transform="matrix(1,0,0,1,27.232,60.607)"><path fill="#ff8d68" fill-opacity="1" d="M-12.768,10.032L-7.296,-9.576C-7.296,-9.576,3.649,-12.767,10.488,-5.471L12.768,-2.281L12.768,10.488C12.768,10.488,1.368,12.768,-12.768,10.032Z" /></g><g id="Group 6" transform="matrix(1,0,0,1,29.973,31.234)"><path fill="#c53a45" fill-opacity="1" d="M21.848,-16.831C21.848,-16.831,25.085,-12.623,23.143,-7.768C21.201,-2.913,14.08,-0.971,14.08,-0.971C14.08,-0.971,16.346,2.266,14.08,6.797L12.461,9.387C12.461,9.387,14.727,14.565,14.08,15.86C13.432,17.155,11.167,16.832,11.167,16.832C11.167,16.832,8.577,9.711,7.606,10.358C6.635,11.005,4.046,14.242,4.046,17.155C4.046,20.068,5.017,22.334,4.369,24.276C3.722,26.218,-6.312,26.218,-10.52,25.57C-14.727,24.923,-21.201,11.976,-22.819,6.15C-22.819,6.15,-25.085,-1.942,-21.848,-8.739C-21.848,-8.739,-22.495,-14.565,-16.993,-20.392C-11.49,-26.218,5.988,-24.275,8.901,-22.01C8.901,-22.01,8.577,-25.247,11.814,-24.599C15.051,-23.952,19.906,-21.039,21.848,-16.831Z" /></g><g id="Group 5" transform="matrix(1,0,0,1,39.036,46.609)"><path fill="#ff7759" fill-opacity="1" d="M3.075,-2.751C3.075,-2.751,2.104,-6.959,-1.457,-5.017C-5.017,-3.075,-0.809,6.959,2.104,6.312C5.017,5.665,3.722,-1.133,3.075,-2.751Z" /></g><g id="Group 4" transform="matrix(1,0,0,1,40.827,59.068)"><path stroke-linejoin="miter" stroke-linecap="butt" stroke-width="1.026" stroke-opacity="1" stroke="#e66657" d="M-5.215,-3.078C-5.215,-3.078,-2.822,3.078,5.215,2.052" /></g><g id="Group 3" transform="matrix(1,0,0,1,18.768,19.825)"><path stroke-linejoin="miter" stroke-linecap="butt" stroke-width="1.368" stroke-opacity="1" stroke="#a03a45" d="M7.609,2.309C0.94,-0.94,-7.609,2.993,-7.609,2.993C-7.609,2.993,-6.583,-1.454,-1.796,-2.993" /></g><g id="Group 2" transform="matrix(1,0,0,1,13.468,27.092)"><path stroke-linejoin="miter" stroke-linecap="butt" stroke-width="1.368" stroke-opacity="1" stroke="#a03a45" d="M-1.967,-1.539C-1.967,-1.539,-0.256,-1.71,1.967,1.71" /></g><g id="Group 1" transform="matrix(1,0,0,1,45.244,15.122)"><path stroke-linejoin="miter" stroke-linecap="butt" stroke-width="1.368" stroke-opacity="1" stroke="#a03a45" d="M-4.332,-4.902C-4.332,-4.902,4.104,-3.534,4.332,4.902" /></g></g></g></g></g><g id="Man_finger Outlines"><g transform="translate(287.086,220.368)"><animateTransform repeatCount="indefinite" type="translate" attributeName="transform" dur="3s" begin="3s" calcMode="spline" values="287.086 220.368; 302.003 267.843; 302.003 267.843; 272.503 218.093; 272.503 218.093; 287.086 220.368" keyTimes="0; 0.167; 0.333; 0.583; 0.667; 1" keySplines="0 0 1 1; 0 0 1 1; 0 0 1 1; 0 0 1 1; 0.167 0.167 0.667 1" fill="freeze" /><g transform="rotate(7.467)"><animateTransform repeatCount="indefinite" type="rotate" attributeName="transform" dur="3s" begin="3s" calcMode="spline" values="7.467; 59; 59; 0; 0; 7.467" keyTimes="0; 0.167; 0.333; 0.583; 0.667; 1" keySplines="0 0 1 1; 0 0 1 1; 0 0 1 1; 0 0 1 1; 0.167 0.167 0.667 1" fill="freeze" /><g transform="scale(1,1) translate(-25,-57)"><g id="Group 8" transform="matrix(1,0,0,1,27.018,53.44)"><path fill="#ff8d68" fill-opacity="1" d="M-4.664,0.809L-6.025,0.948L-2.974,-5.092C-2.974,-5.092,4.781,-5.582,6.025,-2.307L2.468,5.582L-4.664,0.809Z" /></g><g id="Group 7" transform="matrix(1,0,0,1,34.226,37.894)"><path fill="#ff7759" fill-opacity="1" d="M-7.512,-0.809C-7.512,-0.809,-7.814,-6.982,-5.618,-7.859C-3.422,-8.736,-0.963,-7.027,-0.963,-7.027C-0.963,-7.027,2.592,-7.39,3.727,-5.872C4.861,-4.355,4.768,-2.06,4.768,-2.06C4.768,-2.06,6.773,-1.611,7.294,0.296C7.815,2.201,6.883,5.887,6.883,5.887C6.883,5.887,4.562,8.735,1.878,8.029C-0.806,7.324,-7.512,-0.809,-7.512,-0.809Z" /></g><g id="Group 6" transform="matrix(1,0,0,1,28.072,30.807)"><path fill="#ff7759" fill-opacity="1" d="M-5.421,11.264C-5.421,11.264,-6.244,3.185,-5.374,2.117C-4.503,1.049,4.398,-11.264,4.398,-11.264C4.398,-11.264,6.244,-9.167,5.182,-6.773C4.119,-4.38,-0.072,2.883,-0.072,2.883L-0.092,9.088C-0.092,9.088,-2.836,11.001,-5.421,11.264Z" /></g><g id="Group 5" transform="matrix(1,0,0,1,29.95,42.328)"><path fill="#ff8d68" fill-opacity="1" d="M-6.641,6.206C-6.641,6.206,-8.766,-6.769,-7.316,-8.549C-5.865,-10.33,1.249,-9.292,2.607,-8.777C3.965,-8.262,7.724,-3.421,8.245,-1.515C8.766,0.391,5.224,7.283,3.094,8.807C0.964,10.33,-5.408,8.692,-6.641,6.206Z" /></g><g id="Group 4" transform="matrix(1,0,0,1,30.485,30.867)"><path stroke-linejoin="miter" stroke-linecap="butt" stroke-width="1.026" stroke-opacity="1" stroke="#e66657" d="M-2.779,1.202L-0.1,-1.193C-0.1,-1.193,1.781,-1.202,2.779,-0.001" /></g><g id="Group 3" transform="matrix(1,0,0,1,35.059,32.981)"><path stroke-linejoin="miter" stroke-linecap="butt" stroke-width="1.026" stroke-opacity="1" stroke="#e66657" d="M-4.161,-0.513C-4.161,-0.684,-0.342,-2.736,-0.342,-2.736C-0.342,-2.736,3.135,-1.881,3.648,-0.057C4.161,1.767,3.761,2.736,3.761,2.736" /></g><g id="Group 2" transform="matrix(1,0,0,1,38.678,40.932)"><path stroke-linejoin="miter" stroke-linecap="butt" stroke-width="1.026" stroke-opacity="1" stroke="#e66657" d="M-3.277,-5.159C-3.106,-5.216,1.568,-4.93,1.568,-4.93C1.568,-4.93,3.278,-3.791,3.221,-1.568C3.164,0.655,2.432,2.848,2.432,2.848C2.432,2.848,0.769,5.216,-2.081,5.159" /></g><g id="Group 1" transform="matrix(1,0,0,1,35.847,45.848)"><path stroke-linejoin="miter" stroke-linecap="butt" stroke-width="1.026" stroke-opacity="1" stroke="#e66657" d="M2.234,-5.286C2.234,-5.286,2.803,-4.374,2.062,-2.721C1.321,-1.068,0.425,3.261,-2.803,5.286" /></g></g></g></g></g><g transform="matrix(1,0,0,1,103.95,137.28)" id="Man Outlines"><g id="Group 26" transform="matrix(1,0,0,1,98.291,369.902)"><path fill="#bfd9ff" fill-opacity="1" d="M75.228,0.001C75.228,3.489,41.548,6.316,0.001,6.316C-41.546,6.316,-75.228,3.489,-75.228,0.001C-75.228,-3.488,-41.546,-6.316,0.001,-6.316C41.548,-6.316,75.228,-3.488,75.228,0.001Z" /></g><g id="Group 25" transform="matrix(1,0,0,1,83.053,358.131)"><path fill="#2d2737" fill-opacity="1" d="M-15.048,-8.55C-15.048,-8.55,-13.452,-11.97,-7.525,-11.058C-1.596,-10.146,-0.913,-9.006,-0.229,-6.042C0.455,-3.078,2.508,0.114,3.876,0.798C5.244,1.482,10.26,4.902,14.364,5.586C18.468,6.27,18.924,8.778,18.012,9.918C17.1,11.057,1.596,11.97,-1.824,11.513C-1.824,11.513,-13.452,11.285,-16.188,10.373C-18.924,9.462,-15.276,-7.41,-15.048,-8.55Z" /></g><g id="Group 24" transform="matrix(1,0,0,1,73.161,302.337)"><path fill="#3d4776" fill-opacity="1" d="M-11.739,-32.898C-11.739,-32.898,-13.473,-42.34,-3.502,-45.509C6.469,-48.679,8.356,-44.071,11.375,-35.46C14.393,-26.848,8.781,46.719,8.781,46.719C8.781,46.719,-2.7,48.679,-5.646,46.941C-5.646,46.941,-14.393,-0.949,-13.784,-14.092C-13.176,-27.234,-11.739,-32.898,-11.739,-32.898Z" /></g><g id="Group 23" transform="matrix(1,0,0,1,74.846,348.441)"><path fill="#51598d" fill-opacity="1" d="M-8.55,-2.052C-8.55,-2.052,4.446,-3.192,8.55,-3.876L8.322,2.052C8.322,2.052,-1.938,3.876,-8.322,2.964L-8.55,-2.052Z" /></g><g id="Group 22" transform="matrix(1,0,0,1,60.825,129.339)"><path fill="#7e78c7" fill-opacity="1" d="M2.279,-44.23C2.279,-44.23,-5.929,-43.774,-10.945,-25.079C-15.96,-6.383,-19.151,16.416,-17.327,22.344C-15.504,28.272,4.104,44.23,11.4,44.23C18.696,44.23,19.152,38.759,17.783,34.2C16.416,29.64,2.279,17.327,2.279,17.327C2.279,17.327,13.678,-19.151,13.223,-28.727C12.767,-38.302,7.295,-44.23,2.279,-44.23Z" /></g><g><g transform="translate(183.603,82.972)"><animateTransform repeatCount="indefinite" type="translate" attributeName="transform" dur="3s" begin="3s" calcMode="spline" values="183.603 82.972; 200.187 129.939; 200.187 129.939; 168.437 81.689; 168.437 81.689; 183.603 82.972" keyTimes="0; 0.167; 0.333; 0.583; 0.667; 1" keySplines="0 0 1 1; 0 0 1 1; 0 0 1 1; 0 0 1 1; 0.167 0.167 0.667 1" fill="freeze" /><g id="Group 21" transform="rotate(11.2)"><animateTransform repeatCount="indefinite" type="rotate" attributeName="transform" dur="3s" begin="3s" calcMode="spline" values="11.2; 59; 59; 0; 0; 11.2" keyTimes="0; 0.167; 0.333; 0.583; 0.667; 1" keySplines="0 0 1 1; 0 0 1 1; 0 0 1 1; 0 0 1 1; 0.167 0.167 0.667 1" fill="freeze" /><path fill="#dee0e8" fill-opacity="1" d="M-6.612,0.684L-3.876,-4.332C-3.876,-4.332,2.508,-5.472,5.7,-0.456C6.612,1.368,6.156,1.368,6.156,1.368L4.104,5.472L-6.612,0.684Z" /></g></g></g><g id="Group 20" transform="matrix(1,0,0,1,74.162,226.806)"><path fill="#3d4776" fill-opacity="1" d="M-16.758,-36.593C-16.758,-36.593,-20.862,-12.654,-16.758,14.706C-12.654,42.065,-4.446,44.801,3.077,44.801C10.601,44.801,12.653,22.913,14.021,13.338C15.389,3.762,20.862,-29.069,10.602,-36.593C0.342,-44.116,-11.286,-44.801,-16.758,-36.593Z" /></g><g id="Group 19" transform="matrix(1,0,0,1,101.521,235.698)"><path fill="#3d4776" fill-opacity="1" d="M-15.389,-13.338C-15.389,-13.338,-23.598,-35.226,-9.234,-44.801C5.129,-54.377,16.073,-53.009,19.493,-37.277C22.913,-21.546,23.598,32.488,18.81,43.432C14.022,54.376,-3.077,37.276,-15.389,-13.338Z" /></g><g id="Group 18" transform="matrix(1,0,0,1,86.963,81.917)"><path fill="#dee0e8" fill-opacity="1" d="M-17.179,2.632C-17.179,2.632,-15.652,-2.735,-14.283,-3.191C-12.915,-3.647,3.956,-5.472,13.075,0C17.179,3.192,16.723,5.471,16.723,5.471C16.723,5.471,-10.498,0.248,-17.179,2.632Z" /></g><g id="Group 17" transform="matrix(1,0,0,1,112.806,145.299)"><path fill="#7e78c7" fill-opacity="1" d="M-46.51,-62.014C-46.51,-62.014,-18.24,-63.838,1.823,-55.174C10.943,-50.614,35.363,-35.989,35.363,-35.989L65.137,-64.997C65.137,-64.997,72.592,-66.699,76.24,-58.035C76.24,-58.035,56.394,-23.653,44.573,-12.7C39.102,-8.139,10.488,-15.959,10.488,-15.959C10.488,-15.959,14.592,37.685,13.224,61.397C11.4,65.956,-24.168,67.486,-30.552,67.03C-36.935,66.574,-59.278,59.278,-59.734,57.91C-60.19,56.543,-56.542,1.824,-57.454,-4.559C-58.365,-10.943,-61.103,-42.407,-60.191,-46.966C-59.279,-51.526,-55.174,-60.19,-46.51,-62.014Z" /></g><g id="Group 16" transform="matrix(1,0,0,1,111.439,359.498)"><path fill="#3e3343" fill-opacity="1" d="M-15.048,-8.549C-15.048,-8.549,-13.452,-11.969,-7.525,-11.057C-1.597,-10.145,-0.913,-9.006,-0.229,-6.042C0.455,-3.078,2.508,0.114,3.876,0.798C5.244,1.482,10.26,4.903,14.364,5.586C18.468,6.27,18.924,8.778,18.012,9.918C17.1,11.058,1.595,11.969,-1.824,11.513C-1.824,11.513,-13.452,11.286,-16.188,10.374C-18.924,9.462,-15.276,-7.409,-15.048,-8.549Z" /></g><g id="Group 15" transform="matrix(1,0,0,1,108.702,305.122)"><path fill="#3d4776" fill-opacity="1" d="M-9.576,-34.198C-9.576,-34.198,-10.26,-43.775,0,-45.827C10.259,-47.879,11.628,-43.09,13.68,-34.198C15.732,-25.306,2.051,47.194,2.051,47.194C2.051,47.194,-9.576,47.879,-12.312,45.827C-12.312,45.827,-15.732,-2.735,-13.68,-15.731C-11.628,-28.726,-9.576,-34.198,-9.576,-34.198Z" /></g><g id="Group 14" transform="matrix(1,0,0,1,103.915,350.72)"><path fill="#51598d" fill-opacity="1" d="M-8.436,1.368C-8.436,1.368,0.456,3.876,7.98,2.508L8.664,-2.736L-8.664,-3.876L-8.436,1.368Z" /></g><g id="Group 13" transform="matrix(1,0,0,1,91.774,240.145)"><path stroke-linejoin="miter" stroke-linecap="butt" stroke-width="1.026" stroke-opacity="1" stroke="#2a2e59" d="M-8.379,-22.913C-8.379,-22.913,1.197,7.866,8.378,22.914" /></g><g id="Group 12" transform="matrix(1,0,0,1,108.702,267.503)"><path stroke-linejoin="miter" stroke-linecap="butt" stroke-width="1.026" stroke-opacity="1" stroke="#2a2e59" d="M-5.814,1.71C-5.814,1.71,0.001,-1.71,5.814,1.71" /></g><g id="Group 11" transform="matrix(1,0,0,1,108.361,273.146)"><path stroke-linejoin="miter" stroke-linecap="butt" stroke-width="1.026" stroke-opacity="1" stroke="#2a2e59" d="M-6.498,-0.171C-6.498,-0.171,-1.71,-2.907,6.498,2.907" /></g><g id="Group 10" transform="matrix(1,0,0,1,72.11,263.57)"><path stroke-linejoin="miter" stroke-linecap="butt" stroke-width="1.026" stroke-opacity="1" stroke="#2a2e59" d="M-6.156,1.539C-6.156,1.539,-2.394,-1.881,6.156,1.881" /></g><g id="Group 9" transform="matrix(1,0,0,1,73.991,267.845)"><path stroke-linejoin="miter" stroke-linecap="butt" stroke-width="1.026" stroke-opacity="1" stroke="#2a2e59" d="M-5.301,0.684C-5.301,0.684,0.171,-2.052,5.301,2.052" /></g><g id="Group 8" transform="matrix(1,0,0,1,80.317,308.884)"><path stroke-linejoin="miter" stroke-linecap="butt" stroke-width="1.026" stroke-opacity="1" stroke="#2a2e59" d="M1.026,-34.883L-1.026,34.883" /></g><g id="Group 7" transform="matrix(1,0,0,1,115.086,216.433)"><path stroke-linejoin="miter" stroke-linecap="butt" stroke-width="1.026" stroke-opacity="1" stroke="#2a2e59" d="M-5.471,-0.912C-5.471,-0.912,2.279,3.648,5.471,-3.648" /></g><g id="Group 6" transform="matrix(1,0,0,1,119.19,239.916)"><path stroke-linejoin="miter" stroke-linecap="butt" stroke-width="1.026" stroke-opacity="1" stroke="#2a2e59" d="M-1.824,-23.484C-1.824,-23.484,1.824,4.787,0.912,23.483" /></g><g id="Group 5" transform="matrix(1,0,0,1,54.44,129.796)"><path stroke-linejoin="miter" stroke-linecap="butt" stroke-width="1.026" stroke-opacity="1" stroke="#524b81" d="M-1.824,-19.608L1.824,19.607" /></g><g id="Group 4" transform="matrix(1,0,0,1,135.036,133.615)"><path stroke-linejoin="miter" stroke-linecap="butt" stroke-width="1.026" stroke-opacity="1" stroke="#524b81" d="M-17.836,-5.497C-17.836,-5.497,20.889,5.293,24.148,-2.828" /></g><g id="Group 3" transform="matrix(1,0,0,1,150.083,124.21)"><path stroke-linejoin="miter" stroke-linecap="butt" stroke-width="1.026" stroke-opacity="1" stroke="#524b81" d="M-1.611,-15.005C-1.611,-15.005,3.861,-11.927,3.519,-4.745" /></g><g id="Group 2" transform="matrix(1,0,0,1,150.596,117.541)"><path stroke-linejoin="miter" stroke-linecap="butt" stroke-width="1.026" stroke-opacity="1" stroke="#524b81" d="M0.196,-8.822C0.196,-8.822,3.571,-9.782,6.991,-3.968" /></g><g id="Group 1" transform="matrix(1,0,0,1,106.993,105.229)"><path stroke-linejoin="miter" stroke-linecap="butt" stroke-width="1.026" stroke-opacity="1" stroke="#524b81" d="M5.557,-13.733C5.557,-13.733,-4.442,-3.884,6.894,14.483" /></g></g><g opacity="0" id="ok Outlines"><animate repeatCount="indefinite" attributeName="opacity" dur="2s" begin="5.5s" calcMode="spline" values="0; 1; 1; 0" keyTimes="0; 0.25; 0.75; 1" keySplines="0.167 0.167 0.667 1; 0 0 1 1; 0 0 1 1" fill="freeze" /><g transform="translate(573.46,176.941)"><animateTransform repeatCount="indefinite" type="translate" attributeName="transform" dur="0.5s" begin="5.5s" calcMode="spline" values="573.46 176.941; 573.46 165.941" keyTimes="0; 1" keySplines="0.167 0.167 0.667 1" fill="freeze" /><g transform="scale(0.5,0.5)"><animateTransform repeatCount="indefinite" type="scale" attributeName="transform" dur="0.5s" begin="5.5s" calcMode="spline" values="0.5 0.5; 1 1" keyTimes="0; 1" keySplines="0.167 0.167 0.667 1" fill="freeze" /><g transform="translate(-81.75,-71.5)"><g id="Group 3" transform="matrix(1,0,0,1,46.23,46.279)"><path fill="#73a5ff" fill-opacity="1" d="M17.64,-0.001C15.211,9.742,5.344,17.641,-4.399,17.641C-14.141,17.641,-20.069,9.742,-17.641,-0.001C-15.212,-9.744,-5.344,-17.641,4.398,-17.641C14.14,-17.641,20.069,-9.744,17.64,-0.001Z" /></g><g id="Group 2" transform="matrix(1,0,0,1,68.477,60.229)"><path fill="#73a5ff" fill-opacity="1" d="M4.828,0C4.163,2.666,1.463,4.828,-1.204,4.828C-3.87,4.828,-5.493,2.666,-4.828,0C-4.163,-2.667,-1.463,-4.828,1.204,-4.828C3.87,-4.828,5.493,-2.667,4.828,0Z" /></g><g id="Group 1" transform="matrix(1,0,0,1,46.988,47.33)"><path fill="#ffffff" fill-opacity="1" d="M-5.307,7.914C-5.862,7.914,-6.364,7.702,-6.682,7.279L-11.24,1.206C-11.876,0.359,-11.534,-1.015,-10.475,-1.861C-9.417,-2.709,-8.044,-2.709,-7.408,-1.861L-4.001,2.678L8.174,-7.066C9.233,-7.914,10.605,-7.914,11.241,-7.066C11.877,-6.22,11.534,-4.846,10.476,-4L-3.615,7.279C-4.144,7.702,-4.752,7.914,-5.307,7.914Z" /></g></g></g></g></g><g opacity="0" id="instruments Outlines"><animate repeatCount="indefinite" attributeName="opacity" dur="3s" begin="4.5s" calcMode="spline" values="0; 1; 1; 0" keyTimes="0; 0.144; 0.833; 1" keySplines="0.167 0.167 0.667 1; 0 0 1 1; 0 0 1 1" fill="freeze" /><g transform="translate(315.699,163.244)"><animateTransform repeatCount="indefinite" type="translate" attributeName="transform" dur="2.5s" begin="4.5s" calcMode="spline" values="315.699 163.244; 295.699 145.244; 303.699 117.244" keyTimes="0; 0.173; 1" keySplines="0.167 0.167 0.667 1; 0.333 0 0.576 1" fill="freeze" /><g transform="scale(1,1) translate(-135,-53)"><g id="Group 12" transform="matrix(1,0,0,1,78.788,38.772)"><path fill="#bfd9ff" fill-opacity="1" d="M1.029,3.747L-2.897,3.747C-3.883,3.747,-4.483,2.949,-4.237,1.964L-3.258,-1.962C-3.012,-2.948,-2.014,-3.747,-1.029,-3.747L2.898,-3.747C3.883,-3.747,4.483,-2.948,4.237,-1.962L3.258,1.964C3.013,2.949,2.015,3.747,1.029,3.747Z" /></g><g id="Group 11" transform="matrix(1,0,0,1,75.918,50.283)"><path fill="#edf4ff" fill-opacity="1" d="M1.029,3.748L-2.898,3.748C-3.884,3.748,-4.483,2.949,-4.238,1.963L-3.258,-1.963C-3.012,-2.949,-2.015,-3.748,-1.029,-3.748L2.898,-3.748C3.883,-3.748,4.482,-2.949,4.236,-1.963L3.258,1.963C3.012,2.949,2.015,3.748,1.029,3.748Z" /></g><g id="Group 10" transform="matrix(1,0,0,1,88.41,50.283)"><path fill="#bfd9ff" fill-opacity="1" d="M1.029,3.748L-2.897,3.748C-3.883,3.748,-4.483,2.949,-4.237,1.963L-3.258,-1.963C-3.013,-2.949,-2.014,-3.748,-1.029,-3.748L2.898,-3.748C3.883,-3.748,4.483,-2.949,4.237,-1.963L3.258,1.963C3.013,2.949,2.014,3.748,1.029,3.748Z" /></g><g id="Group 9" transform="matrix(1,0,0,1,100.903,50.283)"><path fill="#edf4ff" fill-opacity="1" d="M1.029,3.748L-2.897,3.748C-3.883,3.748,-4.483,2.949,-4.237,1.963L-3.258,-1.963C-3.012,-2.949,-2.014,-3.748,-1.028,-3.748L2.898,-3.748C3.883,-3.748,4.483,-2.949,4.237,-1.963L3.258,1.963C3.013,2.949,2.015,3.748,1.029,3.748Z" /></g><g id="Group 8" transform="matrix(1,0,0,1,72.981,62.062)"><path fill="#edf4ff" fill-opacity="1" d="M1.029,3.748L-2.897,3.748C-3.883,3.748,-4.483,2.949,-4.237,1.963L-3.258,-1.963C-3.012,-2.948,-2.014,-3.748,-1.029,-3.748L2.898,-3.748C3.883,-3.748,4.483,-2.948,4.237,-1.963L3.258,1.963C3.013,2.949,2.014,3.748,1.029,3.748Z" /></g><g id="Group 7" transform="matrix(1,0,0,1,69.845,74.644)"><path fill="#edf4ff" fill-opacity="1" d="M1.028,3.747L-2.898,3.747C-3.884,3.747,-4.483,2.949,-4.238,1.963L-3.259,-1.962C-3.013,-2.948,-2.015,-3.747,-1.029,-3.747L2.897,-3.747C3.882,-3.747,4.483,-2.948,4.236,-1.962L3.258,1.963C3.012,2.949,2.014,3.747,1.028,3.747Z" /></g><g id="Group 6" transform="matrix(1,0,0,1,85.474,62.062)"><path fill="#edf4ff" fill-opacity="1" d="M1.029,3.748L-2.898,3.748C-3.884,3.748,-4.484,2.949,-4.238,1.963L-3.258,-1.963C-3.012,-2.948,-2.015,-3.748,-1.029,-3.748L2.898,-3.748C3.883,-3.748,4.483,-2.948,4.236,-1.963L3.258,1.963C3.013,2.949,2.015,3.748,1.029,3.748Z" /></g><g id="Group 5" transform="matrix(1,0,0,1,80.001,84.013)"><path fill="#bfd9ff" fill-opacity="1" d="M1.029,3.748L-2.897,3.748C-3.883,3.748,-4.483,2.949,-4.237,1.963L-3.258,-1.963C-3.013,-2.949,-2.014,-3.748,-1.029,-3.748L2.898,-3.748C3.883,-3.748,4.483,-2.949,4.237,-1.963L3.258,1.963C3.012,2.949,2.014,3.748,1.029,3.748Z" /></g><g id="Group 4" transform="matrix(1,0,0,1,136.282,41.158)"><path fill="#ebedfc" fill-opacity="1" d="M14.537,0.549C12.214,8.288,4.281,14.536,-3.526,14.783C-11.921,15.05,-17.157,8.536,-15.426,0.344L-15.184,-0.629L-15.193,-0.629C-12.96,-8.745,-4.695,-15.262,3.472,-15.262C3.895,-15.262,4.308,-15.24,4.713,-15.205C12.515,-14.546,17.007,-7.679,14.537,0.549ZM6.508,-21.494L6.508,-21.496C6.489,-21.497,6.469,-21.498,6.45,-21.499C6.39,-21.504,6.331,-21.511,6.271,-21.514L6.269,-21.51C5.865,-21.534,5.457,-21.553,5.041,-21.553C-6.601,-21.553,-18.383,-12.22,-21.484,-0.629L-21.623,-0.075L-21.628,-0.075C-21.642,-0.016,-21.652,0.041,-21.666,0.099L-21.754,0.453L-21.742,0.453C-24.297,12.202,-16.759,21.553,-4.69,21.064C6.314,20.619,17.412,11.836,20.715,0.949C24.297,-10.858,17.778,-20.706,6.508,-21.494Z" /></g><g id="Group 3" transform="matrix(1,0,0,1,136.787,41.204)"><path fill="#a5c5ff" fill-opacity="1" d="M4.855,-17.913L4.855,-17.913C4.494,-16.466,5.17,-15.21,6.487,-14.861C12.853,-13.177,16.249,-6.885,14.031,0.503C11.708,8.242,3.775,14.49,-4.032,14.737C-11.688,14.981,-16.722,9.585,-16.235,2.418C-16.135,0.94,-17.185,-0.121,-18.687,-0.121C-20.636,-0.121,-22.577,1.637,-22.707,3.554C-23.399,13.779,-16.166,21.462,-5.196,21.018C5.808,20.573,16.907,11.79,20.21,0.903C23.398,-9.606,18.585,-18.567,9.541,-20.966C7.672,-21.462,5.367,-19.966,4.855,-17.913Z" /></g><g id="Group 2" transform="matrix(1,0,0,1,188.969,38.775)"><path fill="#ebedfc" fill-opacity="1" d="M-2.626,14.986C-2.646,14.987,-2.665,14.989,-2.685,14.99C-2.933,15.006,-3.181,15.017,-3.429,15.021C-3.514,15.023,-3.6,15.028,-3.685,15.028C-11.983,15.028,-17.034,8.299,-14.965,0.001C-12.896,-8.299,-4.49,-15.026,3.809,-15.026C3.894,-15.026,3.977,-15.021,4.061,-15.02C4.308,-15.016,4.552,-15.006,4.793,-14.99C4.814,-14.989,4.834,-14.986,4.855,-14.984C12.525,-14.441,17.069,-7.943,15.089,0.001C15.073,0.063,15.054,0.124,15.038,0.186C12.982,8.048,5.255,14.452,-2.626,14.986ZM6.844,-21.259L6.845,-21.26C6.826,-21.262,6.807,-21.262,6.789,-21.264C6.714,-21.268,6.64,-21.273,6.566,-21.277C6.174,-21.301,5.78,-21.318,5.377,-21.318C-6.397,-21.318,-18.32,-11.773,-21.256,0.001C-24.191,11.774,-17.026,21.318,-5.253,21.318C-4.852,21.318,-4.449,21.301,-4.047,21.277C-3.972,21.273,-3.896,21.27,-3.82,21.265C-3.799,21.263,-3.778,21.262,-3.757,21.26L-3.756,21.258C7.452,20.501,18.443,11.376,21.329,0.186C21.345,0.124,21.364,0.063,21.38,0.001C24.191,-11.274,17.736,-20.497,6.844,-21.259Z" /></g><g id="Group 1" transform="matrix(1,0,0,1,197.096,49.521)"><path fill="#bfd9ff" fill-opacity="1" d="M5.996,-7.936C3.353,-1.91,-2.569,2.842,-8.878,4.004C-10.453,4.294,-11.879,5.572,-12.261,7.103C-12.754,9.084,-11.316,10.561,-9.277,10.191C-0.286,8.558,8.163,1.779,11.908,-6.817C12.755,-8.76,11.728,-10.561,9.751,-10.561C8.216,-10.561,6.658,-9.445,5.996,-7.936Z" /></g></g></g></g></svg>