<?xml version="1.0" encoding="utf-8"?><svg fill="none" viewBox="0 0 500 500" xmlns="http://www.w3.org/2000/svg"><defs /><g id="Clocks Outlines 2"><g transform="translate(250,238.531)"><g transform="scale(0.9,0.9)"><animateTransform repeatCount="indefinite" type="scale" attributeName="transform" dur="3.233s" begin="0.933s" calcMode="spline" values="0.9 0.9; 0.94 0.94; 0.9 0.9" keyTimes="0; 0.443; 1" keySplines="0.333 0 0.667 1; 0.333 0 0.667 1" fill="freeze" /><g transform="translate(-202.786,-218.92)"><g transform="matrix(1.111,0,0,1.111,-30.765,-24.623)" visibility="hidden" id="Background Simple"><animate repeatCount="indefinite" begin="21.233s" calcMode="discrete" fill="freeze" dur="0s" values="visible; visible" keyTimes="0; 1" attributeName="visibility" /></g></g></g></g></g><g transform="matrix(0.9,0,0,0.9,67.493,64.503)" visibility="hidden" id="Clocks Outlines"><animate repeatCount="indefinite" begin="21.233s" calcMode="discrete" fill="freeze" dur="0s" values="visible; visible" keyTimes="0; 1" attributeName="visibility" /><g id="Group 1"><path stroke-linejoin="round" stroke-linecap="round" stroke-width="1" stroke-opacity="1" stroke="#2e03e5" d="M0.5,437.339L405.072,437.339" /></g></g><g id="Clocks Outlines 2"><g transform="translate(250,238.531)"><g transform="scale(0.9,0.9)"><animateTransform repeatCount="indefinite" type="scale" attributeName="transform" dur="3.233s" begin="0.933s" calcMode="spline" values="0.9 0.9; 0.94 0.94; 0.9 0.9" keyTimes="0; 0.443; 1" keySplines="0.333 0 0.667 1; 0.333 0 0.667 1" fill="freeze" /><g transform="translate(-202.786,-218.92)"><g id="Group 71" transform="matrix(1,0,0,1,187.84,19.48)"><path stroke-linejoin="round" stroke-linecap="round" stroke-width="1" stroke-opacity="1" stroke="#2e03e5" d="M-5.26,11.627C-3.909,16.979,-4.575,7.128,-1.926,-4.925C0.724,-16.979,5.26,-12.09,5.26,-12.09" /></g><g id="Group 70" transform="matrix(1,0,0,1,185.9,17.091)"><path stroke-linejoin="round" stroke-linecap="round" stroke-width="1" stroke-opacity="1" stroke="#2e03e5" d="M-4.152,1.703L4.152,-1.703" /></g><g id="Group 69" transform="matrix(1,0,0,1,195.698,18.62)"><path stroke-linejoin="round" stroke-linecap="round" stroke-width="1" stroke-opacity="1" stroke="#2e03e5" d="M1.223,-7.315C1.223,-7.315,-3.742,2.951,3.742,7.315" /></g><g id="Group 68" transform="matrix(1,0,0,1,208.059,15.622)"><path stroke-linejoin="round" stroke-linecap="round" stroke-width="1" stroke-opacity="1" stroke="#2e03e5" d="M-4.097,-7.204C-4.097,-7.204,4.097,-2.651,-1.036,7.204" /></g><g id="Group 67" transform="matrix(1,0,0,1,201.283,16.926)"><path stroke-linejoin="round" stroke-linecap="round" stroke-width="1" stroke-opacity="1" stroke="#2e03e5" d="M-2.936,-2.144L2.935,2.144" /></g><g id="Group 66" transform="matrix(1,0,0,1,200.654,16.551)"><path stroke-linejoin="round" stroke-linecap="round" stroke-width="1" stroke-opacity="1" stroke="#2e03e5" d="M2.297,-3.657L-2.297,3.657" /></g><g id="Group 65" transform="matrix(1,0,0,1,17.118,278.617)"><path stroke-linejoin="round" stroke-linecap="round" stroke-width="1" stroke-opacity="1" stroke="#2e03e5" d="M6.974,-5.807C6.974,-5.807,-6.955,-6.013,-6.974,6.013" /></g><g id="Group 64" transform="matrix(1,0,0,1,19.418,281.247)"><path stroke-linejoin="round" stroke-linecap="round" stroke-width="1" stroke-opacity="1" stroke="#2e03e5" d="M3.523,-0.868C3.232,-2.636,-2.836,-4.826,-3.882,-0.243C-4.929,4.34,2.596,1.599,4.928,-0.558C4.928,-0.558,0.613,3.645,1.969,4.827" /></g><g id="Group 63" transform="matrix(1,0,0,1,21.9,288.552)"><path stroke-linejoin="round" stroke-linecap="round" stroke-width="1" stroke-opacity="1" stroke="#2e03e5" d="M1.908,-1.148C1.908,-1.148,0.072,1.148,-1.908,0.059" /></g><g id="Group 62" transform="matrix(1,0,0,1,31.581,286.748)"><path stroke-linejoin="round" stroke-linecap="round" stroke-width="1" stroke-opacity="1" stroke="#2e03e5" d="M4.395,-7.404L-6.05,3.255C-6.05,3.255,-0.828,-2.074,2.253,-0.381C6.05,1.706,1.126,7.405,-2.933,3.319" /></g><g id="Group 61" transform="matrix(1,0,0,1,36.877,288.822)"><path stroke-linejoin="round" stroke-linecap="round" stroke-width="1" stroke-opacity="1" stroke="#2e03e5" d="M4.381,-6.575C4.381,-6.575,7.146,6.121,-7.146,6.575" /></g><g id="Group 60" transform="matrix(1,0,0,1,244.599,68.735)"><path stroke-linejoin="round" stroke-linecap="round" stroke-width="1" stroke-opacity="1" stroke="#2e03e5" d="M-16.782,-2.213L-11.745,-1.384L-11.671,10.068L-0.635,-10.068L16.781,-7.203" /></g><g id="Group 59" transform="matrix(1,0,0,1,249.707,74.246)"><path stroke-linejoin="round" stroke-linecap="round" stroke-width="1" stroke-opacity="1" stroke="#2e03e5" d="M-3.831,-6.761L3.831,6.761" /></g><g id="Group 58" transform="matrix(1,0,0,1,248.648,74.071)"><path stroke-linejoin="round" stroke-linecap="round" stroke-width="1" stroke-opacity="1" stroke="#2e03e5" d="M6.855,-5.003L-6.855,5.003" /></g><g id="Group 57" transform="matrix(1,0,0,1,155.393,91.11)"><path stroke-linejoin="round" stroke-linecap="round" stroke-width="1" stroke-opacity="1" stroke="#2e03e5" d="M3.554,-4.211C2.264,-5.853,-5.163,-4.685,-3.658,0.584C-2.154,5.853,3.992,-1.172,5.163,-4.685C5.163,-4.685,3.114,2.032,5.163,2.479" /></g><g id="Group 56" transform="matrix(1,0,0,1,165.015,84.5)"><path stroke-linejoin="round" stroke-linecap="round" stroke-width="1" stroke-opacity="1" stroke="#2e03e5" d="M-0.376,-3.008L-2.037,2.934C-2.037,2.934,-1.207,-0.036,0.247,-0.036C2.037,-0.036,1.388,3.008,-0.895,2.336" /></g><g id="Group 55" transform="matrix(1,0,0,1,305.039,164.725)"><path stroke-linejoin="round" stroke-linecap="round" stroke-width="1" stroke-opacity="1" stroke="#2e03e5" d="M-0.325,-10.511L-3.829,2.139L3.829,10.511" /></g><g id="Group 54" transform="matrix(1,0,0,1,313.477,163.019)"><path stroke-linejoin="round" stroke-linecap="round" stroke-width="1" stroke-opacity="1" stroke="#2e03e5" d="M-4.383,-3.665L4.383,3.665" /></g><g id="Group 53" transform="matrix(1,0,0,1,313.233,162.202)"><path stroke-linejoin="round" stroke-linecap="round" stroke-width="1" stroke-opacity="1" stroke="#2e03e5" d="M1.896,-4.654L-1.896,4.654" /></g><g id="Group 52" transform="matrix(1,0,0,1,320.794,167.15)"><path stroke-linejoin="round" stroke-linecap="round" stroke-width="1" stroke-opacity="1" stroke="#2e03e5" d="M0.492,-1.492C0.492,-1.492,0.571,1.151,-0.57,1.492" /></g><g id="Group 51" transform="matrix(1,0,0,1,325.042,158.405)"><path stroke-linejoin="round" stroke-linecap="round" stroke-width="1" stroke-opacity="1" stroke="#2e03e5" d="M-2.641,-1.965L2.641,1.965" /></g><g id="Group 50" transform="matrix(1,0,0,1,327.038,162.606)"><path stroke-linejoin="round" stroke-linecap="round" stroke-width="1" stroke-opacity="1" stroke="#2e03e5" d="M2.612,-9.399L-2.612,9.399" /></g><g id="Group 49" transform="matrix(1,0,0,1,334.143,156.731)"><path stroke-linejoin="round" stroke-linecap="round" stroke-width="1" stroke-opacity="1" stroke="#2e03e5" d="M-4.241,-10.049L4.241,-0.45L0.627,10.049" /></g><g id="Group 48" transform="matrix(1,0,0,1,109.939,376.14)"><path stroke-linejoin="round" stroke-linecap="round" stroke-width="1" stroke-opacity="1" stroke="#2e03e5" d="M-13.573,18.258L-1.308,-18.259L13.573,-1.652L-13.573,18.258Z" /></g><g id="Group 47" transform="matrix(1,0,0,1,118.401,373.913)"><path stroke-linejoin="round" stroke-linecap="round" stroke-width="1" stroke-opacity="1" stroke="#2e03e5" d="M1.468,3.247L-1.673,-0.347L1.673,-3.247" /></g><g id="Group 46" transform="matrix(1,0,0,1,19.056,177.677)"><path stroke-linejoin="round" stroke-linecap="round" stroke-width="1" stroke-opacity="1" stroke="#2e03e5" d="M12.494,-0.001C12.494,6.899,6.9,12.495,0,12.495C-6.901,12.495,-12.494,6.899,-12.494,-0.001C-12.494,-6.901,-6.901,-12.495,0,-12.495C6.9,-12.495,12.494,-6.901,12.494,-0.001Z" /></g><g id="Group 45" transform="matrix(1,0,0,1,32.919,166.741)"><path stroke-linejoin="round" stroke-linecap="round" stroke-width="1" stroke-opacity="1" stroke="#2e03e5" d="M13.864,0C13.864,7.657,7.657,13.864,0,13.864C-7.657,13.864,-13.864,7.657,-13.864,0C-13.864,-7.657,-7.657,-13.864,0,-13.864C7.657,-13.864,13.864,-7.657,13.864,0Z" /></g><g id="Group 44" transform="matrix(1,0,0,1,20.671,168.364)"><path stroke-linejoin="round" stroke-linecap="round" stroke-width="1" stroke-opacity="1" stroke="#2e03e5" d="M0.845,-2.939L-0.845,2.939" /></g><g id="Group 43" transform="matrix(1,0,0,1,22.713,170.391)"><path stroke-linejoin="round" stroke-linecap="round" stroke-width="1" stroke-opacity="1" stroke="#2e03e5" d="M1.198,-4.231L-1.198,4.231" /></g><g id="Group 42" transform="matrix(1,0,0,1,25.161,172.363)"><path stroke-linejoin="round" stroke-linecap="round" stroke-width="1" stroke-opacity="1" stroke="#2e03e5" d="M1.251,-4.784L-1.251,4.784" /></g><g id="Group 41" transform="matrix(1,0,0,1,28.311,174.93)"><path stroke-linejoin="round" stroke-linecap="round" stroke-width="1" stroke-opacity="1" stroke="#2e03e5" d="M0.893,-4.539L-0.893,4.539" /></g><g id="Group 40" transform="matrix(1,0,0,1,29.991,176.723)"><path stroke-linejoin="round" stroke-linecap="round" stroke-width="1" stroke-opacity="1" stroke="#2e03e5" d="M0.788,-3.374L-0.788,3.374" /></g><g id="Group 39" transform="matrix(1,0,0,1,6.484,164.476)"><path stroke-linejoin="round" stroke-linecap="round" stroke-width="1" stroke-opacity="1" stroke="#2e03e5" d="M0.636,-2.802C-0.458,-3.141,-3.446,-0.301,-1.125,1.608C1.195,3.517,1.781,-1.568,1.215,-3.517C1.215,-3.517,2.382,0.152,3.446,-0.284" /></g><g id="Group 38" transform="matrix(1,0,0,1,26.909,149.277)"><path stroke-linejoin="round" stroke-linecap="round" stroke-width="1" stroke-opacity="1" stroke="#2e03e5" d="M-3.672,-3.642L0.302,3.642C0.302,3.642,-1.685,0.001,-0.285,-1.363C1.441,-3.043,3.672,0.498,0.841,1.993" /></g><g id="Group 37" transform="matrix(1,0,0,1,99.151,147.445)"><path stroke-linejoin="round" stroke-linecap="round" stroke-width="1" stroke-opacity="1" stroke="#2e03e5" d="M-2.825,-2.673L2.825,2.673" /></g><g id="Group 36" transform="matrix(1,0,0,1,99.61,146.909)"><path stroke-linejoin="round" stroke-linecap="round" stroke-width="1" stroke-opacity="1" stroke="#2e03e5" d="M2.366,-3.534L-2.366,3.534" /></g><g id="Group 35" transform="matrix(1,0,0,1,110.358,144.354)"><path stroke-linejoin="round" stroke-linecap="round" stroke-width="1" stroke-opacity="1" stroke="#2e03e5" d="M-2.826,1.05L2.826,-1.05" /></g><g id="Group 34" transform="matrix(1,0,0,1,117.613,138.932)"><path stroke-linejoin="round" stroke-linecap="round" stroke-width="1" stroke-opacity="1" stroke="#2e03e5" d="M-1.718,-1.521L1.718,1.521" /></g><g id="Group 33" transform="matrix(1,0,0,1,119.789,141.223)"><path stroke-linejoin="round" stroke-linecap="round" stroke-width="1" stroke-opacity="1" stroke="#2e03e5" d="M2.176,-7.469L-2.176,7.469" /></g><g id="Group 32" transform="matrix(1,0,0,1,374.583,126.796)"><path stroke-linejoin="round" stroke-linecap="round" stroke-width="1" stroke-opacity="1" stroke="#2e03e5" d="M-5.662,3.952L-5.894,-7.464L2.734,-7.464C2.734,-7.464,-2.047,-4.83,0.148,1.317C2.343,7.464,5.894,3.952,5.894,3.952" /></g><g id="Group 31" transform="matrix(1,0,0,1,366.121,330.909)"><path stroke-linejoin="round" stroke-linecap="round" stroke-width="1" stroke-opacity="1" stroke="#2e03e5" d="M-11.817,-5.353L-1.999,-12.108L11.004,-11.197L11.817,5.285L2.272,12.108L-9.505,11.251L-11.817,-5.353Z" /></g><g id="Group 30" transform="matrix(1,0,0,1,367.277,338.737)"><path stroke-linejoin="round" stroke-linecap="round" stroke-width="1" stroke-opacity="1" stroke="#2e03e5" d="M-10.661,3.423L-1.156,-3.422L10.661,-2.543" /></g><g id="Group 29" transform="matrix(1,0,0,1,365.122,327.057)"><path stroke-linejoin="round" stroke-linecap="round" stroke-width="1" stroke-opacity="1" stroke="#2e03e5" d="M0.999,8.258L-0.999,-8.258" /></g><g id="Group 28" transform="matrix(1,0,0,1,365.715,323.385)"><path stroke-linejoin="round" stroke-linecap="round" stroke-width="1" stroke-opacity="1" stroke="#2e03e5" d="M-11.41,2.171L1.564,3.673L11.41,-3.673" /></g><g id="Group 27" transform="matrix(1,0,0,1,367.836,335.038)"><path stroke-linejoin="round" stroke-linecap="round" stroke-width="1" stroke-opacity="1" stroke="#2e03e5" d="M-0.557,-7.979L0.557,7.979" /></g><g id="Group 26" transform="matrix(1,0,0,1,365.3,212.765)"><path stroke-linejoin="round" stroke-linecap="round" stroke-width="1" stroke-opacity="1" stroke="#2e03e5" d="M-9.208,-10.989L-9.626,10.989L9.626,2.243L-9.208,-10.989Z" /></g><g id="Group 25" transform="matrix(1,0,0,1,360.678,210.521)"><path stroke-linejoin="round" stroke-linecap="round" stroke-width="1" stroke-opacity="1" stroke="#2e03e5" d="M-4.587,-8.744L4.587,8.744" /></g><g id="Group 24" transform="matrix(1,0,0,1,365.659,216.877)"><path stroke-linejoin="round" stroke-linecap="round" stroke-width="1" stroke-opacity="1" stroke="#2e03e5" d="M-1.865,-0.416L0.37,-1.493L1.865,1.493" /></g><g id="Group 23" transform="matrix(1,0,0,1,192.235,203.962)"><path stroke-linejoin="round" stroke-linecap="round" stroke-width="1" stroke-opacity="1" stroke="#2e03e5" d="M-3.98,-4.266L3.98,4.266" /></g><g id="Group 22" transform="matrix(1,0,0,1,192.934,203.128)"><path stroke-linejoin="round" stroke-linecap="round" stroke-width="1" stroke-opacity="1" stroke="#2e03e5" d="M3.344,-4.579L-3.345,4.579" /></g><g id="Group 21" transform="matrix(1,0,0,1,201.263,196.529)"><path stroke-linejoin="round" stroke-linecap="round" stroke-width="1" stroke-opacity="1" stroke="#2e03e5" d="M-1.73,-2.447C-1.73,-2.447,0.123,-3.167,0.513,-1.248C0.903,0.67,-2.248,3.167,-2.248,3.167L2.247,3.167" /></g><g id="Group 20" transform="matrix(1,0,0,1,71.945,60.26)"><path stroke-linejoin="round" stroke-linecap="round" stroke-width="1" stroke-opacity="1" stroke="#2e03e5" d="M-7.624,11.632C-6.809,1.418,-0.789,-7.136,7.624,-11.632" /></g><g id="Group 19" transform="matrix(1,0,0,1,77.614,96.087)"><path stroke-linejoin="round" stroke-linecap="round" stroke-width="1" stroke-opacity="1" stroke="#2e03e5" d="M8.826,6.287C1.377,4.509,-4.873,-0.111,-8.826,-6.287" /></g><g id="Group 18" transform="matrix(1,0,0,1,106.491,90.428)"><path stroke-linejoin="round" stroke-linecap="round" stroke-width="1" stroke-opacity="1" stroke="#2e03e5" d="M15.594,-13.925C14.321,2.026,0.356,13.924,-15.594,12.65" /></g><g id="Group 17" transform="matrix(1,0,0,1,108.711,57.787)"><path stroke-linejoin="round" stroke-linecap="round" stroke-width="1" stroke-opacity="1" stroke="#2e03e5" d="M-13.202,-12.472C0.623,-11.368,11.404,-0.73,13.202,12.472" /></g><g id="Group 16" transform="matrix(1,0,0,1,86.15,86.13)"><path stroke-linejoin="round" stroke-linecap="round" stroke-width="1" stroke-opacity="1" stroke="#2e03e5" d="M19.551,10.368C15.278,12.767,10.27,13.967,5.019,13.547C-9.054,12.424,-19.551,0.105,-18.428,-13.967" /></g><g id="Group 15" transform="matrix(1,0,0,1,94.577,69.506)"><path stroke-linejoin="round" stroke-linecap="round" stroke-width="1" stroke-opacity="1" stroke="#2e03e5" d="M-25.23,-4.508C-21.266,-14.8,-10.894,-21.712,0.661,-20.79C14.733,-19.666,25.23,-7.347,24.107,6.725C23.645,12.512,21.29,17.694,17.698,21.712" /></g><g id="Group 14" transform="matrix(1,0,0,1,99.021,65)"><path stroke-linejoin="round" stroke-linecap="round" stroke-width="1" stroke-opacity="1" stroke="#2e03e5" d="M-8.327,-9.198L-5.818,9.198L8.327,4.802" /></g><g id="Group 13" transform="matrix(1,0,0,1,302.751,92.549)"><path stroke-linejoin="round" stroke-linecap="round" stroke-width="1" stroke-opacity="1" stroke="#2e03e5" d="M10.933,17.41C2.59,17.489,-5.25,12.318,-8.174,4.01C-10.933,-3.826,-8.536,-12.227,-2.756,-17.49" /></g><g id="Group 12" transform="matrix(1,0,0,1,326.317,102.593)"><path stroke-linejoin="round" stroke-linecap="round" stroke-width="1" stroke-opacity="1" stroke="#2e03e5" d="M6.162,-6.223C4.244,-0.61,-0.133,4.101,-6.162,6.223" /></g><g id="Group 11" transform="matrix(1,0,0,1,319.623,75.27)"><path stroke-linejoin="round" stroke-linecap="round" stroke-width="1" stroke-opacity="1" stroke="#2e03e5" d="M-12.789,-4.29C-2.341,-7.968,9.111,-2.48,12.789,7.968" /></g><g id="Group 10" transform="matrix(1,0,0,1,316.916,92.128)"><path stroke-linejoin="round" stroke-linecap="round" stroke-width="1" stroke-opacity="1" stroke="#2e03e5" d="M6.482,-16.895C9.524,-14.844,11.957,-11.832,13.268,-8.105C16.513,1.113,11.672,11.216,2.455,14.461C-4.458,16.895,-11.871,14.78,-16.513,9.682" /></g><g id="Group 9" transform="matrix(1,0,0,1,305.757,83.843)"><path stroke-linejoin="round" stroke-linecap="round" stroke-width="1" stroke-opacity="1" stroke="#2e03e5" d="M-8.952,11.931C-12.197,2.713,-7.355,-7.389,1.862,-10.634C5.319,-11.851,8.901,-11.931,12.198,-11.069" /></g><g id="Group 8" transform="matrix(1,0,0,1,310.115,88.431)"><path stroke-linejoin="round" stroke-linecap="round" stroke-width="1" stroke-opacity="1" stroke="#2e03e5" d="M-3.379,-9.464L3.379,1.467L-2.78,9.464" /></g><g id="Group 7" transform="matrix(1,0,0,1,175.287,382.158)"><path stroke-linejoin="round" stroke-linecap="round" stroke-width="1" stroke-opacity="1" stroke="#2e03e5" d="M-3.533,6.66C-3.533,1.119,-0.731,-3.768,3.533,-6.66" /></g><g id="Group 6" transform="matrix(1,0,0,1,186.053,399.451)"><path stroke-linejoin="round" stroke-linecap="round" stroke-width="1" stroke-opacity="1" stroke="#2e03e5" d="M13.445,0.448C10.515,3.53,6.375,5.451,1.786,5.451C-5.284,5.451,-11.29,0.888,-13.446,-5.452" /></g><g id="Group 5" transform="matrix(1,0,0,1,195.882,380.775)"><path stroke-linejoin="round" stroke-linecap="round" stroke-width="1" stroke-opacity="1" stroke="#2e03e5" d="M-8.042,-8.042C0.842,-8.042,8.042,-0.841,8.042,8.043" /></g><g id="Group 4" transform="matrix(1,0,0,1,180.744,395.914)"><path stroke-linejoin="round" stroke-linecap="round" stroke-width="1" stroke-opacity="1" stroke="#2e03e5" d="M7.096,7.095C-0.742,7.095,-7.096,0.741,-7.096,-7.096" /></g><g id="Group 3" transform="matrix(1,0,0,1,189.41,387.923)"><path stroke-linejoin="round" stroke-linecap="round" stroke-width="1" stroke-opacity="1" stroke="#2e03e5" d="M-12.621,-8.009C-10.02,-11.234,-6.036,-13.296,-1.57,-13.296C6.267,-13.296,12.621,-6.943,12.621,0.895C12.621,6.226,9.681,10.872,5.334,13.297" /></g><g id="Group 2" transform="matrix(1,0,0,1,186.301,389.699)"><path stroke-linejoin="round" stroke-linecap="round" stroke-width="1" stroke-opacity="1" stroke="#2e03e5" d="M-0.663,8.764L1.538,-0.882L-1.538,-8.764" /></g></g></g></g></g><g id="Clocks Outlines 2"><g transform="translate(250,238.531)"><g transform="scale(0.9,0.9)"><animateTransform repeatCount="indefinite" type="scale" attributeName="transform" dur="3.233s" begin="0.933s" calcMode="spline" values="0.9 0.9; 0.94 0.94; 0.9 0.9" keyTimes="0; 0.443; 1" keySplines="0.333 0 0.667 1; 0.333 0 0.667 1" fill="freeze" /><g transform="translate(-202.786,-218.92)"><g transform="matrix(1.111,0,0,1.111,14.812,158.921)" id="Exam sheets" /></g></g></g></g><g transform="matrix(1,0,0,1,246.105,135.211)" id="Bubble Outlines"><g id="Group 5" transform="matrix(1,0,0,1,35.211,39.477)"><path fill="#d9e0e6" fill-opacity="1" d="M25.831,-36.977L-25.831,-36.977C-29.631,-36.977,-32.712,-33.895,-32.712,-30.096L-32.712,14.281C-32.712,18.081,-29.631,21.161,-25.831,21.161L-2.932,21.161L10.184,36.977L6.896,21.161L25.831,21.161C29.632,21.161,32.712,18.081,32.712,14.281L32.712,-30.096C32.712,-33.895,29.632,-36.977,25.831,-36.977Z" /></g><g id="Group 4" transform="matrix(1,0,0,1,35.211,39.477)"><path stroke-linejoin="round" stroke-linecap="round" stroke-width="1" stroke-opacity="1" stroke="#2e03e5" d="M25.831,-36.977L-25.831,-36.977C-29.631,-36.977,-32.712,-33.895,-32.712,-30.096L-32.712,14.281C-32.712,18.081,-29.631,21.161,-25.831,21.161L-2.932,21.161L10.184,36.977L6.896,21.161L25.831,21.161C29.632,21.161,32.712,18.081,32.712,14.281L32.712,-30.096C32.712,-33.895,29.632,-36.977,25.831,-36.977Z" /></g><g><g transform="translate(26.435,24.512)"><g id="Group 3" transform="rotate(0)"><animateTransform repeatCount="indefinite" type="rotate" attributeName="transform" dur="3.233s" begin="0.933s" calcMode="spline" values="0; 360" keyTimes="0; 1" keySplines="0 0 1 1" fill="freeze" /><path fill="#00ddb3" fill-opacity="1" d="M0,5.461C-3.016,5.461,-5.461,3.016,-5.461,0C-5.461,-3.017,-3.016,-5.461,0,-5.461C3.017,-5.461,5.462,-3.017,5.462,0C5.462,3.016,3.017,5.461,0,5.461ZM12.906,2.35L12.906,-2.35L9.386,-2.654C9.176,-3.396,8.885,-4.103,8.516,-4.763L10.788,-7.465L7.465,-10.789L4.764,-8.516C4.104,-8.886,3.396,-9.176,2.653,-9.385L2.351,-12.906L-2.35,-12.906L-2.653,-9.385C-3.396,-9.176,-4.104,-8.886,-4.763,-8.516L-7.464,-10.789L-10.788,-7.465L-8.515,-4.763C-8.885,-4.103,-9.176,-3.397,-9.386,-2.654L-12.906,-2.35L-12.906,2.35L-9.386,2.654C-9.176,3.397,-8.885,4.103,-8.515,4.763L-10.788,7.465L-7.464,10.788L-4.763,8.516C-4.104,8.885,-3.396,9.175,-2.653,9.385L-2.35,12.906L2.351,12.906L2.653,9.385C3.396,9.175,4.104,8.885,4.764,8.516L7.465,10.788L10.788,7.465L8.516,4.763C8.885,4.103,9.176,3.397,9.386,2.654L12.906,2.35Z" /></g></g></g><g><g transform="translate(45.709,35.681)"><g id="Group 2" transform="rotate(0)"><animateTransform repeatCount="indefinite" type="rotate" attributeName="transform" dur="3.233s" begin="0.933s" calcMode="spline" values="0; -360" keyTimes="0; 1" keySplines="0 0 1 1" fill="freeze" /><path fill="#00ddb3" fill-opacity="1" d="M0,3.886C-2.146,3.886,-3.887,2.146,-3.887,-0.001C-3.887,-2.147,-2.146,-3.887,0,-3.887C2.146,-3.887,3.887,-2.147,3.887,-0.001C3.887,2.146,2.146,3.886,0,3.886ZM9.185,1.672L9.185,-1.673L6.678,-1.888C6.528,-2.417,6.322,-2.92,6.06,-3.389L7.676,-5.312L5.311,-7.677L3.389,-6.06C2.919,-6.323,2.416,-6.529,1.888,-6.678L1.672,-9.184L-1.673,-9.184L-1.888,-6.678C-2.416,-6.529,-2.92,-6.323,-3.389,-6.06L-5.313,-7.677L-7.677,-5.312L-6.061,-3.389C-6.323,-2.92,-6.53,-2.417,-6.68,-1.888L-9.185,-1.673L-9.185,1.672L-6.68,1.887C-6.53,2.416,-6.323,2.92,-6.061,3.389L-7.677,5.311L-5.313,7.676L-3.391,6.059C-2.921,6.322,-2.416,6.529,-1.888,6.678L-1.673,9.184L1.672,9.184L1.888,6.678C2.416,6.529,2.919,6.322,3.389,6.059L5.311,7.676L7.676,5.311L6.06,3.389C6.322,2.92,6.528,2.416,6.678,1.887L9.185,1.672Z" /></g></g></g><g><g transform="translate(31.998,43.954)"><g id="Group 1" transform="rotate(0)"><animateTransform repeatCount="indefinite" type="rotate" attributeName="transform" dur="3.233s" begin="0.933s" calcMode="spline" values="0; -360" keyTimes="0; 1" keySplines="0 0 1 1" fill="freeze" /><path fill="#00ddb3" fill-opacity="1" d="M0,2.765C-1.527,2.765,-2.766,1.527,-2.766,-0.001C-2.766,-1.528,-1.527,-2.765,0,-2.765C1.527,-2.765,2.766,-1.528,2.766,-0.001C2.766,1.527,1.527,2.765,0,2.765ZM6.535,1.189L6.535,-1.191L4.752,-1.343C4.646,-1.719,4.499,-2.077,4.312,-2.411L5.462,-3.779L3.779,-5.463L2.411,-4.312C2.077,-4.5,1.72,-4.646,1.343,-4.752L1.189,-6.536L-1.19,-6.536L-1.344,-4.752C-1.72,-4.646,-2.078,-4.5,-2.412,-4.312L-3.78,-5.463L-5.463,-3.779L-4.312,-2.411C-4.499,-2.077,-4.646,-1.719,-4.753,-1.343L-6.535,-1.191L-6.535,1.189L-4.753,1.343C-4.646,1.719,-4.499,2.079,-4.312,2.412L-5.463,3.779L-3.78,5.463L-2.412,4.312C-2.078,4.499,-1.72,4.647,-1.344,4.753L-1.19,6.536L1.189,6.536L1.343,4.753C1.72,4.647,2.078,4.499,2.411,4.312L3.779,5.463L5.462,3.779L4.312,2.412C4.499,2.079,4.646,1.719,4.752,1.343L6.535,1.189Z" /></g></g></g></g><g id="Layer 10 Outlines"><g transform="translate(310.059,273.789)"><g transform="rotate(0)"><animateTransform repeatCount="indefinite" type="rotate" attributeName="transform" dur="3.233s" begin="0.933s" calcMode="spline" values="0; -4; 6; 0" keyTimes="0; 0.247; 0.66; 1" keySplines="0 0 1 1; 0 0 1 1; 0 0 1 1" fill="freeze" /><g transform="scale(1,1) translate(-47.438,-12.71)"><g id="Group 8" transform="matrix(1,0,0,1,25.659,29.076)"><path fill="#d9e0e6" fill-opacity="1" d="M-18.765,13.559C-23.159,12.801,8.093,-14.594,8.093,-14.594L23.16,-4.452C23.16,-4.452,-2.484,13.605,-6.511,14.099C-10.539,14.594,-18.765,13.559,-18.765,13.559Z" /></g><g id="Group 5" transform="matrix(1,0,0,1,39.544,18.332)"><path fill="#00ddb3" fill-opacity="1" d="M4.001,-15.832C0.063,-13.086,-17.582,5.06,-17.582,5.06C-17.582,5.06,-9.312,14.465,-2.065,15.832L17.582,6.293L4.001,-15.832Z" /></g><g id="Group 4" transform="matrix(1,0,0,1,39.544,18.332)"><path stroke-linejoin="round" stroke-linecap="round" stroke-width="1" stroke-opacity="1" stroke="#2e03e5" d="M4.001,-15.832C0.063,-13.086,-17.582,5.06,-17.582,5.06C-17.582,5.06,-9.312,14.465,-2.065,15.832L17.582,6.293L4.001,-15.832Z" /></g><g id="Group 1" transform="matrix(1,0,0,1,46.181,22.47)"><path stroke-linejoin="round" stroke-linecap="round" stroke-width="1" stroke-opacity="1" stroke="#2e03e5" d="M-4.252,-2.154C-4.252,-2.154,-0.991,0.791,4.252,2.154" /></g></g></g></g></g><g transform="matrix(1,0,0,1,248.857,207.405)" id="Character Outlines"><g id="Group 70" transform="matrix(1,0,0,1,54.227,175.254)"><path stroke-linejoin="round" stroke-linecap="round" stroke-width="1" stroke-opacity="1" stroke="#2e03e5" fill="#757575" fill-opacity="1" d="M-23.149,-74.291L17.126,74.292L23.149,74.292L-17.127,-74.291L-23.149,-74.291Z" /></g><g id="Group 69" transform="matrix(1,0,0,1,83.615,210.531)"><path stroke-linejoin="round" stroke-linecap="round" stroke-width="1" stroke-opacity="1" stroke="#2e03e5" fill="#a1adb7" fill-opacity="1" d="M38.176,3.108L-38.176,3.108L-38.176,-3.108L38.176,-3.108L38.176,3.108Z" /></g><g id="Group 68" transform="matrix(1,0,0,1,99.329,149.575)"><path fill="#757575" fill-opacity="1" d="M63.191,-81.99L13.869,99.97L7.845,99.97L57.168,-81.99C58.987,-88.701,54.815,-94.156,47.864,-94.156L5.362,-94.156C-1.578,-94.156,-8.718,-88.701,-10.538,-81.99L-59.86,99.97L-65.883,99.97L-16.561,-81.99C-13.869,-91.923,-3.35,-99.97,6.938,-99.97L49.44,-99.97C59.728,-99.97,65.883,-91.923,63.191,-81.99Z" /></g><g id="Group 67" transform="matrix(1,0,0,1,99.329,149.575)"><path stroke-linejoin="round" stroke-linecap="round" stroke-width="1" stroke-opacity="1" stroke="#2e03e5" d="M63.191,-81.99L13.869,99.97L7.845,99.97L57.168,-81.99C58.987,-88.701,54.815,-94.156,47.864,-94.156L5.362,-94.156C-1.578,-94.156,-8.718,-88.701,-10.538,-81.99L-59.86,99.97L-65.883,99.97L-16.561,-81.99C-13.869,-91.923,-3.35,-99.97,6.938,-99.97L49.44,-99.97C59.728,-99.97,65.883,-91.923,63.191,-81.99Z" /></g><g id="Group 66" transform="matrix(1,0,0,1,115.273,90.235)"><path fill="#00ddb3" fill-opacity="1" d="M48.03,-22.59L35.79,22.59C34.78,26.319,30.83,29.34,26.969,29.34L-42.87,29.34C-46.73,29.34,-49.04,26.319,-48.031,22.59L-35.781,-22.59C-34.77,-26.31,-30.821,-29.34,-26.96,-29.34L42.87,-29.34C46.73,-29.34,49.04,-26.31,48.03,-22.59Z" /></g><g id="Group 65" transform="matrix(1,0,0,1,115.273,90.235)"><path fill="#757575" fill-opacity="1" d="M48.03,-22.59L35.79,22.591C34.78,26.32,30.83,29.341,26.969,29.341L-42.87,29.341C-46.73,29.341,-49.04,26.32,-48.031,22.591L-35.781,-22.59C-34.77,-26.31,-30.821,-29.34,-26.96,-29.34L9.15,-29.34C24.759,-13.31,22.77,16.15,21.75,25.051C24.95,24.29,27.87,21.66,28.719,18.53L40.969,-26.65C41.23,-27.61,41.27,-28.52,41.12,-29.34L42.87,-29.34C46.73,-29.34,49.04,-26.31,48.03,-22.59Z" /></g><g id="Group 64" transform="matrix(1,0,0,1,115.273,90.235)"><path stroke-linejoin="round" stroke-linecap="round" stroke-width="1" stroke-opacity="1" stroke="#2e03e5" d="M48.03,-22.59L35.79,22.59C34.78,26.319,30.83,29.34,26.969,29.34L-42.87,29.34C-46.73,29.34,-49.04,26.319,-48.031,22.59L-35.781,-22.59C-34.77,-26.31,-30.821,-29.34,-26.96,-29.34L42.87,-29.34C46.73,-29.34,49.04,-26.31,48.03,-22.59Z" /></g><g id="Group 63" transform="matrix(1,0,0,1,136.676,207.423)"><path fill="#757575" fill-opacity="1" d="M-14.429,-42.121L8.406,42.122L14.429,42.122L-8.406,-42.121L-14.429,-42.121Z" /></g><g id="Group 62" transform="matrix(1,0,0,1,136.676,207.423)"><path stroke-linejoin="round" stroke-linecap="round" stroke-width="1" stroke-opacity="1" stroke="#2e03e5" d="M-14.429,-42.121L8.406,42.122L14.429,42.122L-8.406,-42.121L-14.429,-42.121Z" /></g><g id="Group 61" transform="matrix(1,0,0,1,83.333,156.725)"><path fill="#00ddb3" fill-opacity="1" d="M44.96,-1.09L44.96,7.15L-44.96,7.15L-44.96,-1.09C-44.96,-4.44,-42.25,-7.15,-38.9,-7.15L38.89,-7.15C41.689,-7.15,44.05,-5.26,44.75,-2.68C44.89,-2.18,44.96,-1.64,44.96,-1.09Z" /></g><g id="Group 60" transform="matrix(1,0,0,1,83.228,156.725)"><path fill="#000000" fill-opacity="1" d="M44.855,-2.68C41.945,0.74,36.724,4.219,27.745,7.15L-44.855,7.15L-44.855,-1.09C-44.855,-4.44,-42.145,-7.15,-38.795,-7.15L38.995,-7.15C41.794,-7.15,44.155,-5.26,44.855,-2.68Z" /></g><g id="Group 59" transform="matrix(1,0,0,1,83.333,156.725)"><path stroke-linejoin="round" stroke-linecap="round" stroke-width="1" stroke-opacity="1" stroke="#2e03e5" d="M44.96,-1.09L44.96,7.15L-44.96,7.15L-44.96,-1.09C-44.96,-4.44,-42.25,-7.15,-38.9,-7.15L38.89,-7.15C41.689,-7.15,44.05,-5.26,44.75,-2.68C44.89,-2.18,44.96,-1.64,44.96,-1.09Z" /></g><g id="Group 58" transform="matrix(1,0,0,1,83.725,165.216)"><path fill="#a1adb7" fill-opacity="1" d="M47.624,3.865L-47.624,3.865C-48.565,3.865,-49.329,3.102,-49.329,2.16L-49.329,-2.16C-49.329,-3.103,-48.565,-3.865,-47.624,-3.865L47.624,-3.865C48.566,-3.865,49.329,-3.103,49.329,-2.16L49.329,2.16C49.329,3.102,48.566,3.865,47.624,3.865Z" /></g><g id="Group 57" transform="matrix(1,0,0,1,83.725,165.216)"><path stroke-linejoin="round" stroke-linecap="round" stroke-width="1" stroke-opacity="1" stroke="#2e03e5" d="M47.624,3.865L-47.624,3.865C-48.565,3.865,-49.329,3.102,-49.329,2.16L-49.329,-2.16C-49.329,-3.103,-48.565,-3.865,-47.624,-3.865L47.624,-3.865C48.566,-3.865,49.329,-3.103,49.329,-2.16L49.329,2.16C49.329,3.102,48.566,3.865,47.624,3.865Z" /></g><g id="Group 56" transform="matrix(1,0,0,1,54.768,175.7)"><path fill="#2e03e5" fill-opacity="1" d="M-19.315,-14.065C-23.625,-9.675,-2.736,59.305,-2.736,59.305C-5.015,61.285,-8.376,62.225,-11.555,62.645C-16.156,63.255,-20.366,62.775,-20.366,62.775C-20.366,62.775,-50.304,-9.845,-42.065,-27.865C-33.825,-45.885,17.305,-54.135,17.305,-54.135L19.486,-59.535L45.935,-63.255L50.305,-30.865C50.305,-30.865,45.965,-30.445,39.435,-29.605C21.925,-27.355,-11.394,-22.125,-19.315,-14.065Z" /></g><g id="Group 55" transform="matrix(1,0,0,1,60.589,182.675)"><path fill="#000000" fill-opacity="1" d="M-8.556,52.33C-10.835,54.309,-14.196,55.25,-17.375,55.67C-23.186,34.07,-37.976,-23.57,-32.366,-30.62C-25.455,-39.32,8.745,-47.231,8.745,-47.231C8.884,-51.67,20.875,-55.67,20.875,-55.67L33.614,-36.58C16.104,-34.33,-17.215,-29.1,-25.136,-21.04C-29.446,-16.65,-8.556,52.33,-8.556,52.33Z" /></g><g id="Group 54" transform="matrix(1,0,0,1,54.768,175.7)"><path stroke-linejoin="round" stroke-linecap="round" stroke-width="1" stroke-opacity="1" stroke="#2e03e5" d="M-19.315,-14.065C-23.625,-9.675,-2.736,59.305,-2.736,59.305C-5.015,61.285,-8.376,62.225,-11.555,62.645C-16.156,63.255,-20.366,62.775,-20.366,62.775C-20.366,62.775,-50.304,-9.845,-42.065,-27.865C-33.825,-45.885,17.305,-54.135,17.305,-54.135L19.486,-59.535L45.935,-63.255L50.305,-30.865C50.305,-30.865,45.965,-30.445,39.435,-29.605C21.925,-27.355,-11.394,-22.125,-19.315,-14.065Z" /></g><g id="Group 53" transform="matrix(1,0,0,1,38.022,241.43)"><path fill="#00ddb3" fill-opacity="1" d="M9.791,-13.747L18.099,8.115C18.099,8.115,19.483,13.747,-5.637,11.967L-19.483,10.78L9.791,-13.747Z" /></g><g id="Group 52" transform="matrix(1,0,0,1,37.337,240.714)"><path fill="#000000" fill-opacity="1" d="M10.476,-13.031L18.784,8.831C18.784,8.831,20.168,14.463,-4.952,12.683L-18.798,11.496L10.476,-13.031Z" /></g><g id="Group 51" transform="matrix(1,0,0,1,38.022,241.43)"><path stroke-linejoin="round" stroke-linecap="round" stroke-width="1" stroke-opacity="1" stroke="#2e03e5" d="M9.791,-13.747L18.099,8.115C18.099,8.115,19.483,13.747,-5.637,11.967L-19.483,10.78L9.791,-13.747Z" /></g><g id="Group 50" transform="matrix(1,0,0,1,24.464,243.012)"><path fill="#00ddb3" fill-opacity="1" d="M20.185,-4.846C20.185,-4.846,21.965,3.66,20.185,9.989C20.185,9.989,-6.322,14.143,-12.256,12.56C-18.19,10.978,-21.785,8.021,-21.965,6.533C-21.965,6.533,-21.751,2.472,-15.816,1.286C-9.882,0.099,1.943,-0.692,6.613,-7.417C11.283,-14.143,20.185,-4.846,20.185,-4.846Z" /></g><g id="Group 49" transform="matrix(1,0,0,1,24.464,243.012)"><path stroke-linejoin="round" stroke-linecap="round" stroke-width="1" stroke-opacity="1" stroke="#2e03e5" d="M20.185,-4.846C20.185,-4.846,21.965,3.66,20.185,9.989C20.185,9.989,-6.322,14.143,-12.256,12.56C-18.19,10.978,-21.785,8.021,-21.965,6.533C-21.965,6.533,-21.751,2.472,-15.816,1.286C-9.882,0.099,1.943,-0.692,6.613,-7.417C11.283,-14.143,20.185,-4.846,20.185,-4.846Z" /></g><g id="Group 48" transform="matrix(1,0,0,1,77.919,173.878)"><path fill="#2e03e5" fill-opacity="1" d="M1.714,-58.559C10.186,-70.642,49.12,-56.102,49.12,-56.102C49.12,-56.102,52.836,-27.021,37.327,-19.266C21.818,-11.511,-0.543,-11.924,-6.583,-5.635L-31.165,66.949C-31.165,66.949,-39.992,70.641,-52.836,64.826C-52.836,64.826,-37.226,10.013,-32.648,-9.447C-28.117,-28.702,1.218,-41.777,1.218,-41.777C1.218,-41.777,-1.25,-44.57,-2.16,-47.855" /></g><g id="Group 47" transform="matrix(1,0,0,1,77.919,173.878)"><path stroke-linejoin="round" stroke-linecap="round" stroke-width="1" stroke-opacity="1" stroke="#2e03e5" d="M1.714,-58.559C10.186,-70.642,49.12,-56.102,49.12,-56.102C49.12,-56.102,52.836,-27.021,37.327,-19.266C21.818,-11.511,-0.543,-11.924,-6.583,-5.635L-31.165,66.949C-31.165,66.949,-39.992,70.641,-52.836,64.826C-52.836,64.826,-37.226,10.013,-32.648,-9.447C-28.117,-28.702,1.218,-41.777,1.218,-41.777C1.218,-41.777,-1.25,-44.57,-2.16,-47.855" /></g><g id="Group 46" transform="matrix(1,0,0,1,117.094,144.656)"><path stroke-linejoin="round" stroke-linecap="round" stroke-width="1" stroke-opacity="1" stroke="#d9e0e6" d="M1.965,-1.542C0.718,-0.437,-0.596,0.593,-1.965,1.542" /></g><g id="Group 45" transform="matrix(1,0,0,1,123.445,129.512)"><path stroke-linejoin="round" stroke-linecap="round" stroke-width="1" stroke-opacity="1" stroke="#d9e0e6" d="M-1.198,-11.024C1.977,-4.128,2.226,4.638,-2.227,11.024" /></g><g id="Group 44" transform="matrix(1,0,0,1,118.568,124.882)"><path stroke-linejoin="round" stroke-linecap="round" stroke-width="1" stroke-opacity="1" stroke="#d9e0e6" d="M-5.193,-5.307C-5.193,-5.307,-6.007,0.01,-3.634,2.12C-1.26,4.23,6.007,5.307,6.007,5.307" /></g><g id="Group 43" transform="matrix(1,0,0,1,79.58,123.417)"><path stroke-linejoin="round" stroke-linecap="round" stroke-width="1" stroke-opacity="1" stroke="#d9e0e6" d="M1.87,-3.585C1.87,-3.585,2.203,1.719,0.054,1.465C-2.096,1.211,-2.203,3.585,-2.203,3.585" /></g><g id="Group 42" transform="matrix(1,0,0,1,92.174,85.477)"><path fill="#00ddb3" fill-opacity="1" d="M-34.353,-25.227C-34.678,-26.635,-34.866,-28.008,-34.866,-29.303C-34.866,-29.303,-22.837,-39.42,-7.419,-39.368C10.978,-39.304,22.226,-33.517,26.734,-25.477C33.868,-12.754,34.866,32.299,34.866,32.299C34.866,32.299,-11.298,39.42,-17.923,30.684C-19.072,29.17,-18.192,18.433,-18.192,18.433C-18.192,18.433,-23.361,4.878,-24.452,-5.641C-24.452,-5.641,-26.441,-8.319,-28.68,-12.139C-30.158,-14.659,-31.744,-17.675,-32.94,-20.748" /></g><g id="Group 41" transform="matrix(1,0,0,1,92.174,85.477)"><path stroke-linejoin="round" stroke-linecap="round" stroke-width="1" stroke-opacity="1" stroke="#2e03e5" d="M-34.353,-25.227C-34.678,-26.635,-34.866,-28.008,-34.866,-29.303C-34.866,-29.303,-22.837,-39.42,-7.419,-39.368C10.978,-39.304,22.226,-33.517,26.734,-25.477C33.868,-12.754,34.866,32.299,34.866,32.299C34.866,32.299,-11.298,39.42,-17.923,30.684C-19.072,29.17,-18.192,18.433,-18.192,18.433C-18.192,18.433,-23.361,4.878,-24.452,-5.641C-24.452,-5.641,-26.441,-8.319,-28.68,-12.139C-30.158,-14.659,-31.744,-17.675,-32.94,-20.748" /></g><g id="Group 39" transform="matrix(1,0,0,1,92.174,85.477)"><path stroke-linejoin="round" stroke-linecap="round" stroke-width="1" stroke-opacity="1" stroke="#2e03e5" d="M-34.353,-25.227C-34.678,-26.635,-34.866,-28.008,-34.866,-29.303C-34.866,-29.303,-22.837,-39.42,-7.419,-39.368C10.978,-39.304,22.226,-33.517,26.734,-25.477C33.868,-12.754,34.866,32.299,34.866,32.299C34.866,32.299,-11.298,39.42,-17.923,30.684C-19.072,29.17,-18.192,18.433,-18.192,18.433C-18.192,18.433,-23.361,4.878,-24.452,-5.641C-24.452,-5.641,-26.441,-8.319,-28.68,-12.139C-30.158,-14.659,-31.744,-17.675,-32.94,-20.748" /></g><g id="Group 38" transform="matrix(1,0,0,1,79.029,94.495)"><path stroke-linejoin="round" stroke-linecap="round" stroke-width="1" stroke-opacity="1" stroke="#2e03e5" d="M-3.525,-23.408C-3.525,-23.408,3.525,3.946,2.44,9.958C1.902,12.935,3.466,16.025,3.466,16.025C3.466,16.025,0.248,19.193,2.44,23.408" /></g><g id="Group 37" transform="matrix(1,0,0,1,95.886,88.14)"><path stroke-linejoin="round" stroke-linecap="round" stroke-width="1" stroke-opacity="1" stroke="#2e03e5" d="M-1.678,5.571C-3.054,5.455,-4.317,5.127,-5.221,4.455L-7.312,-4.705C-7.312,-4.705,-0.864,-3.995,5.071,-5.571L7.312,4.455C7.312,4.455,5.65,4.94,3.473,5.285" /></g><g id="Group 36" transform="matrix(1,0,0,1,81.211,60.102)"><path fill="#00ddb3" fill-opacity="1" d="M-10.715,14.54C-10.715,14.54,-16.674,-11.021,-1.578,-13.992C13.517,-16.963,16.674,-9.888,15.78,-5.094C14.59,1.292,2.047,16.963,2.047,16.963L-5.707,10.985L-10.715,14.54Z" /></g><g id="Group 35" transform="matrix(1,0,0,1,81.211,60.102)"><path stroke-linejoin="round" stroke-linecap="round" stroke-width="1" stroke-opacity="1" stroke="#2e03e5" d="M-10.715,14.54C-10.715,14.54,-16.674,-11.021,-1.578,-13.992C13.517,-16.963,16.674,-9.888,15.78,-5.094C14.59,1.292,2.047,16.963,2.047,16.963L-5.707,10.985L-10.715,14.54Z" /></g><g id="Group 33" transform="matrix(1,0,0,1,81.211,60.102)"><path stroke-linejoin="round" stroke-linecap="round" stroke-width="1" stroke-opacity="1" stroke="#2e03e5" d="M-10.715,14.54C-10.715,14.54,-16.674,-11.021,-1.578,-13.992C13.517,-16.963,16.674,-9.888,15.78,-5.094C14.59,1.292,2.047,16.963,2.047,16.963L-5.707,10.985L-10.715,14.54Z" /></g><g id="Group 32" transform="matrix(1,0,0,1,66.566,141.574)"><path stroke-linejoin="round" stroke-linecap="round" stroke-width="1" stroke-opacity="1" stroke="#d9e0e6" d="M-15.928,11.974C-15.928,11.974,-6.155,0.681,15.928,-7.847C15.928,-7.847,10.207,-9.601,8.938,-11.974" /></g><g id="Group 31" transform="matrix(1,0,0,1,34.662,204.376)"><path stroke-linejoin="round" stroke-linecap="round" stroke-width="1" stroke-opacity="1" stroke="#d9e0e6" d="M4.474,-16.227L-4.474,16.227" /></g><g id="Group 30" transform="matrix(1,0,0,1,118.447,96.638)"><path fill="#00ddb3" fill-opacity="1" d="M-10.237,-2.045C-10.237,-2.045,-6.213,4.713,10.237,4.088C10.237,4.088,5.719,-1.061,-1.007,-2.887C-7.732,-4.712,-10.237,-2.045,-10.237,-2.045Z" /></g><g id="Group 29" transform="matrix(1,0,0,1,118.447,96.638)"><path stroke-linejoin="round" stroke-linecap="round" stroke-width="1" stroke-opacity="1" stroke="#2e03e5" d="M-10.237,-2.045C-10.237,-2.045,-6.213,4.713,10.237,4.088C10.237,4.088,5.719,-1.061,-1.007,-2.887C-7.732,-4.712,-10.237,-2.045,-10.237,-2.045Z" /></g><g id="Group 28" transform="matrix(1,0,0,1,85.536,99.649)"><path fill="#d9e0e6" fill-opacity="1" d="M-41.225,-2.341C-41.225,-2.341,-37.404,-8.264,-33.898,-9.45C-30.392,-10.637,-20.119,-10.741,-18.536,-10.782C-16.954,-10.824,11.312,-3.644,24.564,0.772L23.409,-21.352L41.225,-19.948C41.225,-19.948,40.506,7.061,37.738,14.207C34.968,21.352,31.001,19.616,24.228,16.698C-2.405,5.223,-18.007,-2.769,-19.453,-2.341C-20.899,-1.912,-41.225,-2.341,-41.225,-2.341Z" /></g><g id="Group 27" transform="matrix(1,0,0,1,85.536,99.649)"><path stroke-linejoin="round" stroke-linecap="round" stroke-width="1" stroke-opacity="1" stroke="#2e03e5" d="M-41.225,-2.341C-41.225,-2.341,-37.404,-8.264,-33.898,-9.45C-30.392,-10.637,-20.119,-10.741,-18.536,-10.782C-16.954,-10.824,11.312,-3.644,24.564,0.772L23.409,-21.352L41.225,-19.948C41.225,-19.948,40.506,7.061,37.738,14.207C34.968,21.352,31.001,19.616,24.228,16.698C-2.405,5.223,-18.007,-2.769,-19.453,-2.341C-20.899,-1.912,-41.225,-2.341,-41.225,-2.341Z" /></g><g id="Group 26" transform="matrix(1,0,0,1,117.638,77.488)"><path fill="#00ddb3" fill-opacity="1" d="M-13.141,-12.05C-13.607,-10.117,-13.78,-8.164,-13.581,-6.433C-12.79,0.49,-9.429,17.105,-9.429,17.105C-9.429,17.105,7.188,19.479,11.045,23.237C11.045,23.237,13.78,1.211,8.209,-9.93C2.637,-21.071,-3.145,-22.334,-3.145,-22.334C-6.793,-23.237,-10.103,-19.831,-11.998,-15.466" /></g><g id="Group 25" transform="matrix(1,0,0,1,117.638,77.488)"><path stroke-linejoin="round" stroke-linecap="round" stroke-width="1" stroke-opacity="1" stroke="#2e03e5" d="M-13.141,-12.05C-13.607,-10.117,-13.78,-8.164,-13.581,-6.433C-12.79,0.49,-9.429,17.105,-9.429,17.105C-9.429,17.105,7.188,19.479,11.045,23.237C11.045,23.237,13.78,1.211,8.209,-9.93C2.637,-21.071,-3.145,-22.334,-3.145,-22.334C-6.793,-23.237,-10.103,-19.831,-11.998,-15.466" /></g><g id="Group 22" transform="matrix(1,0,0,1,115,80.914)"><path stroke-linejoin="round" stroke-linecap="round" stroke-width="1" stroke-opacity="1" stroke="#2e03e5" d="M-6.791,-6.924C-6.791,-6.924,-0.755,4.417,6.791,6.924" /></g><g id="Group 21" transform="matrix(1,0,0,1,70.113,163.282)"><path stroke-linejoin="round" stroke-linecap="round" stroke-width="1" stroke-opacity="1" stroke="#d9e0e6" d="M-0.777,-1.933C-0.777,-1.933,0.331,-1.095,0.777,1.932" /></g><g id="Group 20" transform="matrix(1,0,0,1,67.667,166.627)"><path stroke-linejoin="round" stroke-linecap="round" stroke-width="1" stroke-opacity="1" stroke="#d9e0e6" d="M-2.446,-1.412C-2.446,-1.412,0.614,-1.223,2.446,1.411" /></g><g id="Group 19" transform="matrix(1,0,0,1,33.755,156.651)"><path stroke-linejoin="round" stroke-linecap="round" stroke-width="1" stroke-opacity="1" stroke="#d9e0e6" d="M-1.602,-3.103C-1.602,-3.103,1.602,-1.484,0.907,3.103" /></g><g id="Group 18" transform="matrix(1,0,0,1,31.116,159.951)"><path stroke-linejoin="round" stroke-linecap="round" stroke-width="1" stroke-opacity="1" stroke="#d9e0e6" d="M-2.342,-2.459C-2.342,-2.459,2.029,0.131,2.342,2.459" /></g><g id="Group 17" transform="matrix(1,0,0,1,85.376,130.195)"><path stroke-linejoin="round" stroke-linecap="round" stroke-width="1" stroke-opacity="1" stroke="#d9e0e6" d="M-5.953,-0.684C-5.953,-0.684,3.777,0.683,5.953,-0.684" /></g><g id="Group 16" transform="matrix(1,0,0,1,81.354,56.905)"><path fill="#d9e0e6" fill-opacity="1" d="M-5.85,13.079C-5.85,13.079,-7.09,10.131,-6.871,5.65C-6.83,4.841,-6.75,3.99,-6.6,3.101L-8.29,0.421L-10.46,-3.029L-7.951,-13.079C-7.951,-13.079,8.03,-10,9.25,-5.54C10.46,-1.06,-5.85,13.079,-5.85,13.079Z" /></g><g id="Group 14" transform="matrix(1,0,0,1,81.354,56.905)"><path stroke-linejoin="round" stroke-linecap="round" stroke-width="1" stroke-opacity="1" stroke="#2e03e5" d="M-5.85,13.079C-5.85,13.079,-7.09,10.131,-6.871,5.65C-6.83,4.841,-6.75,3.99,-6.6,3.101L-8.29,0.421L-10.46,-3.029L-7.951,-13.079C-7.951,-13.079,8.03,-10,9.25,-5.54C10.46,-1.06,-5.85,13.079,-5.85,13.079Z" /></g><g id="Group 13" transform="matrix(1,0,0,1,68.968,35.272)"><path fill="#d9e0e6" fill-opacity="1" d="M16.579,9.444C21.525,-3.595,18.258,-25.686,-5.749,-21.444C-19.88,-18.947,-21.525,-1.924,-16.805,5.63C-12.086,13.183,-17.099,13.43,-10.021,19.035C-7.158,21.3,-4.84,25.158,-1.422,25.399C2.642,25.686,7.858,21.832,11.743,17.676" /></g><g id="Group 12" transform="matrix(1,0,0,1,68.968,35.272)"><path stroke-linejoin="round" stroke-linecap="round" stroke-width="1" stroke-opacity="1" stroke="#2e03e5" d="M16.579,9.444C21.525,-3.595,18.258,-25.686,-5.749,-21.444C-19.88,-18.947,-21.525,-1.924,-16.805,5.63C-12.086,13.183,-17.099,13.43,-10.021,19.035C-7.158,21.3,-4.84,25.158,-1.422,25.399C2.642,25.686,7.858,21.832,11.743,17.676" /></g><g id="Group 11" transform="matrix(1,0,0,1,65.768,39.295)"><path stroke-linejoin="round" stroke-linecap="round" stroke-width="1" stroke-opacity="1" stroke="#2e03e5" d="M-3.871,1.606C-3.871,1.606,-0.332,-1.606,3.871,-0.279" /></g><g id="Group 10" transform="matrix(1,0,0,1,52.968,39.351)"><path stroke-linejoin="round" stroke-linecap="round" stroke-width="1" stroke-opacity="1" stroke="#2e03e5" d="M2.292,1.55C2.292,1.55,1.088,-0.996,-2.292,-1.55" /></g><g id="Group 9" transform="matrix(1,0,0,1,58.199,49.421)"><path fill="#d9e0e6" fill-opacity="1" d="M-0.6,-3.881C-0.6,-3.881,-1.105,-1.285,-1.774,1.337C-2.422,3.881,2.422,2.525,2.205,2.119" /></g><g id="Group 8" transform="matrix(1,0,0,1,58.199,49.421)"><path stroke-linejoin="round" stroke-linecap="round" stroke-width="1" stroke-opacity="1" stroke="#2e03e5" d="M-0.6,-3.881C-0.6,-3.881,-1.105,-1.285,-1.774,1.337C-2.422,3.881,2.422,2.525,2.205,2.119" /></g><g id="Group 7" transform="matrix(1,0,0,1,65.566,53.141)"><path stroke-linejoin="round" stroke-linecap="round" stroke-width="1" stroke-opacity="1" stroke="#2e03e5" d="M-2.634,1.727C-2.634,1.727,0.469,0.984,2.634,-1.727" /></g><g id="Group 6" transform="matrix(1,0,0,1,65.79,44.476)"><path fill="#2e03e5" fill-opacity="1" d="M1.029,-0.281C1.227,0.446,0.926,1.16,0.358,1.316C-0.209,1.471,-0.83,1.007,-1.029,0.28C-1.227,-0.447,-0.926,-1.161,-0.359,-1.317C0.21,-1.471,0.831,-1.008,1.029,-0.281Z" /></g><g id="Group 5" transform="matrix(1,0,0,1,55.431,44.158)"><path fill="#2e03e5" fill-opacity="1" d="M0.686,-0.187C0.884,0.54,0.737,1.213,0.358,1.316C-0.02,1.419,-0.488,0.914,-0.686,0.187C-0.884,-0.54,-0.739,-1.212,-0.36,-1.316C0.019,-1.419,0.488,-0.914,0.686,-0.187Z" /></g><g id="Group 4" transform="matrix(1,0,0,1,67.649,24.544)"><path fill="#2e03e5" fill-opacity="1" d="M3.097,2.969C3.097,2.969,-0.628,12.703,-9.826,12.482C-9.826,12.482,-6.636,10.053,-5.752,7.728C-5.752,7.728,-12.831,14.737,-19.91,11.176C-26.988,7.615,-23.548,-8.928,-12.659,-15.485C-1.77,-22.043,9.29,-20.277,13.051,-14.031C13.051,-14.031,20.656,-14.729,24.001,-3.556C26.988,6.419,22.209,21.597,17.511,21.773C10.243,22.044,8.781,14.152,8.781,14.152C8.781,14.152,4.424,10.269,3.097,2.969Z" /></g><g id="Group 3" transform="matrix(1,0,0,1,67.649,24.544)"><path stroke-linejoin="round" stroke-linecap="round" stroke-width="1" stroke-opacity="1" stroke="#2e03e5" d="M3.097,2.969C3.097,2.969,-0.628,12.703,-9.826,12.482C-9.826,12.482,-6.636,10.053,-5.752,7.728C-5.752,7.728,-12.831,14.737,-19.91,11.176C-26.988,7.615,-23.548,-8.928,-12.659,-15.485C-1.77,-22.043,9.29,-20.277,13.051,-14.031C13.051,-14.031,20.656,-14.729,24.001,-3.556C26.988,6.419,22.209,21.597,17.511,21.773C10.243,22.044,8.781,14.152,8.781,14.152C8.781,14.152,4.424,10.269,3.097,2.969Z" /></g><g id="Group 2" transform="matrix(1,0,0,1,83.686,42.002)"><path fill="#d9e0e6" fill-opacity="1" d="M-4.977,2.765C-4.977,2.765,-5.198,-6.415,0.001,-5.309C5.199,-4.203,1.436,6.415,-2.49,6.305" /></g><g id="Group 1" transform="matrix(1,0,0,1,83.686,42.002)"><path stroke-linejoin="round" stroke-linecap="round" stroke-width="1" stroke-opacity="1" stroke="#2e03e5" d="M-4.977,2.765C-4.977,2.765,-5.198,-6.415,0.001,-5.309C5.199,-4.203,1.436,6.415,-2.49,6.305" /></g></g><g id="Layer 8 Outlines"><g transform="translate(269.72,293.237)"><animateTransform repeatCount="indefinite" type="translate" attributeName="transform" dur="3.267s" begin="0.9s" calcMode="spline" values="269.48 293.237; 275.48 293.237; 264.48 293.237; 269.48 293.237" keyTimes="0; 0.255; 0.663; 1" keySplines="0 0 1 1; 0 0 1 1; 0 0 1 1" fill="freeze" /><g transform="scale(1,1) translate(-7.245,-14.994)"><g id="Group 8" transform="matrix(1,0,0,1,18.066,18.623)"><path fill="#d9e0e6" fill-opacity="1" d="M-5.277,-4.677C-5.277,-4.677,1.275,-3.048,3.276,-1.65C5.277,-0.251,4.712,4.677,4.712,4.677C4.712,4.677,-4.039,2.18,-5.277,-4.677Z" /></g><g id="Group 7" transform="matrix(1,0,0,1,18.066,18.623)"><path stroke-linejoin="round" stroke-linecap="round" stroke-width="1" stroke-opacity="1" stroke="#2e03e5" d="M-5.277,-4.677C-5.277,-4.677,1.275,-3.048,3.276,-1.65C5.277,-0.251,4.712,4.677,4.712,4.677C4.712,4.677,-4.039,2.18,-5.277,-4.677Z" /></g><g id="Group 6" transform="matrix(1,0,0,1,15.396,12.503)"><path fill="#2e03e5" fill-opacity="1" d="M-6.809,-11.1L5.367,12.253L6.809,12.253L-4.757,-12.253L-6.809,-11.1Z" /></g><g id="Group 5" transform="matrix(1,0,0,1,12.995,20.407)"><path fill="#d9e0e6" fill-opacity="1" d="M6.57,-2.12C6.57,-2.12,-1.111,-7.582,-2.988,-7.582C-4.865,-7.582,-10.495,-0.929,-10.495,2.401C-10.495,5.73,1.776,7.582,4.18,4.749C5.375,3.341,3.001,-0.058,3.001,-0.058C3.001,-0.058,6.569,3.64,7.593,4.194C8.617,4.749,10.495,4.024,10.495,4.024C10.495,4.024,7.935,-0.058,6.57,-2.12Z" /></g><g id="Group 4" transform="matrix(1,0,0,1,12.995,20.407)"><path stroke-linejoin="round" stroke-linecap="round" stroke-width="1" stroke-opacity="1" stroke="#2e03e5" d="M6.57,-2.12C6.57,-2.12,-1.111,-7.582,-2.988,-7.582C-4.865,-7.582,-10.495,-0.929,-10.495,2.401C-10.495,5.73,1.776,7.582,4.18,4.749C5.375,3.341,3.001,-0.058,3.001,-0.058C3.001,-0.058,6.569,3.64,7.593,4.194C8.617,4.749,10.495,4.024,10.495,4.024C10.495,4.024,7.935,-0.058,6.57,-2.12Z" /></g><g id="Group 3" transform="matrix(1,0,0,1,12.789,23.147)"><path stroke-linejoin="round" stroke-linecap="round" stroke-width="1" stroke-opacity="1" stroke="#2e03e5" d="M3.208,2.799C3.208,2.799,0.29,-0.992,-3.208,-2.799" /></g><g id="Group 2" transform="matrix(1,0,0,1,13.771,18.933)"><path stroke-linejoin="round" stroke-linecap="round" stroke-width="1" stroke-opacity="1" stroke="#2e03e5" d="M2.226,1.415C2.226,1.415,-0.434,-0.903,-2.226,-1.415" /></g><g id="Group 1" transform="matrix(1,0,0,1,10.31,24.911)"><path stroke-linejoin="round" stroke-linecap="round" stroke-width="1" stroke-opacity="1" stroke="#2e03e5" d="M-2.685,-1.612C-2.685,-1.612,1.618,0.651,2.685,1.612" /></g></g></g></g><g transform="matrix(1,0,0,1,226.66,301.214)" visibility="hidden" id="Layer 9"><animate repeatCount="indefinite" begin="21.233s" calcMode="discrete" fill="freeze" dur="0s" values="visible; visible" keyTimes="0; 1" attributeName="visibility" /></g><g transform="matrix(1,0,0,1,60.98,357.002)" visibility="hidden" id="Plant"><animate repeatCount="indefinite" begin="21.233s" calcMode="discrete" fill="freeze" dur="0s" values="visible; visible" keyTimes="0; 1" attributeName="visibility" /></g><g transform="matrix(1,0,0,1,341.762,379.363)" visibility="hidden" id="Bag"><animate repeatCount="indefinite" begin="21.233s" calcMode="discrete" fill="freeze" dur="0s" values="visible; visible" keyTimes="0; 1" attributeName="visibility" /></g><g transform="matrix(1,0,0,1,0,500)" id="Layer 11" /><g transform="matrix(1,0,0,1,0,500)" id="Layer 12" /><g transform="matrix(1,0,0,1,0,500)" id="Layer 13" /><g transform="matrix(1,0,0,1,0,500)" id="Layer 14" /></svg>